# Blender 4.4.0
# www.blender.org
mtllib court_v1.mtl
o court_line_01_doubles_right_sideline
v 3.037500 -6.700000 0.020001
v 3.037500 6.700000 0.019999
v 3.062500 6.700000 0.019999
v 3.062500 -6.700000 0.020001
v 3.037500 6.700000 0.009999
v 3.062500 6.700000 0.009999
vn -0.0000 -0.0000 -1.0000
vn 0.0001 -0.0000 -1.0000
vn -0.0002 -0.0000 -1.0000
vn -0.0000 -0.0000 1.0000
vt 0.000000 0.000000
s 1
f 1/1/1 2/1/1 3/1/2
f 1/1/1 3/1/2 4/1/3
f 4/1/3 3/1/2 6/1/4
f 5/1/4 2/1/1 3/1/1
f 5/1/4 3/1/1 6/1/4
o court_line_02_doubles_left_sideline
v -3.062500 -6.700000 0.020001
v -3.062500 6.700000 0.019999
v -3.037500 6.700000 0.019999
v -3.037500 -6.700000 0.020001
v -3.062500 6.700000 0.009999
v -3.037500 6.700000 0.009999
vn -0.0000 -0.0000 -1.0000
vn 0.0001 -0.0000 -1.0000
vn -0.0002 -0.0000 -1.0000
vn -0.0000 -0.0000 1.0000
vt 0.000000 0.000000
s 1
f 7/2/5 8/2/5 9/2/6
f 7/2/5 9/2/6 10/2/7
f 10/2/7 9/2/6 12/2/8
f 11/2/8 8/2/5 9/2/5
f 11/2/8 9/2/5 12/2/8
o court_line_03_far_baseline
v -3.050000 6.712500 0.019999
v 3.050000 6.712500 0.019999
v 3.050000 6.687500 0.019999
v -3.050000 6.687500 0.019999
v 3.050000 6.712500 0.009999
v 3.050000 6.687500 0.009999
vn -0.0000 -0.0000 -1.0000
vn -0.0000 -0.0001 -1.0000
vn -0.0000 -0.0000 1.0000
vt 0.000000 0.000000
s 1
f 13/3/9 14/3/9 15/3/10
f 13/3/9 15/3/10 16/3/9
f 16/3/9 15/3/10 18/3/11
f 17/3/11 14/3/9 15/3/9
f 17/3/11 15/3/9 18/3/11
o court_line_04_near_baseline
v -3.050000 -6.687500 0.020001
v 3.050000 -6.687500 0.020001
v 3.050000 -6.712500 0.020001
v -3.050000 -6.712500 0.020001
v 3.050000 -6.687500 0.010001
v 3.050000 -6.712500 0.010001
vn -0.0000 -0.0000 -1.0000
vn -0.0000 -0.0001 -1.0000
vn -0.0000 -0.0000 1.0000
vt 0.000000 0.000000
s 1
f 19/4/12 20/4/12 21/4/13
f 19/4/12 21/4/13 22/4/12
f 22/4/12 21/4/13 24/4/14
f 23/4/14 20/4/12 21/4/12
f 23/4/14 21/4/12 24/4/14
o court_line_05_singles_right_sideline
v 2.577500 -6.700000 0.020001
v 2.577500 6.700000 0.019999
v 2.602500 6.700000 0.019999
v 2.602500 -6.700000 0.020001
v 2.577500 6.700000 0.009999
v 2.602500 6.700000 0.009999
vn -0.0000 -0.0000 -1.0000
vn 0.0001 -0.0000 -1.0000
vn -0.0002 -0.0000 -1.0000
vn -0.0000 -0.0000 1.0000
vt 0.000000 0.000000
s 1
f 25/5/15 26/5/15 27/5/16
f 25/5/15 27/5/16 28/5/17
f 28/5/17 27/5/16 30/5/18
f 29/5/18 26/5/15 27/5/15
f 29/5/18 27/5/15 30/5/18
o court_line_06_singles_left_sideline
v -2.602500 -6.700000 0.020001
v -2.602500 6.700000 0.019999
v -2.577500 6.700000 0.019999
v -2.577500 -6.700000 0.020001
v -2.602500 6.700000 0.009999
v -2.577500 6.700000 0.009999
vn -0.0000 -0.0000 -1.0000
vn 0.0001 -0.0000 -1.0000
vn -0.0002 -0.0000 -1.0000
vn -0.0000 -0.0000 1.0000
vt 0.000000 0.000000
s 1
f 31/6/19 32/6/19 33/6/20
f 31/6/19 33/6/20 34/6/21
f 34/6/21 33/6/20 36/6/22
f 35/6/22 32/6/19 33/6/19
f 35/6/22 33/6/19 36/6/22
o court_line_07_net_line
v -3.050000 0.012500 0.020000
v 3.050000 0.012500 0.020000
v 3.050000 -0.012500 0.020000
v -3.050000 -0.012500 0.020000
v 3.050000 0.012500 0.010000
v 3.050000 -0.012500 0.010000
vn -0.0000 -0.0000 -1.0000
vn -0.0000 -0.0001 -1.0000
vn -0.0000 -0.0000 1.0000
vt 0.000000 0.000000
s 1
f 37/7/23 38/7/23 39/7/24
f 37/7/23 39/7/24 40/7/23
f 40/7/23 39/7/24 42/7/25
f 41/7/25 38/7/23 39/7/23
f 41/7/25 39/7/23 42/7/25
o court_line_08_far_short_service_line
v -3.050000 1.992500 0.020000
v 3.050000 1.992500 0.020000
v 3.050000 1.967500 0.020000
v -3.050000 1.967500 0.020000
v 3.050000 1.992500 0.010000
v 3.050000 1.967500 0.010000
vn -0.0000 -0.0000 -1.0000
vn -0.0000 -0.0001 -1.0000
vn -0.0000 -0.0000 1.0000
vt 0.000000 0.000000
s 1
f 43/8/26 44/8/26 45/8/27
f 43/8/26 45/8/27 46/8/26
f 46/8/26 45/8/27 48/8/28
f 47/8/28 44/8/26 45/8/26
f 47/8/28 45/8/26 48/8/28
o court_line_09_near_short_service_line
v -3.050000 -1.967500 0.020000
v 3.050000 -1.967500 0.020000
v 3.050000 -1.992500 0.020000
v -3.050000 -1.992500 0.020000
v 3.050000 -1.967500 0.010000
v 3.050000 -1.992500 0.010000
vn -0.0000 -0.0000 -1.0000
vn -0.0000 -0.0001 -1.0000
vn -0.0000 -0.0000 1.0000
vt 0.000000 0.000000
s 1
f 49/9/29 50/9/29 51/9/30
f 49/9/29 51/9/30 52/9/29
f 52/9/29 51/9/30 54/9/31
f 53/9/31 50/9/29 51/9/29
f 53/9/31 51/9/29 54/9/31
o court_line_10_far_long_service_line
v -3.050000 5.952500 0.020000
v 3.050000 5.952500 0.020000
v 3.050000 5.927500 0.020000
v -3.050000 5.927500 0.020000
v 3.050000 5.952500 0.010000
v 3.050000 5.927500 0.010000
vn -0.0000 -0.0000 -1.0000
vn -0.0000 -0.0001 -1.0000
vn -0.0000 -0.0000 1.0000
vt 0.000000 0.000000
s 1
f 55/10/32 56/10/32 57/10/33
f 55/10/32 57/10/33 58/10/32
f 58/10/32 57/10/33 60/10/34
f 59/10/34 56/10/32 57/10/32
f 59/10/34 57/10/32 60/10/34
o court_line_11_near_long_service_line
v -3.050000 -5.927500 0.020000
v 3.050000 -5.927500 0.020000
v 3.050000 -5.952500 0.020000
v -3.050000 -5.952500 0.020000
v 3.050000 -5.927500 0.010000
v 3.050000 -5.952500 0.010000
vn -0.0000 -0.0000 -1.0000
vn -0.0000 -0.0001 -1.0000
vn -0.0000 -0.0000 1.0000
vt 0.000000 0.000000
s 1
f 61/11/35 62/11/35 63/11/36
f 61/11/35 63/11/36 64/11/35
f 64/11/35 63/11/36 66/11/37
f 65/11/37 62/11/35 63/11/35
f 65/11/37 63/11/35 66/11/37
o court_line_12_far_center_line
v -0.012500 1.980000 0.020000
v -0.012500 6.700000 0.019999
v 0.012500 6.700000 0.019999
v 0.012500 1.980000 0.020000
v -0.012500 6.700000 0.009999
v 0.012500 6.700000 0.009999
vn -0.0000 -0.0000 -1.0000
vn 0.0001 -0.0000 -1.0000
vn -0.0000 -0.0000 1.0000
vt 0.000000 0.000000
s 1
f 67/12/38 68/12/38 69/12/39
f 67/12/38 69/12/39 70/12/38
f 70/12/38 69/12/39 72/12/40
f 71/12/40 68/12/38 69/12/38
f 71/12/40 69/12/38 72/12/40
o court_line_13_near_center_line
v -0.012500 -6.700000 0.020001
v -0.012500 -1.980000 0.020000
v 0.012500 -1.980000 0.020000
v 0.012500 -6.700000 0.020001
v -0.012500 -1.980000 0.010000
v 0.012500 -1.980000 0.010000
vn -0.0000 -0.0000 -1.0000
vn 0.0001 -0.0000 -1.0000
vn -0.0000 -0.0000 1.0000
vt 0.000000 0.000000
s 1
f 73/13/41 74/13/41 75/13/42
f 73/13/41 75/13/42 76/13/41
f 76/13/41 75/13/42 78/13/43
f 77/13/43 74/13/41 75/13/41
f 77/13/43 75/13/41 78/13/43
o net
v -3.050000 0.000000 0.790500
v -3.050000 0.000000 0.815500
v 3.050000 0.000000 0.815500
v 3.050000 0.000000 0.812500
v -3.050000 0.000000 0.812500
v -3.050000 0.000000 0.837500
v 3.050000 0.000000 0.837500
v 3.050000 0.000000 0.834500
v -3.050000 0.000000 0.834500
v -3.050000 0.000000 0.859500
v 3.050000 0.000000 0.859500
v 3.050000 0.000000 0.856500
v -3.050000 0.000000 0.856500
v -3.050000 0.000000 0.881500
v 3.050000 0.000000 0.881500
v 3.050000 0.000000 0.878500
v -3.050000 0.000000 0.878500
v -3.050000 0.000000 0.903500
v 3.050000 0.000000 0.903500
v 3.050000 0.000000 0.900500
v -3.050000 0.000000 0.900500
v -3.050000 0.000000 0.925500
v 3.050000 0.000000 0.925500
v 3.050000 0.000000 0.922500
v -3.050000 0.000000 0.922500
v -3.050000 0.000000 0.947500
v 3.050000 0.000000 0.947500
v 3.050000 0.000000 0.944500
v -3.050000 0.000000 0.944500
v -3.050000 0.000000 0.969500
v 3.050000 0.000000 0.969500
v 3.050000 0.000000 0.966500
v -3.050000 0.000000 0.966500
v -3.050000 0.000000 0.991500
v 3.050000 0.000000 0.991500
v 3.050000 0.000000 0.988500
v -3.050000 0.000000 0.988500
v -3.050000 0.000000 1.013500
v 3.050000 0.000000 1.013500
v 3.050000 0.000000 1.010500
v -3.050000 0.000000 1.010500
v -3.050000 0.000000 1.035500
v 3.050000 0.000000 1.035500
v 3.050000 0.000000 1.032500
v -3.050000 0.000000 1.032500
v -3.050000 0.000000 1.057500
v 3.050000 0.000000 1.057500
v 3.050000 0.000000 1.054500
v -3.050000 0.000000 1.054500
v -3.050000 0.000000 1.079500
v 3.050000 0.000000 1.079500
v 3.050000 0.000000 1.076500
v -3.050000 0.000000 1.076500
v -3.050000 0.000000 1.101500
v 3.050000 0.000000 1.101500
v 3.050000 0.000000 1.098500
v -3.050000 0.000000 1.098500
v -3.050000 0.000000 1.123500
v 3.050000 0.000000 1.123500
v 3.050000 0.000000 1.120500
v -3.050000 0.000000 1.120500
v -3.050000 0.000000 1.145500
v 3.050000 0.000000 1.145500
v 3.050000 0.000000 1.142500
v -3.050000 0.000000 1.142500
v -3.050000 0.000000 1.167500
v 3.050000 0.000000 1.167500
v 3.050000 0.000000 1.164500
v -3.050000 0.000000 1.164500
v -3.050000 0.000000 1.189500
v 3.050000 0.000000 1.189500
v 3.050000 0.000000 1.186500
v -3.050000 0.000000 1.186500
v -3.050000 0.000000 1.211500
v 3.050000 0.000000 1.211500
v 3.050000 0.000000 1.208500
v -3.050000 0.000000 1.208500
v -3.050000 0.000000 1.233500
v 3.050000 0.000000 1.233500
v 3.050000 0.000000 1.230500
v -3.050000 0.000000 1.230500
v -3.050000 0.000000 1.255500
v 3.050000 0.000000 1.255500
v 3.050000 0.000000 1.252500
v -3.050000 0.000000 1.252500
v -3.050000 0.000000 1.277500
v 3.050000 0.000000 1.277500
v 3.050000 0.000000 1.274500
v -3.050000 0.000000 1.274500
v -3.050000 0.000000 1.299500
v 3.050000 0.000000 1.299500
v 3.050000 0.000000 1.296500
v -3.050000 0.000000 1.296500
v -3.050000 0.000000 1.321500
v 3.050000 0.000000 1.321500
v 3.050000 0.000000 1.318500
v -3.050000 0.000000 1.318500
v -3.050000 0.000000 1.343500
v 3.050000 0.000000 1.343500
v 3.050000 0.000000 1.340500
v -3.050000 0.000000 1.340500
v -3.050000 0.000000 1.365500
v 3.050000 0.000000 1.365500
v 3.050000 0.000000 1.362500
v -3.050000 0.000000 1.362500
v -3.050000 0.000000 1.387500
v 3.050000 0.000000 1.387500
v 3.050000 0.000000 1.384500
v -3.050000 0.000000 1.384500
v -3.050000 0.000000 1.409500
v 3.050000 0.000000 1.409500
v 3.050000 0.000000 1.406500
v -3.050000 0.000000 1.406500
v -3.050000 0.000000 1.431500
v 3.050000 0.000000 1.431500
v 3.050000 0.000000 1.428500
v -3.050000 0.000000 1.428500
v -3.050000 0.000000 1.453500
v 3.050000 0.000000 1.453500
v 3.050000 0.000000 1.450500
v -3.050000 0.000000 1.450500
v -3.050000 0.000000 1.475500
v 3.050000 0.000000 1.475500
v 3.050000 0.000000 1.472500
v -3.050000 0.000000 1.472500
v -3.050000 0.000000 1.497500
v 3.050000 0.000000 1.497500
v 3.050000 0.000000 1.494500
v -3.050000 0.000000 1.494500
v -3.050000 0.000000 1.519500
v 3.050000 0.000000 1.519500
v 3.050000 0.000000 1.516500
v -3.050000 0.000000 1.516500
v -2.392610 0.000000 1.541500
v 2.392610 0.000000 1.541500
v 2.392610 0.000000 1.538500
v -2.392610 0.000000 1.538500
v -3.051500 0.000000 0.790000
v -3.051500 0.000000 1.550000
v -3.048500 0.000000 1.550000
v -3.048500 0.000000 0.790000
v -3.029500 0.000000 0.790000
v -3.029500 0.000000 1.549630
v -3.026500 0.000000 1.549630
v -3.026500 0.000000 0.790000
v -3.007500 0.000000 0.790000
v -3.007500 0.000000 1.549260
v -3.004500 0.000000 1.549260
v -3.004500 0.000000 0.790000
v -2.985500 0.000000 0.790000
v -2.985500 0.000000 1.548890
v -2.982500 0.000000 1.548890
v -2.982500 0.000000 0.790000
v -2.963500 0.000000 0.790000
v -2.963500 0.000000 1.548520
v -2.960500 0.000000 1.548520
v -2.960500 0.000000 0.790000
v -2.941500 0.000000 0.790000
v -2.941500 0.000000 1.548160
v -2.938500 0.000000 1.548160
v -2.938500 0.000000 0.790000
v -2.919500 0.000000 0.790000
v -2.919500 0.000000 1.547800
v -2.916500 0.000000 1.547800
v -2.916500 0.000000 0.790000
v -2.897500 0.000000 0.790000
v -2.897500 0.000000 1.547440
v -2.894500 0.000000 1.547440
v -2.894500 0.000000 0.790000
v -2.875500 0.000000 0.790000
v -2.875500 0.000000 1.547090
v -2.872500 0.000000 1.547090
v -2.872500 0.000000 0.790000
v -2.853500 0.000000 0.790000
v -2.853500 0.000000 1.546730
v -2.850500 0.000000 1.546730
v -2.850500 0.000000 0.790000
v -2.831500 0.000000 0.790000
v -2.831500 0.000000 1.546380
v -2.828500 0.000000 1.546380
v -2.828500 0.000000 0.790000
v -2.809500 0.000000 0.790000
v -2.809500 0.000000 1.546040
v -2.806500 0.000000 1.546040
v -2.806500 0.000000 0.790000
v -2.787500 0.000000 0.790000
v -2.787500 0.000000 1.545690
v -2.784500 0.000000 1.545690
v -2.784500 0.000000 0.790000
v -2.765500 0.000000 0.790000
v -2.765500 0.000000 1.545350
v -2.762500 0.000000 1.545350
v -2.762500 0.000000 0.790000
v -2.743500 0.000000 0.790000
v -2.743500 0.000000 1.545010
v -2.740500 0.000000 1.545010
v -2.740500 0.000000 0.790000
v -2.721500 0.000000 0.790000
v -2.721500 0.000000 1.544680
v -2.718500 0.000000 1.544680
v -2.718500 0.000000 0.790000
v -2.699500 0.000000 0.790000
v -2.699500 0.000000 1.544350
v -2.696500 0.000000 1.544350
v -2.696500 0.000000 0.790000
v -2.677500 0.000000 0.790000
v -2.677500 0.000000 1.544010
v -2.674500 0.000000 1.544010
v -2.674500 0.000000 0.790000
v -2.655500 0.000000 0.790000
v -2.655500 0.000000 1.543690
v -2.652500 0.000000 1.543690
v -2.652500 0.000000 0.790000
v -2.633500 0.000000 0.790000
v -2.633500 0.000000 1.543360
v -2.630500 0.000000 1.543360
v -2.630500 0.000000 0.790000
v -2.611500 0.000000 0.790000
v -2.611500 0.000000 1.543040
v -2.608500 0.000000 1.543040
v -2.608500 0.000000 0.790000
v -2.589500 0.000000 0.790000
v -2.589500 0.000000 1.542720
v -2.586500 0.000000 1.542720
v -2.586500 0.000000 0.790000
v -2.567500 0.000000 0.790000
v -2.567500 0.000000 1.542400
v -2.564500 0.000000 1.542400
v -2.564500 0.000000 0.790000
v -2.545500 0.000000 0.790000
v -2.545500 0.000000 1.542090
v -2.542500 0.000000 1.542090
v -2.542500 0.000000 0.790000
v -2.523500 0.000000 0.790000
v -2.523500 0.000000 1.541780
v -2.520500 0.000000 1.541780
v -2.520500 0.000000 0.790000
v -2.501500 0.000000 0.790000
v -2.501500 0.000000 1.541470
v -2.498500 0.000000 1.541470
v -2.498500 0.000000 0.790000
v -2.479500 0.000000 0.790000
v -2.479500 0.000000 1.541160
v -2.476500 0.000000 1.541160
v -2.476500 0.000000 0.790000
v -2.457500 0.000000 0.790000
v -2.457500 0.000000 1.540860
v -2.454500 0.000000 1.540860
v -2.454500 0.000000 0.790000
v -2.435500 0.000000 0.790000
v -2.435500 0.000000 1.540560
v -2.432500 0.000000 1.540560
v -2.432500 0.000000 0.790000
v -2.413500 0.000000 0.790000
v -2.413500 0.000000 1.540260
v -2.410500 0.000000 1.540260
v -2.410500 0.000000 0.790000
v -2.391500 0.000000 0.790000
v -2.391500 0.000000 1.539970
v -2.388500 0.000000 1.539970
v -2.388500 0.000000 0.790000
v -2.369500 0.000000 0.790000
v -2.369500 0.000000 1.539670
v -2.366500 0.000000 1.539670
v -2.366500 0.000000 0.790000
v -2.347500 0.000000 0.790000
v -2.347500 0.000000 1.539380
v -2.344500 0.000000 1.539380
v -2.344500 0.000000 0.790000
v -2.325500 0.000000 0.790000
v -2.325500 0.000000 1.539100
v -2.322500 0.000000 1.539100
v -2.322500 0.000000 0.790000
v -2.303500 0.000000 0.790000
v -2.303500 0.000000 1.538810
v -2.300500 0.000000 1.538810
v -2.300500 0.000000 0.790000
v -2.281500 0.000000 0.790000
v -2.281500 0.000000 1.538530
v -2.278500 0.000000 1.538530
v -2.278500 0.000000 0.790000
v -2.259500 0.000000 0.790000
v -2.259500 0.000000 1.538250
v -2.256500 0.000000 1.538250
v -2.256500 0.000000 0.790000
v -2.237500 0.000000 0.790000
v -2.237500 0.000000 1.537970
v -2.234500 0.000000 1.537970
v -2.234500 0.000000 0.790000
v -2.215500 0.000000 0.790000
v -2.215500 0.000000 1.537700
v -2.212500 0.000000 1.537700
v -2.212500 0.000000 0.790000
v -2.193500 0.000000 0.790000
v -2.193500 0.000000 1.537430
v -2.190500 0.000000 1.537430
v -2.190500 0.000000 0.790000
v -2.171500 0.000000 0.790000
v -2.171500 0.000000 1.537160
v -2.168500 0.000000 1.537160
v -2.168500 0.000000 0.790000
v -2.149500 0.000000 0.790000
v -2.149500 0.000000 1.536900
v -2.146500 0.000000 1.536900
v -2.146500 0.000000 0.790000
v -2.127500 0.000000 0.790000
v -2.127500 0.000000 1.536630
v -2.124500 0.000000 1.536630
v -2.124500 0.000000 0.790000
v -2.105500 0.000000 0.790000
v -2.105500 0.000000 1.536370
v -2.102500 0.000000 1.536370
v -2.102500 0.000000 0.790000
v -2.083500 0.000000 0.790000
v -2.083500 0.000000 1.536120
v -2.080500 0.000000 1.536120
v -2.080500 0.000000 0.790000
v -2.061500 0.000000 0.790000
v -2.061500 0.000000 1.535860
v -2.058500 0.000000 1.535860
v -2.058500 0.000000 0.790000
v -2.039500 0.000000 0.790000
v -2.039500 0.000000 1.535610
v -2.036500 0.000000 1.535610
v -2.036500 0.000000 0.790000
v -2.017500 0.000000 0.790000
v -2.017500 0.000000 1.535360
v -2.014500 0.000000 1.535360
v -2.014500 0.000000 0.790000
v -1.995500 0.000000 0.790000
v -1.995500 0.000000 1.535110
v -1.992500 0.000000 1.535110
v -1.992500 0.000000 0.790000
v -1.973500 0.000000 0.790000
v -1.973500 0.000000 1.534870
v -1.970500 0.000000 1.534870
v -1.970500 0.000000 0.790000
v -1.951500 0.000000 0.790000
v -1.951500 0.000000 1.534630
v -1.948500 0.000000 1.534630
v -1.948500 0.000000 0.790000
v -1.929500 0.000000 0.790000
v -1.929500 0.000000 1.534390
v -1.926500 0.000000 1.534390
v -1.926500 0.000000 0.790000
v -1.907500 0.000000 0.790000
v -1.907500 0.000000 1.534150
v -1.904500 0.000000 1.534150
v -1.904500 0.000000 0.790000
v -1.885500 0.000000 0.790000
v -1.885500 0.000000 1.533920
v -1.882500 0.000000 1.533920
v -1.882500 0.000000 0.790000
v -1.863500 0.000000 0.790000
v -1.863500 0.000000 1.533690
v -1.860500 0.000000 1.533690
v -1.860500 0.000000 0.790000
v -1.841500 0.000000 0.790000
v -1.841500 0.000000 1.533460
v -1.838500 0.000000 1.533460
v -1.838500 0.000000 0.790000
v -1.819500 0.000000 0.790000
v -1.819500 0.000000 1.533240
v -1.816500 0.000000 1.533240
v -1.816500 0.000000 0.790000
v -1.797500 0.000000 0.790000
v -1.797500 0.000000 1.533020
v -1.794500 0.000000 1.533020
v -1.794500 0.000000 0.790000
v -1.775500 0.000000 0.790000
v -1.775500 0.000000 1.532800
v -1.772500 0.000000 1.532800
v -1.772500 0.000000 0.790000
v -1.753500 0.000000 0.790000
v -1.753500 0.000000 1.532580
v -1.750500 0.000000 1.532580
v -1.750500 0.000000 0.790000
v -1.731500 0.000000 0.790000
v -1.731500 0.000000 1.532360
v -1.728500 0.000000 1.532360
v -1.728500 0.000000 0.790000
v -1.709500 0.000000 0.790000
v -1.709500 0.000000 1.532150
v -1.706500 0.000000 1.532150
v -1.706500 0.000000 0.790000
v -1.687500 0.000000 0.790000
v -1.687500 0.000000 1.531940
v -1.684500 0.000000 1.531940
v -1.684500 0.000000 0.790000
v -1.665500 0.000000 0.790000
v -1.665500 0.000000 1.531740
v -1.662500 0.000000 1.531740
v -1.662500 0.000000 0.790000
v -1.643500 0.000000 0.790000
v -1.643500 0.000000 1.531540
v -1.640500 0.000000 1.531540
v -1.640500 0.000000 0.790000
v -1.621500 0.000000 0.790000
v -1.621500 0.000000 1.531340
v -1.618500 0.000000 1.531340
v -1.618500 0.000000 0.790000
v -1.599500 0.000000 0.790000
v -1.599500 0.000000 1.531140
v -1.596500 0.000000 1.531140
v -1.596500 0.000000 0.790000
v -1.577500 0.000000 0.790000
v -1.577500 0.000000 1.530940
v -1.574500 0.000000 1.530940
v -1.574500 0.000000 0.790000
v -1.555500 0.000000 0.790000
v -1.555500 0.000000 1.530750
v -1.552500 0.000000 1.530750
v -1.552500 0.000000 0.790000
v -1.533500 0.000000 0.790000
v -1.533500 0.000000 1.530560
v -1.530500 0.000000 1.530560
v -1.530500 0.000000 0.790000
v -1.511500 0.000000 0.790000
v -1.511500 0.000000 1.530370
v -1.508500 0.000000 1.530370
v -1.508500 0.000000 0.790000
v -1.489500 0.000000 0.790000
v -1.489500 0.000000 1.530190
v -1.486500 0.000000 1.530190
v -1.486500 0.000000 0.790000
v -1.467500 0.000000 0.790000
v -1.467500 0.000000 1.530010
v -1.464500 0.000000 1.530010
v -1.464500 0.000000 0.790000
v -1.445500 0.000000 0.790000
v -1.445500 0.000000 1.529830
v -1.442500 0.000000 1.529830
v -1.442500 0.000000 0.790000
v -1.423500 0.000000 0.790000
v -1.423500 0.000000 1.529650
v -1.420500 0.000000 1.529650
v -1.420500 0.000000 0.790000
v -1.401500 0.000000 0.790000
v -1.401500 0.000000 1.529480
v -1.398500 0.000000 1.529480
v -1.398500 0.000000 0.790000
v -1.379500 0.000000 0.790000
v -1.379500 0.000000 1.529310
v -1.376500 0.000000 1.529310
v -1.376500 0.000000 0.790000
v -1.357500 0.000000 0.790000
v -1.357500 0.000000 1.529140
v -1.354500 0.000000 1.529140
v -1.354500 0.000000 0.790000
v -1.335500 0.000000 0.790000
v -1.335500 0.000000 1.528970
v -1.332500 0.000000 1.528970
v -1.332500 0.000000 0.790000
v -1.313500 0.000000 0.790000
v -1.313500 0.000000 1.528810
v -1.310500 0.000000 1.528810
v -1.310500 0.000000 0.790000
v -1.291500 0.000000 0.790000
v -1.291500 0.000000 1.528650
v -1.288500 0.000000 1.528650
v -1.288500 0.000000 0.790000
v -1.269500 0.000000 0.790000
v -1.269500 0.000000 1.528490
v -1.266500 0.000000 1.528490
v -1.266500 0.000000 0.790000
v -1.247500 0.000000 0.790000
v -1.247500 0.000000 1.528340
v -1.244500 0.000000 1.528340
v -1.244500 0.000000 0.790000
v -1.225500 0.000000 0.790000
v -1.225500 0.000000 1.528190
v -1.222500 0.000000 1.528190
v -1.222500 0.000000 0.790000
v -1.203500 0.000000 0.790000
v -1.203500 0.000000 1.528040
v -1.200500 0.000000 1.528040
v -1.200500 0.000000 0.790000
v -1.181500 0.000000 0.790000
v -1.181500 0.000000 1.527890
v -1.178500 0.000000 1.527890
v -1.178500 0.000000 0.790000
v -1.159500 0.000000 0.790000
v -1.159500 0.000000 1.527750
v -1.156500 0.000000 1.527750
v -1.156500 0.000000 0.790000
v -1.137500 0.000000 0.790000
v -1.137500 0.000000 1.527610
v -1.134500 0.000000 1.527610
v -1.134500 0.000000 0.790000
v -1.115500 0.000000 0.790000
v -1.115500 0.000000 1.527470
v -1.112500 0.000000 1.527470
v -1.112500 0.000000 0.790000
v -1.093500 0.000000 0.790000
v -1.093500 0.000000 1.527330
v -1.090500 0.000000 1.527330
v -1.090500 0.000000 0.790000
v -1.071500 0.000000 0.790000
v -1.071500 0.000000 1.527200
v -1.068500 0.000000 1.527200
v -1.068500 0.000000 0.790000
v -1.049500 0.000000 0.790000
v -1.049500 0.000000 1.527070
v -1.046500 0.000000 1.527070
v -1.046500 0.000000 0.790000
v -1.027500 0.000000 0.790000
v -1.027500 0.000000 1.526940
v -1.024500 0.000000 1.526940
v -1.024500 0.000000 0.790000
v -1.005500 0.000000 0.790000
v -1.005500 0.000000 1.526820
v -1.002500 0.000000 1.526820
v -1.002500 0.000000 0.790000
v -0.983500 0.000000 0.790000
v -0.983500 0.000000 1.526700
v -0.980500 0.000000 1.526700
v -0.980500 0.000000 0.790000
v -0.961500 0.000000 0.790000
v -0.961500 0.000000 1.526580
v -0.958500 0.000000 1.526580
v -0.958500 0.000000 0.790000
v -0.939500 0.000000 0.790000
v -0.939500 0.000000 1.526460
v -0.936500 0.000000 1.526460
v -0.936500 0.000000 0.790000
v -0.917500 0.000000 0.790000
v -0.917500 0.000000 1.526350
v -0.914500 0.000000 1.526350
v -0.914500 0.000000 0.790000
v -0.895500 0.000000 0.790000
v -0.895500 0.000000 1.526230
v -0.892500 0.000000 1.526230
v -0.892500 0.000000 0.790000
v -0.873500 0.000000 0.790000
v -0.873500 0.000000 1.526130
v -0.870500 0.000000 1.526130
v -0.870500 0.000000 0.790000
v -0.851500 0.000000 0.790000
v -0.851500 0.000000 1.526020
v -0.848500 0.000000 1.526020
v -0.848500 0.000000 0.790000
v -0.829500 0.000000 0.790000
v -0.829500 0.000000 1.525920
v -0.826500 0.000000 1.525920
v -0.826500 0.000000 0.790000
v -0.807500 0.000000 0.790000
v -0.807500 0.000000 1.525820
v -0.804500 0.000000 1.525820
v -0.804500 0.000000 0.790000
v -0.785500 0.000000 0.790000
v -0.785500 0.000000 1.525720
v -0.782500 0.000000 1.525720
v -0.782500 0.000000 0.790000
v -0.763500 0.000000 0.790000
v -0.763500 0.000000 1.525620
v -0.760500 0.000000 1.525620
v -0.760500 0.000000 0.790000
v -0.741500 0.000000 0.790000
v -0.741500 0.000000 1.525530
v -0.738500 0.000000 1.525530
v -0.738500 0.000000 0.790000
v -0.719500 0.000000 0.790000
v -0.719500 0.000000 1.525440
v -0.716500 0.000000 1.525440
v -0.716500 0.000000 0.790000
v -0.697500 0.000000 0.790000
v -0.697500 0.000000 1.525350
v -0.694500 0.000000 1.525350
v -0.694500 0.000000 0.790000
v -0.675500 0.000000 0.790000
v -0.675500 0.000000 1.525270
v -0.672500 0.000000 1.525270
v -0.672500 0.000000 0.790000
v -0.653500 0.000000 0.790000
v -0.653500 0.000000 1.525190
v -0.650500 0.000000 1.525190
v -0.650500 0.000000 0.790000
v -0.631500 0.000000 0.790000
v -0.631500 0.000000 1.525110
v -0.628500 0.000000 1.525110
v -0.628500 0.000000 0.790000
v -0.609500 0.000000 0.790000
v -0.609500 0.000000 1.525030
v -0.606500 0.000000 1.525030
v -0.606500 0.000000 0.790000
v -0.587500 0.000000 0.790000
v -0.587500 0.000000 1.524960
v -0.584500 0.000000 1.524960
v -0.584500 0.000000 0.790000
v -0.565500 0.000000 0.790000
v -0.565500 0.000000 1.524890
v -0.562500 0.000000 1.524890
v -0.562500 0.000000 0.790000
v -0.543500 0.000000 0.790000
v -0.543500 0.000000 1.524820
v -0.540500 0.000000 1.524820
v -0.540500 0.000000 0.790000
v -0.521500 0.000000 0.790000
v -0.521500 0.000000 1.524760
v -0.518500 0.000000 1.524760
v -0.518500 0.000000 0.790000
v -0.499500 0.000000 0.790000
v -0.499500 0.000000 1.524690
v -0.496500 0.000000 1.524690
v -0.496500 0.000000 0.790000
v -0.477500 0.000000 0.790000
v -0.477500 0.000000 1.524630
v -0.474500 0.000000 1.524630
v -0.474500 0.000000 0.790000
v -0.455500 0.000000 0.790000
v -0.455500 0.000000 1.524580
v -0.452500 0.000000 1.524580
v -0.452500 0.000000 0.790000
v -0.433500 0.000000 0.790000
v -0.433500 0.000000 1.524520
v -0.430500 0.000000 1.524520
v -0.430500 0.000000 0.790000
v -0.411500 0.000000 0.790000
v -0.411500 0.000000 1.524470
v -0.408500 0.000000 1.524470
v -0.408500 0.000000 0.790000
v -0.389500 0.000000 0.790000
v -0.389500 0.000000 1.524420
v -0.386500 0.000000 1.524420
v -0.386500 0.000000 0.790000
v -0.367500 0.000000 0.790000
v -0.367500 0.000000 1.524370
v -0.364500 0.000000 1.524370
v -0.364500 0.000000 0.790000
v -0.345500 0.000000 0.790000
v -0.345500 0.000000 1.524330
v -0.342500 0.000000 1.524330
v -0.342500 0.000000 0.790000
v -0.323500 0.000000 0.790000
v -0.323500 0.000000 1.524290
v -0.320500 0.000000 1.524290
v -0.320500 0.000000 0.790000
v -0.301500 0.000000 0.790000
v -0.301500 0.000000 1.524250
v -0.298500 0.000000 1.524250
v -0.298500 0.000000 0.790000
v -0.279500 0.000000 0.790000
v -0.279500 0.000000 1.524220
v -0.276500 0.000000 1.524220
v -0.276500 0.000000 0.790000
v -0.257500 0.000000 0.790000
v -0.257500 0.000000 1.524180
v -0.254500 0.000000 1.524180
v -0.254500 0.000000 0.790000
v -0.235500 0.000000 0.790000
v -0.235500 0.000000 1.524150
v -0.232500 0.000000 1.524150
v -0.232500 0.000000 0.790000
v -0.213500 0.000000 0.790000
v -0.213500 0.000000 1.524130
v -0.210500 0.000000 1.524130
v -0.210500 0.000000 0.790000
v -0.191500 0.000000 0.790000
v -0.191500 0.000000 1.524100
v -0.188500 0.000000 1.524100
v -0.188500 0.000000 0.790000
v -0.169500 0.000000 0.790000
v -0.169500 0.000000 1.524080
v -0.166500 0.000000 1.524080
v -0.166500 0.000000 0.790000
v -0.147500 0.000000 0.790000
v -0.147500 0.000000 1.524060
v -0.144500 0.000000 1.524060
v -0.144500 0.000000 0.790000
v -0.125500 0.000000 0.790000
v -0.125500 0.000000 1.524040
v -0.122500 0.000000 1.524040
v -0.122500 0.000000 0.790000
v -0.103500 0.000000 0.790000
v -0.103500 0.000000 1.524030
v -0.100500 0.000000 1.524030
v -0.100500 0.000000 0.790000
v -0.081500 0.000000 0.790000
v -0.081500 0.000000 1.524020
v -0.078500 0.000000 1.524020
v -0.078500 0.000000 0.790000
v -0.059500 0.000000 0.790000
v -0.059500 0.000000 1.524010
v -0.056500 0.000000 1.524010
v -0.056500 0.000000 0.790000
v -0.037500 0.000000 0.790000
v -0.037500 0.000000 1.524000
v -0.034500 0.000000 1.524000
v -0.034500 0.000000 0.790000
v -0.015500 0.000000 0.790000
v -0.015500 0.000000 1.524000
v -0.012500 0.000000 1.524000
v -0.012500 0.000000 0.790000
v 0.006500 0.000000 0.790000
v 0.006500 0.000000 1.524000
v 0.009500 0.000000 1.524000
v 0.009500 0.000000 0.790000
v 0.028500 0.000000 0.790000
v 0.028500 0.000000 1.524000
v 0.031500 0.000000 1.524000
v 0.031500 0.000000 0.790000
v 0.050500 0.000000 0.790000
v 0.050500 0.000000 1.524010
v 0.053500 0.000000 1.524010
v 0.053500 0.000000 0.790000
v 0.072500 0.000000 0.790000
v 0.072500 0.000000 1.524020
v 0.075500 0.000000 1.524020
v 0.075500 0.000000 0.790000
v 0.094500 0.000000 0.790000
v 0.094500 0.000000 1.524030
v 0.097500 0.000000 1.524030
v 0.097500 0.000000 0.790000
v 0.116500 0.000000 0.790000
v 0.116500 0.000000 1.524040
v 0.119500 0.000000 1.524040
v 0.119500 0.000000 0.790000
v 0.138500 0.000000 0.790000
v 0.138500 0.000000 1.524050
v 0.141500 0.000000 1.524050
v 0.141500 0.000000 0.790000
v 0.160500 0.000000 0.790000
v 0.160500 0.000000 1.524070
v 0.163500 0.000000 1.524070
v 0.163500 0.000000 0.790000
v 0.182500 0.000000 0.790000
v 0.182500 0.000000 1.524090
v 0.185500 0.000000 1.524090
v 0.185500 0.000000 0.790000
v 0.204500 0.000000 0.790000
v 0.204500 0.000000 1.524120
v 0.207500 0.000000 1.524120
v 0.207500 0.000000 0.790000
v 0.226500 0.000000 0.790000
v 0.226500 0.000000 1.524150
v 0.229500 0.000000 1.524150
v 0.229500 0.000000 0.790000
v 0.248500 0.000000 0.790000
v 0.248500 0.000000 1.524170
v 0.251500 0.000000 1.524170
v 0.251500 0.000000 0.790000
v 0.270500 0.000000 0.790000
v 0.270500 0.000000 1.524210
v 0.273500 0.000000 1.524210
v 0.273500 0.000000 0.790000
v 0.292500 0.000000 0.790000
v 0.292500 0.000000 1.524240
v 0.295500 0.000000 1.524240
v 0.295500 0.000000 0.790000
v 0.314500 0.000000 0.790000
v 0.314500 0.000000 1.524280
v 0.317500 0.000000 1.524280
v 0.317500 0.000000 0.790000
v 0.336500 0.000000 0.790000
v 0.336500 0.000000 1.524320
v 0.339500 0.000000 1.524320
v 0.339500 0.000000 0.790000
v 0.358500 0.000000 0.790000
v 0.358500 0.000000 1.524360
v 0.361500 0.000000 1.524360
v 0.361500 0.000000 0.790000
v 0.380500 0.000000 0.790000
v 0.380500 0.000000 1.524410
v 0.383500 0.000000 1.524410
v 0.383500 0.000000 0.790000
v 0.402500 0.000000 0.790000
v 0.402500 0.000000 1.524460
v 0.405500 0.000000 1.524460
v 0.405500 0.000000 0.790000
v 0.424500 0.000000 0.790000
v 0.424500 0.000000 1.524510
v 0.427500 0.000000 1.524510
v 0.427500 0.000000 0.790000
v 0.446500 0.000000 0.790000
v 0.446500 0.000000 1.524560
v 0.449500 0.000000 1.524560
v 0.449500 0.000000 0.790000
v 0.468500 0.000000 0.790000
v 0.468500 0.000000 1.524620
v 0.471500 0.000000 1.524620
v 0.471500 0.000000 0.790000
v 0.490500 0.000000 0.790000
v 0.490500 0.000000 1.524680
v 0.493500 0.000000 1.524680
v 0.493500 0.000000 0.790000
v 0.512500 0.000000 0.790000
v 0.512500 0.000000 1.524740
v 0.515500 0.000000 1.524740
v 0.515500 0.000000 0.790000
v 0.534500 0.000000 0.790000
v 0.534500 0.000000 1.524800
v 0.537500 0.000000 1.524800
v 0.537500 0.000000 0.790000
v 0.556500 0.000000 0.790000
v 0.556500 0.000000 1.524870
v 0.559500 0.000000 1.524870
v 0.559500 0.000000 0.790000
v 0.578500 0.000000 0.790000
v 0.578500 0.000000 1.524940
v 0.581500 0.000000 1.524940
v 0.581500 0.000000 0.790000
v 0.600500 0.000000 0.790000
v 0.600500 0.000000 1.525010
v 0.603500 0.000000 1.525010
v 0.603500 0.000000 0.790000
v 0.622500 0.000000 0.790000
v 0.622500 0.000000 1.525090
v 0.625500 0.000000 1.525090
v 0.625500 0.000000 0.790000
v 0.644500 0.000000 0.790000
v 0.644500 0.000000 1.525170
v 0.647500 0.000000 1.525170
v 0.647500 0.000000 0.790000
v 0.666500 0.000000 0.790000
v 0.666500 0.000000 1.525250
v 0.669500 0.000000 1.525250
v 0.669500 0.000000 0.790000
v 0.688500 0.000000 0.790000
v 0.688500 0.000000 1.525330
v 0.691500 0.000000 1.525330
v 0.691500 0.000000 0.790000
v 0.710500 0.000000 0.790000
v 0.710500 0.000000 1.525420
v 0.713500 0.000000 1.525420
v 0.713500 0.000000 0.790000
v 0.732500 0.000000 0.790000
v 0.732500 0.000000 1.525510
v 0.735500 0.000000 1.525510
v 0.735500 0.000000 0.790000
v 0.754500 0.000000 0.790000
v 0.754500 0.000000 1.525600
v 0.757500 0.000000 1.525600
v 0.757500 0.000000 0.790000
v 0.776500 0.000000 0.790000
v 0.776500 0.000000 1.525690
v 0.779500 0.000000 1.525690
v 0.779500 0.000000 0.790000
v 0.798500 0.000000 0.790000
v 0.798500 0.000000 1.525790
v 0.801500 0.000000 1.525790
v 0.801500 0.000000 0.790000
v 0.820500 0.000000 0.790000
v 0.820500 0.000000 1.525890
v 0.823500 0.000000 1.525890
v 0.823500 0.000000 0.790000
v 0.842500 0.000000 0.790000
v 0.842500 0.000000 1.525990
v 0.845500 0.000000 1.525990
v 0.845500 0.000000 0.790000
v 0.864500 0.000000 0.790000
v 0.864500 0.000000 1.526100
v 0.867500 0.000000 1.526100
v 0.867500 0.000000 0.790000
v 0.886500 0.000000 0.790000
v 0.886500 0.000000 1.526200
v 0.889500 0.000000 1.526200
v 0.889500 0.000000 0.790000
v 0.908500 0.000000 0.790000
v 0.908500 0.000000 1.526310
v 0.911500 0.000000 1.526310
v 0.911500 0.000000 0.790000
v 0.930500 0.000000 0.790000
v 0.930500 0.000000 1.526430
v 0.933500 0.000000 1.526430
v 0.933500 0.000000 0.790000
v 0.952500 0.000000 0.790000
v 0.952500 0.000000 1.526540
v 0.955500 0.000000 1.526540
v 0.955500 0.000000 0.790000
v 0.974500 0.000000 0.790000
v 0.974500 0.000000 1.526660
v 0.977500 0.000000 1.526660
v 0.977500 0.000000 0.790000
v 0.996500 0.000000 0.790000
v 0.996500 0.000000 1.526780
v 0.999500 0.000000 1.526780
v 0.999500 0.000000 0.790000
v 1.018500 0.000000 0.790000
v 1.018500 0.000000 1.526910
v 1.021500 0.000000 1.526910
v 1.021500 0.000000 0.790000
v 1.040500 0.000000 0.790000
v 1.040500 0.000000 1.527030
v 1.043500 0.000000 1.527030
v 1.043500 0.000000 0.790000
v 1.062500 0.000000 0.790000
v 1.062500 0.000000 1.527160
v 1.065500 0.000000 1.527160
v 1.065500 0.000000 0.790000
v 1.084500 0.000000 0.790000
v 1.084500 0.000000 1.527300
v 1.087500 0.000000 1.527300
v 1.087500 0.000000 0.790000
v 1.106500 0.000000 0.790000
v 1.106500 0.000000 1.527430
v 1.109500 0.000000 1.527430
v 1.109500 0.000000 0.790000
v 1.128500 0.000000 0.790000
v 1.128500 0.000000 1.527570
v 1.131500 0.000000 1.527570
v 1.131500 0.000000 0.790000
v 1.150500 0.000000 0.790000
v 1.150500 0.000000 1.527710
v 1.153500 0.000000 1.527710
v 1.153500 0.000000 0.790000
v 1.172500 0.000000 0.790000
v 1.172500 0.000000 1.527850
v 1.175500 0.000000 1.527850
v 1.175500 0.000000 0.790000
v 1.194500 0.000000 0.790000
v 1.194500 0.000000 1.528000
v 1.197500 0.000000 1.528000
v 1.197500 0.000000 0.790000
v 1.216500 0.000000 0.790000
v 1.216500 0.000000 1.528150
v 1.219500 0.000000 1.528150
v 1.219500 0.000000 0.790000
v 1.238500 0.000000 0.790000
v 1.238500 0.000000 1.528300
v 1.241500 0.000000 1.528300
v 1.241500 0.000000 0.790000
v 1.260500 0.000000 0.790000
v 1.260500 0.000000 1.528450
v 1.263500 0.000000 1.528450
v 1.263500 0.000000 0.790000
v 1.282500 0.000000 0.790000
v 1.282500 0.000000 1.528610
v 1.285500 0.000000 1.528610
v 1.285500 0.000000 0.790000
v 1.304500 0.000000 0.790000
v 1.304500 0.000000 1.528770
v 1.307500 0.000000 1.528770
v 1.307500 0.000000 0.790000
v 1.326500 0.000000 0.790000
v 1.326500 0.000000 1.528930
v 1.329500 0.000000 1.528930
v 1.329500 0.000000 0.790000
v 1.348500 0.000000 0.790000
v 1.348500 0.000000 1.529090
v 1.351500 0.000000 1.529090
v 1.351500 0.000000 0.790000
v 1.370500 0.000000 0.790000
v 1.370500 0.000000 1.529260
v 1.373500 0.000000 1.529260
v 1.373500 0.000000 0.790000
v 1.392500 0.000000 0.790000
v 1.392500 0.000000 1.529430
v 1.395500 0.000000 1.529430
v 1.395500 0.000000 0.790000
v 1.414500 0.000000 0.790000
v 1.414500 0.000000 1.529600
v 1.417500 0.000000 1.529600
v 1.417500 0.000000 0.790000
v 1.436500 0.000000 0.790000
v 1.436500 0.000000 1.529780
v 1.439500 0.000000 1.529780
v 1.439500 0.000000 0.790000
v 1.458500 0.000000 0.790000
v 1.458500 0.000000 1.529960
v 1.461500 0.000000 1.529960
v 1.461500 0.000000 0.790000
v 1.480500 0.000000 0.790000
v 1.480500 0.000000 1.530140
v 1.483500 0.000000 1.530140
v 1.483500 0.000000 0.790000
v 1.502500 0.000000 0.790000
v 1.502500 0.000000 1.530320
v 1.505500 0.000000 1.530320
v 1.505500 0.000000 0.790000
v 1.524500 0.000000 0.790000
v 1.524500 0.000000 1.530510
v 1.527500 0.000000 1.530510
v 1.527500 0.000000 0.790000
v 1.546500 0.000000 0.790000
v 1.546500 0.000000 1.530700
v 1.549500 0.000000 1.530700
v 1.549500 0.000000 0.790000
v 1.568500 0.000000 0.790000
v 1.568500 0.000000 1.530890
v 1.571500 0.000000 1.530890
v 1.571500 0.000000 0.790000
v 1.590500 0.000000 0.790000
v 1.590500 0.000000 1.531080
v 1.593500 0.000000 1.531080
v 1.593500 0.000000 0.790000
v 1.612500 0.000000 0.790000
v 1.612500 0.000000 1.531280
v 1.615500 0.000000 1.531280
v 1.615500 0.000000 0.790000
v 1.634500 0.000000 0.790000
v 1.634500 0.000000 1.531480
v 1.637500 0.000000 1.531480
v 1.637500 0.000000 0.790000
v 1.656500 0.000000 0.790000
v 1.656500 0.000000 1.531680
v 1.659500 0.000000 1.531680
v 1.659500 0.000000 0.790000
v 1.678500 0.000000 0.790000
v 1.678500 0.000000 1.531890
v 1.681500 0.000000 1.531890
v 1.681500 0.000000 0.790000
v 1.700500 0.000000 0.790000
v 1.700500 0.000000 1.532100
v 1.703500 0.000000 1.532100
v 1.703500 0.000000 0.790000
v 1.722500 0.000000 0.790000
v 1.722500 0.000000 1.532310
v 1.725500 0.000000 1.532310
v 1.725500 0.000000 0.790000
v 1.744500 0.000000 0.790000
v 1.744500 0.000000 1.532520
v 1.747500 0.000000 1.532520
v 1.747500 0.000000 0.790000
v 1.766500 0.000000 0.790000
v 1.766500 0.000000 1.532740
v 1.769500 0.000000 1.532740
v 1.769500 0.000000 0.790000
v 1.788500 0.000000 0.790000
v 1.788500 0.000000 1.532960
v 1.791500 0.000000 1.532960
v 1.791500 0.000000 0.790000
v 1.810500 0.000000 0.790000
v 1.810500 0.000000 1.533180
v 1.813500 0.000000 1.533180
v 1.813500 0.000000 0.790000
v 1.832500 0.000000 0.790000
v 1.832500 0.000000 1.533400
v 1.835500 0.000000 1.533400
v 1.835500 0.000000 0.790000
v 1.854500 0.000000 0.790000
v 1.854500 0.000000 1.533630
v 1.857500 0.000000 1.533630
v 1.857500 0.000000 0.790000
v 1.876500 0.000000 0.790000
v 1.876500 0.000000 1.533860
v 1.879500 0.000000 1.533860
v 1.879500 0.000000 0.790000
v 1.898500 0.000000 0.790000
v 1.898500 0.000000 1.534090
v 1.901500 0.000000 1.534090
v 1.901500 0.000000 0.790000
v 1.920500 0.000000 0.790000
v 1.920500 0.000000 1.534320
v 1.923500 0.000000 1.534320
v 1.923500 0.000000 0.790000
v 1.942500 0.000000 0.790000
v 1.942500 0.000000 1.534560
v 1.945500 0.000000 1.534560
v 1.945500 0.000000 0.790000
v 1.964500 0.000000 0.790000
v 1.964500 0.000000 1.534800
v 1.967500 0.000000 1.534800
v 1.967500 0.000000 0.790000
v 1.986500 0.000000 0.790000
v 1.986500 0.000000 1.535050
v 1.989500 0.000000 1.535050
v 1.989500 0.000000 0.790000
v 2.008500 0.000000 0.790000
v 2.008500 0.000000 1.535290
v 2.011500 0.000000 1.535290
v 2.011500 0.000000 0.790000
v 2.030500 0.000000 0.790000
v 2.030500 0.000000 1.535540
v 2.033500 0.000000 1.535540
v 2.033500 0.000000 0.790000
v 2.052500 0.000000 0.790000
v 2.052500 0.000000 1.535790
v 2.055500 0.000000 1.535790
v 2.055500 0.000000 0.790000
v 2.074500 0.000000 0.790000
v 2.074500 0.000000 1.536050
v 2.077500 0.000000 1.536050
v 2.077500 0.000000 0.790000
v 2.096500 0.000000 0.790000
v 2.096500 0.000000 1.536300
v 2.099500 0.000000 1.536300
v 2.099500 0.000000 0.790000
v 2.118500 0.000000 0.790000
v 2.118500 0.000000 1.536560
v 2.121500 0.000000 1.536560
v 2.121500 0.000000 0.790000
v 2.140500 0.000000 0.790000
v 2.140500 0.000000 1.536820
v 2.143500 0.000000 1.536820
v 2.143500 0.000000 0.790000
v 2.162500 0.000000 0.790000
v 2.162500 0.000000 1.537090
v 2.165500 0.000000 1.537090
v 2.165500 0.000000 0.790000
v 2.184500 0.000000 0.790000
v 2.184500 0.000000 1.537360
v 2.187500 0.000000 1.537360
v 2.187500 0.000000 0.790000
v 2.206500 0.000000 0.790000
v 2.206500 0.000000 1.537630
v 2.209500 0.000000 1.537630
v 2.209500 0.000000 0.790000
v 2.228500 0.000000 0.790000
v 2.228500 0.000000 1.537900
v 2.231500 0.000000 1.537900
v 2.231500 0.000000 0.790000
v 2.250500 0.000000 0.790000
v 2.250500 0.000000 1.538170
v 2.253500 0.000000 1.538170
v 2.253500 0.000000 0.790000
v 2.272500 0.000000 0.790000
v 2.272500 0.000000 1.538450
v 2.275500 0.000000 1.538450
v 2.275500 0.000000 0.790000
v 2.294500 0.000000 0.790000
v 2.294500 0.000000 1.538730
v 2.297500 0.000000 1.538730
v 2.297500 0.000000 0.790000
v 2.316500 0.000000 0.790000
v 2.316500 0.000000 1.539020
v 2.319500 0.000000 1.539020
v 2.319500 0.000000 0.790000
v 2.338500 0.000000 0.790000
v 2.338500 0.000000 1.539300
v 2.341500 0.000000 1.539300
v 2.341500 0.000000 0.790000
v 2.360500 0.000000 0.790000
v 2.360500 0.000000 1.539590
v 2.363500 0.000000 1.539590
v 2.363500 0.000000 0.790000
v 2.382500 0.000000 0.790000
v 2.382500 0.000000 1.539880
v 2.385500 0.000000 1.539880
v 2.385500 0.000000 0.790000
v 2.404500 0.000000 0.790000
v 2.404500 0.000000 1.540180
v 2.407500 0.000000 1.540180
v 2.407500 0.000000 0.790000
v 2.426500 0.000000 0.790000
v 2.426500 0.000000 1.540480
v 2.429500 0.000000 1.540480
v 2.429500 0.000000 0.790000
v 2.448500 0.000000 0.790000
v 2.448500 0.000000 1.540780
v 2.451500 0.000000 1.540780
v 2.451500 0.000000 0.790000
v 2.470500 0.000000 0.790000
v 2.470500 0.000000 1.541080
v 2.473500 0.000000 1.541080
v 2.473500 0.000000 0.790000
v 2.492500 0.000000 0.790000
v 2.492500 0.000000 1.541380
v 2.495500 0.000000 1.541380
v 2.495500 0.000000 0.790000
v 2.514500 0.000000 0.790000
v 2.514500 0.000000 1.541690
v 2.517500 0.000000 1.541690
v 2.517500 0.000000 0.790000
v 2.536500 0.000000 0.790000
v 2.536500 0.000000 1.542000
v 2.539500 0.000000 1.542000
v 2.539500 0.000000 0.790000
v 2.558500 0.000000 0.790000
v 2.558500 0.000000 1.542320
v 2.561500 0.000000 1.542320
v 2.561500 0.000000 0.790000
v 2.580500 0.000000 0.790000
v 2.580500 0.000000 1.542630
v 2.583500 0.000000 1.542630
v 2.583500 0.000000 0.790000
v 2.602500 0.000000 0.790000
v 2.602500 0.000000 1.542950
v 2.605500 0.000000 1.542950
v 2.605500 0.000000 0.790000
v 2.624500 0.000000 0.790000
v 2.624500 0.000000 1.543270
v 2.627500 0.000000 1.543270
v 2.627500 0.000000 0.790000
v 2.646500 0.000000 0.790000
v 2.646500 0.000000 1.543600
v 2.649500 0.000000 1.543600
v 2.649500 0.000000 0.790000
v 2.668500 0.000000 0.790000
v 2.668500 0.000000 1.543920
v 2.671500 0.000000 1.543920
v 2.671500 0.000000 0.790000
v 2.690500 0.000000 0.790000
v 2.690500 0.000000 1.544250
v 2.693500 0.000000 1.544250
v 2.693500 0.000000 0.790000
v 2.712500 0.000000 0.790000
v 2.712500 0.000000 1.544590
v 2.715500 0.000000 1.544590
v 2.715500 0.000000 0.790000
v 2.734500 0.000000 0.790000
v 2.734500 0.000000 1.544920
v 2.737500 0.000000 1.544920
v 2.737500 0.000000 0.790000
v 2.756500 0.000000 0.790000
v 2.756500 0.000000 1.545260
v 2.759500 0.000000 1.545260
v 2.759500 0.000000 0.790000
v 2.778500 0.000000 0.790000
v 2.778500 0.000000 1.545600
v 2.781500 0.000000 1.545600
v 2.781500 0.000000 0.790000
v 2.800500 0.000000 0.790000
v 2.800500 0.000000 1.545940
v 2.803500 0.000000 1.545940
v 2.803500 0.000000 0.790000
v 2.822500 0.000000 0.790000
v 2.822500 0.000000 1.546290
v 2.825500 0.000000 1.546290
v 2.825500 0.000000 0.790000
v 2.844500 0.000000 0.790000
v 2.844500 0.000000 1.546640
v 2.847500 0.000000 1.546640
v 2.847500 0.000000 0.790000
v 2.866500 0.000000 0.790000
v 2.866500 0.000000 1.546990
v 2.869500 0.000000 1.546990
v 2.869500 0.000000 0.790000
v 2.888500 0.000000 0.790000
v 2.888500 0.000000 1.547340
v 2.891500 0.000000 1.547340
v 2.891500 0.000000 0.790000
v 2.910500 0.000000 0.790000
v 2.910500 0.000000 1.547700
v 2.913500 0.000000 1.547700
v 2.913500 0.000000 0.790000
v 2.932500 0.000000 0.790000
v 2.932500 0.000000 1.548060
v 2.935500 0.000000 1.548060
v 2.935500 0.000000 0.790000
v 2.954500 0.000000 0.790000
v 2.954500 0.000000 1.548420
v 2.957500 0.000000 1.548420
v 2.957500 0.000000 0.790000
v 2.976500 0.000000 0.790000
v 2.976500 0.000000 1.548790
v 2.979500 0.000000 1.548790
v 2.979500 0.000000 0.790000
v 2.998500 0.000000 0.790000
v 2.998500 0.000000 1.549150
v 3.001500 0.000000 1.549150
v 3.001500 0.000000 0.790000
v 3.020500 0.000000 0.790000
v 3.020500 0.000000 1.549520
v 3.023500 0.000000 1.549520
v 3.023500 0.000000 0.790000
v 3.042500 0.000000 0.790000
v 3.042500 0.000000 1.549900
v 3.045500 0.000000 1.549900
vn -0.0000 1.0000 -0.0000
vn -0.0003 1.0000 -0.0000
vt 0.000000 0.000000
s 1
f 79/14/44 80/14/44 81/14/44
f 79/14/44 81/14/44 82/14/44
f 83/14/44 84/14/44 85/14/44
f 83/14/44 85/14/44 86/14/44
f 87/14/44 88/14/44 89/14/44
f 87/14/44 89/14/44 90/14/44
f 91/14/44 92/14/44 93/14/44
f 91/14/44 93/14/44 94/14/44
f 95/14/44 96/14/44 97/14/44
f 95/14/44 97/14/44 98/14/44
f 99/14/44 100/14/44 101/14/44
f 99/14/44 101/14/44 102/14/44
f 103/14/44 104/14/44 105/14/44
f 103/14/44 105/14/44 106/14/44
f 107/14/44 108/14/44 109/14/44
f 107/14/44 109/14/44 110/14/44
f 111/14/44 112/14/44 113/14/44
f 111/14/44 113/14/44 114/14/44
f 115/14/44 116/14/44 117/14/44
f 115/14/44 117/14/44 118/14/44
f 119/14/44 120/14/44 121/14/44
f 119/14/44 121/14/44 122/14/44
f 123/14/44 124/14/44 125/14/44
f 123/14/44 125/14/44 126/14/44
f 127/14/44 128/14/44 129/14/44
f 127/14/44 129/14/44 130/14/44
f 131/14/44 132/14/44 133/14/44
f 131/14/44 133/14/44 134/14/44
f 135/14/44 136/14/44 137/14/44
f 135/14/44 137/14/44 138/14/44
f 139/14/44 140/14/44 141/14/44
f 139/14/44 141/14/44 142/14/44
f 143/14/44 144/14/44 145/14/44
f 143/14/44 145/14/44 146/14/44
f 147/14/44 148/14/44 149/14/44
f 147/14/44 149/14/44 150/14/44
f 151/14/44 152/14/44 153/14/44
f 151/14/44 153/14/44 154/14/44
f 155/14/44 156/14/44 157/14/44
f 155/14/44 157/14/44 158/14/44
f 159/14/44 160/14/44 161/14/44
f 159/14/44 161/14/44 162/14/44
f 163/14/44 164/14/44 165/14/44
f 163/14/44 165/14/44 166/14/44
f 167/14/44 168/14/44 169/14/44
f 167/14/44 169/14/44 170/14/44
f 171/14/44 172/14/44 173/14/44
f 171/14/44 173/14/44 174/14/44
f 175/14/44 176/14/44 177/14/44
f 175/14/44 177/14/44 178/14/44
f 179/14/44 180/14/44 181/14/44
f 179/14/44 181/14/44 182/14/44
f 183/14/44 184/14/44 185/14/44
f 183/14/44 185/14/44 186/14/44
f 187/14/44 188/14/44 189/14/44
f 187/14/44 189/14/44 190/14/44
f 191/14/44 192/14/44 193/14/44
f 191/14/44 193/14/44 194/14/44
f 195/14/44 196/14/44 197/14/44
f 195/14/44 197/14/44 198/14/44
f 199/14/44 200/14/44 201/14/44
f 199/14/44 201/14/44 202/14/44
f 203/14/44 204/14/44 205/14/44
f 203/14/44 205/14/44 206/14/44
f 207/14/44 208/14/44 209/14/44
f 207/14/44 209/14/44 210/14/44
f 211/14/44 212/14/44 213/14/44
f 211/14/44 213/14/44 214/14/44
f 215/14/44 216/14/44 217/14/44
f 215/14/44 217/14/44 218/14/44
f 219/14/44 220/14/44 221/14/44
f 219/14/44 221/14/44 222/14/44
f 223/14/44 224/14/44 225/14/44
f 223/14/44 225/14/44 226/14/44
f 227/14/44 228/14/44 229/14/44
f 227/14/44 229/14/44 230/14/44
f 231/14/44 232/14/44 233/14/44
f 231/14/44 233/14/44 234/14/44
f 235/14/44 236/14/44 237/14/44
f 235/14/44 237/14/44 238/14/44
f 239/14/44 240/14/44 241/14/44
f 239/14/44 241/14/44 242/14/44
f 243/14/44 244/14/45 245/14/44
f 243/14/44 245/14/44 246/14/44
f 247/14/44 248/14/44 249/14/44
f 247/14/44 249/14/44 250/14/44
f 251/14/44 252/14/44 253/14/44
f 251/14/44 253/14/44 254/14/44
f 255/14/44 256/14/45 257/14/44
f 255/14/44 257/14/44 258/14/44
f 259/14/44 260/14/44 261/14/44
f 259/14/44 261/14/44 262/14/44
f 263/14/44 264/14/44 265/14/44
f 263/14/44 265/14/44 266/14/44
f 267/14/44 268/14/44 269/14/44
f 267/14/44 269/14/44 270/14/44
f 271/14/44 272/14/44 273/14/44
f 271/14/44 273/14/44 274/14/44
f 275/14/44 276/14/45 277/14/44
f 275/14/44 277/14/44 278/14/44
f 279/14/44 280/14/44 281/14/44
f 279/14/44 281/14/44 282/14/44
f 283/14/44 284/14/44 285/14/44
f 283/14/44 285/14/44 286/14/44
f 287/14/44 288/14/44 289/14/44
f 287/14/44 289/14/44 290/14/44
f 291/14/44 292/14/44 293/14/44
f 291/14/44 293/14/44 294/14/44
f 295/14/44 296/14/45 297/14/44
f 295/14/44 297/14/44 298/14/44
f 299/14/44 300/14/45 301/14/44
f 299/14/44 301/14/44 302/14/44
f 303/14/44 304/14/45 305/14/44
f 303/14/44 305/14/44 306/14/44
f 307/14/44 308/14/44 309/14/44
f 307/14/44 309/14/44 310/14/44
f 311/14/44 312/14/45 313/14/44
f 311/14/44 313/14/44 314/14/44
f 315/14/44 316/14/44 317/14/44
f 315/14/44 317/14/44 318/14/44
f 319/14/44 320/14/45 321/14/44
f 319/14/44 321/14/44 322/14/44
f 323/14/44 324/14/45 325/14/44
f 323/14/44 325/14/44 326/14/44
f 327/14/44 328/14/45 329/14/44
f 327/14/44 329/14/44 330/14/44
f 331/14/44 332/14/44 333/14/44
f 331/14/44 333/14/44 334/14/44
f 335/14/44 336/14/44 337/14/44
f 335/14/44 337/14/44 338/14/44
f 339/14/44 340/14/44 341/14/44
f 339/14/44 341/14/44 342/14/44
f 343/14/44 344/14/45 345/14/44
f 343/14/44 345/14/44 346/14/44
f 347/14/44 348/14/44 349/14/44
f 347/14/44 349/14/44 350/14/44
f 351/14/44 352/14/45 353/14/44
f 351/14/44 353/14/44 354/14/44
f 355/14/44 356/14/45 357/14/44
f 355/14/44 357/14/44 358/14/44
f 359/14/44 360/14/44 361/14/44
f 359/14/44 361/14/44 362/14/44
f 363/14/44 364/14/44 365/14/44
f 363/14/44 365/14/44 366/14/44
f 367/14/44 368/14/44 369/14/44
f 367/14/44 369/14/44 370/14/44
f 371/14/44 372/14/44 373/14/44
f 371/14/44 373/14/44 374/14/44
f 375/14/44 376/14/44 377/14/44
f 375/14/44 377/14/44 378/14/44
f 379/14/44 380/14/45 381/14/44
f 379/14/44 381/14/44 382/14/44
f 383/14/44 384/14/44 385/14/44
f 383/14/44 385/14/44 386/14/44
f 387/14/44 388/14/45 389/14/44
f 387/14/44 389/14/44 390/14/44
f 391/14/44 392/14/44 393/14/44
f 391/14/44 393/14/44 394/14/44
f 395/14/44 396/14/44 397/14/44
f 395/14/44 397/14/44 398/14/44
f 399/14/44 400/14/44 401/14/44
f 399/14/44 401/14/44 402/14/44
f 403/14/44 404/14/44 405/14/44
f 403/14/44 405/14/44 406/14/44
f 407/14/44 408/14/45 409/14/44
f 407/14/44 409/14/44 410/14/44
f 411/14/44 412/14/44 413/14/44
f 411/14/44 413/14/44 414/14/44
f 415/14/44 416/14/45 417/14/44
f 415/14/44 417/14/44 418/14/44
f 419/14/44 420/14/44 421/14/44
f 419/14/44 421/14/44 422/14/44
f 423/14/44 424/14/44 425/14/44
f 423/14/44 425/14/44 426/14/44
f 427/14/44 428/14/44 429/14/44
f 427/14/44 429/14/44 430/14/44
f 431/14/44 432/14/44 433/14/44
f 431/14/44 433/14/44 434/14/44
f 435/14/44 436/14/45 437/14/44
f 435/14/44 437/14/44 438/14/44
f 439/14/44 440/14/44 441/14/44
f 439/14/44 441/14/44 442/14/44
f 443/14/44 444/14/44 445/14/44
f 443/14/44 445/14/44 446/14/44
f 447/14/44 448/14/44 449/14/44
f 447/14/44 449/14/44 450/14/44
f 451/14/44 452/14/44 453/14/44
f 451/14/44 453/14/44 454/14/44
f 455/14/44 456/14/44 457/14/44
f 455/14/44 457/14/44 458/14/44
f 459/14/44 460/14/44 461/14/44
f 459/14/44 461/14/44 462/14/44
f 463/14/44 464/14/44 465/14/44
f 463/14/44 465/14/44 466/14/44
f 467/14/44 468/14/44 469/14/44
f 467/14/44 469/14/44 470/14/44
f 471/14/44 472/14/45 473/14/44
f 471/14/44 473/14/44 474/14/44
f 475/14/44 476/14/45 477/14/44
f 475/14/44 477/14/44 478/14/44
f 479/14/44 480/14/44 481/14/44
f 479/14/44 481/14/44 482/14/44
f 483/14/44 484/14/45 485/14/44
f 483/14/44 485/14/44 486/14/44
f 487/14/44 488/14/44 489/14/44
f 487/14/44 489/14/44 490/14/44
f 491/14/44 492/14/44 493/14/44
f 491/14/44 493/14/44 494/14/44
f 495/14/44 496/14/45 497/14/44
f 495/14/44 497/14/44 498/14/44
f 499/14/44 500/14/44 501/14/44
f 499/14/44 501/14/44 502/14/44
f 503/14/44 504/14/44 505/14/44
f 503/14/44 505/14/44 506/14/44
f 507/14/44 508/14/44 509/14/44
f 507/14/44 509/14/44 510/14/44
f 511/14/44 512/14/45 513/14/44
f 511/14/44 513/14/44 514/14/44
f 515/14/44 516/14/44 517/14/44
f 515/14/44 517/14/44 518/14/44
f 519/14/44 520/14/44 521/14/44
f 519/14/44 521/14/44 522/14/44
f 523/14/44 524/14/44 525/14/44
f 523/14/44 525/14/44 526/14/44
f 527/14/44 528/14/44 529/14/44
f 527/14/44 529/14/44 530/14/44
f 531/14/44 532/14/45 533/14/44
f 531/14/44 533/14/44 534/14/44
f 535/14/44 536/14/44 537/14/44
f 535/14/44 537/14/44 538/14/44
f 539/14/44 540/14/44 541/14/44
f 539/14/44 541/14/44 542/14/44
f 543/14/44 544/14/44 545/14/44
f 543/14/44 545/14/44 546/14/44
f 547/14/44 548/14/44 549/14/44
f 547/14/44 549/14/44 550/14/44
f 551/14/44 552/14/44 553/14/44
f 551/14/44 553/14/44 554/14/44
f 555/14/44 556/14/44 557/14/44
f 555/14/44 557/14/44 558/14/44
f 559/14/44 560/14/45 561/14/44
f 559/14/44 561/14/44 562/14/44
f 563/14/44 564/14/44 565/14/44
f 563/14/44 565/14/44 566/14/44
f 567/14/44 568/14/44 569/14/44
f 567/14/44 569/14/44 570/14/44
f 571/14/44 572/14/45 573/14/44
f 571/14/44 573/14/44 574/14/44
f 575/14/44 576/14/44 577/14/44
f 575/14/44 577/14/44 578/14/44
f 579/14/44 580/14/44 581/14/44
f 579/14/44 581/14/44 582/14/44
f 583/14/44 584/14/44 585/14/44
f 583/14/44 585/14/44 586/14/44
f 587/14/44 588/14/44 589/14/44
f 587/14/44 589/14/44 590/14/44
f 591/14/44 592/14/44 593/14/44
f 591/14/44 593/14/44 594/14/44
f 595/14/44 596/14/44 597/14/44
f 595/14/44 597/14/44 598/14/44
f 599/14/44 600/14/44 601/14/44
f 599/14/44 601/14/44 602/14/44
f 603/14/44 604/14/44 605/14/44
f 603/14/44 605/14/44 606/14/44
f 607/14/44 608/14/44 609/14/44
f 607/14/44 609/14/44 610/14/44
f 611/14/44 612/14/44 613/14/44
f 611/14/44 613/14/44 614/14/44
f 615/14/44 616/14/44 617/14/44
f 615/14/44 617/14/44 618/14/44
f 619/14/44 620/14/44 621/14/44
f 619/14/44 621/14/44 622/14/44
f 623/14/44 624/14/44 625/14/44
f 623/14/44 625/14/44 626/14/44
f 627/14/44 628/14/44 629/14/44
f 627/14/44 629/14/44 630/14/44
f 631/14/44 632/14/44 633/14/44
f 631/14/44 633/14/44 634/14/44
f 635/14/44 636/14/44 637/14/44
f 635/14/44 637/14/44 638/14/44
f 639/14/44 640/14/44 641/14/44
f 639/14/44 641/14/44 642/14/44
f 643/14/44 644/14/45 645/14/44
f 643/14/44 645/14/44 646/14/44
f 647/14/44 648/14/44 649/14/44
f 647/14/44 649/14/44 650/14/44
f 651/14/44 652/14/44 653/14/44
f 651/14/44 653/14/44 654/14/44
f 655/14/44 656/14/44 657/14/44
f 655/14/44 657/14/44 658/14/44
f 659/14/44 660/14/45 661/14/44
f 659/14/44 661/14/44 662/14/44
f 663/14/44 664/14/44 665/14/44
f 663/14/44 665/14/44 666/14/44
f 667/14/44 668/14/44 669/14/44
f 667/14/44 669/14/44 670/14/44
f 671/14/44 672/14/44 673/14/44
f 671/14/44 673/14/44 674/14/44
f 675/14/44 676/14/45 677/14/44
f 675/14/44 677/14/44 678/14/44
f 679/14/44 680/14/44 681/14/44
f 679/14/44 681/14/44 682/14/44
f 683/14/44 684/14/45 685/14/44
f 683/14/44 685/14/44 686/14/44
f 687/14/44 688/14/44 689/14/44
f 687/14/44 689/14/44 690/14/44
f 691/14/44 692/14/44 693/14/44
f 691/14/44 693/14/44 694/14/44
f 695/14/44 696/14/44 697/14/44
f 695/14/44 697/14/44 698/14/44
f 699/14/44 700/14/44 701/14/44
f 699/14/44 701/14/44 702/14/44
f 703/14/44 704/14/44 705/14/44
f 703/14/44 705/14/44 706/14/44
f 707/14/44 708/14/44 709/14/44
f 707/14/44 709/14/44 710/14/44
f 711/14/44 712/14/45 713/14/44
f 711/14/44 713/14/44 714/14/44
f 715/14/44 716/14/44 717/14/44
f 715/14/44 717/14/44 718/14/44
f 719/14/44 720/14/45 721/14/44
f 719/14/44 721/14/44 722/14/44
f 723/14/44 724/14/45 725/14/44
f 723/14/44 725/14/44 726/14/44
f 727/14/44 728/14/44 729/14/44
f 727/14/44 729/14/44 730/14/44
f 731/14/44 732/14/44 733/14/44
f 731/14/44 733/14/44 734/14/44
f 735/14/44 736/14/44 737/14/44
f 735/14/44 737/14/44 738/14/44
f 739/14/44 740/14/44 741/14/44
f 739/14/44 741/14/44 742/14/44
f 743/14/44 744/14/44 745/14/44
f 743/14/44 745/14/44 746/14/44
f 747/14/44 748/14/44 749/14/44
f 747/14/44 749/14/44 750/14/44
f 751/14/44 752/14/44 753/14/44
f 751/14/44 753/14/44 754/14/44
f 755/14/44 756/14/44 757/14/44
f 755/14/44 757/14/44 758/14/44
f 759/14/44 760/14/44 761/14/44
f 759/14/44 761/14/44 762/14/44
f 763/14/44 764/14/44 765/14/44
f 763/14/44 765/14/44 766/14/44
f 767/14/44 768/14/44 769/14/44
f 767/14/44 769/14/44 770/14/44
f 771/14/44 772/14/45 773/14/44
f 771/14/44 773/14/44 774/14/44
f 775/14/44 776/14/44 777/14/44
f 775/14/44 777/14/44 778/14/44
f 779/14/44 780/14/44 781/14/44
f 779/14/44 781/14/44 782/14/44
f 783/14/44 784/14/44 785/14/44
f 783/14/44 785/14/44 786/14/44
f 787/14/44 788/14/44 789/14/44
f 787/14/44 789/14/44 790/14/44
f 791/14/44 792/14/44 793/14/44
f 791/14/44 793/14/44 794/14/44
f 795/14/44 796/14/44 797/14/44
f 795/14/44 797/14/44 798/14/44
f 799/14/44 800/14/44 801/14/44
f 799/14/44 801/14/44 802/14/44
f 803/14/44 804/14/44 805/14/44
f 803/14/44 805/14/44 806/14/44
f 807/14/44 808/14/44 809/14/44
f 807/14/44 809/14/44 810/14/44
f 811/14/44 812/14/44 813/14/44
f 811/14/44 813/14/44 814/14/44
f 815/14/44 816/14/44 817/14/44
f 815/14/44 817/14/44 818/14/44
f 819/14/44 820/14/44 821/14/44
f 819/14/44 821/14/44 822/14/44
f 823/14/44 824/14/45 825/14/44
f 823/14/44 825/14/44 826/14/44
f 827/14/44 828/14/44 829/14/44
f 827/14/44 829/14/44 830/14/44
f 831/14/44 832/14/44 833/14/44
f 831/14/44 833/14/44 834/14/44
f 835/14/44 836/14/45 837/14/44
f 835/14/44 837/14/44 838/14/44
f 839/14/44 840/14/44 841/14/44
f 839/14/44 841/14/44 842/14/44
f 843/14/44 844/14/45 845/14/44
f 843/14/44 845/14/44 846/14/44
f 847/14/44 848/14/45 849/14/44
f 847/14/44 849/14/44 850/14/44
f 851/14/44 852/14/44 853/14/44
f 851/14/44 853/14/44 854/14/44
f 855/14/44 856/14/44 857/14/44
f 855/14/44 857/14/44 858/14/44
f 859/14/44 860/14/44 861/14/44
f 859/14/44 861/14/44 862/14/44
f 863/14/44 864/14/44 865/14/44
f 863/14/44 865/14/44 866/14/44
f 867/14/44 868/14/45 869/14/44
f 867/14/44 869/14/44 870/14/44
f 871/14/44 872/14/44 873/14/44
f 871/14/44 873/14/44 874/14/44
f 875/14/44 876/14/44 877/14/44
f 875/14/44 877/14/44 878/14/44
f 879/14/44 880/14/44 881/14/44
f 879/14/44 881/14/44 882/14/44
f 883/14/44 884/14/45 885/14/44
f 883/14/44 885/14/44 886/14/44
f 887/14/44 888/14/44 889/14/44
f 887/14/44 889/14/44 890/14/44
f 891/14/44 892/14/44 893/14/44
f 891/14/44 893/14/44 894/14/44
f 895/14/44 896/14/44 897/14/44
f 895/14/44 897/14/44 898/14/44
f 899/14/44 900/14/44 901/14/44
f 899/14/44 901/14/44 902/14/44
f 903/14/44 904/14/44 905/14/44
f 903/14/44 905/14/44 906/14/44
f 907/14/44 908/14/44 909/14/44
f 907/14/44 909/14/44 910/14/44
f 911/14/44 912/14/44 913/14/44
f 911/14/44 913/14/44 914/14/44
f 915/14/44 916/14/44 917/14/44
f 915/14/44 917/14/44 918/14/44
f 919/14/44 920/14/44 921/14/44
f 919/14/44 921/14/44 922/14/44
f 923/14/44 924/14/44 925/14/44
f 923/14/44 925/14/44 926/14/44
f 927/14/44 928/14/44 929/14/44
f 927/14/44 929/14/44 930/14/44
f 931/14/44 932/14/44 933/14/44
f 931/14/44 933/14/44 934/14/44
f 935/14/44 936/14/44 937/14/44
f 935/14/44 937/14/44 938/14/44
f 939/14/44 940/14/44 941/14/44
f 939/14/44 941/14/44 942/14/44
f 943/14/44 944/14/44 945/14/44
f 943/14/44 945/14/44 946/14/44
f 947/14/44 948/14/44 949/14/44
f 947/14/44 949/14/44 950/14/44
f 951/14/44 952/14/44 953/14/44
f 951/14/44 953/14/44 954/14/44
f 955/14/44 956/14/44 957/14/44
f 955/14/44 957/14/44 958/14/44
f 959/14/44 960/14/44 961/14/44
f 959/14/44 961/14/44 962/14/44
f 963/14/44 964/14/44 965/14/44
f 963/14/44 965/14/44 966/14/44
f 967/14/44 968/14/44 969/14/44
f 967/14/44 969/14/44 970/14/44
f 971/14/44 972/14/44 973/14/44
f 971/14/44 973/14/44 974/14/44
f 975/14/44 976/14/44 977/14/44
f 975/14/44 977/14/44 978/14/44
f 979/14/44 980/14/44 981/14/44
f 979/14/44 981/14/44 982/14/44
f 983/14/44 984/14/44 985/14/44
f 983/14/44 985/14/44 986/14/44
f 987/14/44 988/14/44 989/14/44
f 987/14/44 989/14/44 990/14/44
f 991/14/44 992/14/44 993/14/44
f 991/14/44 993/14/44 994/14/44
f 995/14/44 996/14/44 997/14/44
f 995/14/44 997/14/44 998/14/44
f 999/14/44 1000/14/44 1001/14/44
f 999/14/44 1001/14/44 1002/14/44
f 1003/14/44 1004/14/45 1005/14/44
f 1003/14/44 1005/14/44 1006/14/44
f 1007/14/44 1008/14/44 1009/14/44
f 1007/14/44 1009/14/44 1010/14/44
f 1011/14/44 1012/14/44 1013/14/44
f 1011/14/44 1013/14/44 1014/14/44
f 1015/14/44 1016/14/44 1017/14/44
f 1015/14/44 1017/14/44 1018/14/44
f 1019/14/44 1020/14/44 1021/14/44
f 1019/14/44 1021/14/44 1022/14/44
f 1023/14/44 1024/14/44 1025/14/44
f 1023/14/44 1025/14/44 1026/14/44
f 1027/14/44 1028/14/44 1029/14/44
f 1027/14/44 1029/14/44 1030/14/44
f 1031/14/44 1032/14/44 1033/14/44
f 1031/14/44 1033/14/44 1034/14/44
f 1035/14/44 1036/14/44 1037/14/44
f 1035/14/44 1037/14/44 1038/14/44
f 1039/14/44 1040/14/44 1041/14/44
f 1039/14/44 1041/14/44 1042/14/44
f 1043/14/44 1044/14/44 1045/14/44
f 1043/14/44 1045/14/44 1046/14/44
f 1047/14/44 1048/14/44 1049/14/44
f 1047/14/44 1049/14/44 1050/14/44
f 1051/14/44 1052/14/44 1053/14/44
f 1051/14/44 1053/14/44 1054/14/44
f 1055/14/44 1056/14/44 1057/14/44
f 1055/14/44 1057/14/44 1058/14/44
f 1059/14/44 1060/14/44 1061/14/44
f 1059/14/44 1061/14/44 1062/14/44
f 1063/14/44 1064/14/45 1065/14/44
f 1063/14/44 1065/14/44 1066/14/44
f 1067/14/44 1068/14/44 1069/14/44
f 1067/14/44 1069/14/44 1070/14/44
f 1071/14/44 1072/14/44 1073/14/44
f 1071/14/44 1073/14/44 1074/14/44
f 1075/14/44 1076/14/45 1077/14/44
f 1075/14/44 1077/14/44 1078/14/44
f 1079/14/44 1080/14/45 1081/14/44
f 1079/14/44 1081/14/44 1082/14/44
f 1083/14/44 1084/14/44 1085/14/44
f 1083/14/44 1085/14/44 1086/14/44
f 1087/14/44 1088/14/44 1089/14/44
f 1087/14/44 1089/14/44 1090/14/44
f 1091/14/44 1092/14/44 1093/14/44
f 1091/14/44 1093/14/44 1094/14/44
f 1095/14/44 1096/14/44 1097/14/44
f 1095/14/44 1097/14/44 1098/14/44
f 1099/14/44 1100/14/44 1101/14/44
f 1099/14/44 1101/14/44 1102/14/44
f 1103/14/44 1104/14/45 1105/14/44
f 1103/14/44 1105/14/44 1106/14/44
f 1107/14/44 1108/14/44 1109/14/44
f 1107/14/44 1109/14/44 1110/14/44
f 1111/14/44 1112/14/44 1113/14/44
f 1111/14/44 1113/14/44 1114/14/44
f 1115/14/44 1116/14/45 1117/14/44
f 1115/14/44 1117/14/44 1118/14/44
f 1119/14/44 1120/14/44 1121/14/44
f 1119/14/44 1121/14/44 1122/14/44
f 1123/14/44 1124/14/44 1125/14/44
f 1123/14/44 1125/14/44 1126/14/44
f 1127/14/44 1128/14/44 1129/14/44
f 1127/14/44 1129/14/44 1130/14/44
f 1131/14/44 1132/14/44 1133/14/44
f 1131/14/44 1133/14/44 1134/14/44
f 1135/14/44 1136/14/44 1137/14/44
f 1135/14/44 1137/14/44 1138/14/44
f 1139/14/44 1140/14/44 1141/14/44
f 1139/14/44 1141/14/44 1142/14/44
f 1143/14/44 1144/14/45 1145/14/44
f 1143/14/44 1145/14/44 1146/14/44
f 1147/14/44 1148/14/44 1149/14/44
f 1147/14/44 1149/14/44 1150/14/44
f 1151/14/44 1152/14/44 1153/14/44
f 1151/14/44 1153/14/44 1154/14/44
f 1155/14/44 1156/14/44 1157/14/44
f 1155/14/44 1157/14/44 1158/14/44
f 1159/14/44 1160/14/44 1161/14/44
f 1159/14/44 1161/14/44 1162/14/44
f 1163/14/44 1164/14/45 1165/14/44
f 1163/14/44 1165/14/44 1166/14/44
f 1167/14/44 1168/14/44 1169/14/44
f 1167/14/44 1169/14/44 1170/14/44
f 1171/14/44 1172/14/44 1173/14/44
f 1171/14/44 1173/14/44 1174/14/44
f 1175/14/44 1176/14/45 1177/14/44
f 1175/14/44 1177/14/44 1178/14/44
f 1179/14/44 1180/14/44 1181/14/44
f 1179/14/44 1181/14/44 1182/14/44
f 1183/14/44 1184/14/44 1185/14/44
f 1183/14/44 1185/14/44 1186/14/44
f 1187/14/44 1188/14/44 1189/14/44
f 1187/14/44 1189/14/44 1190/14/44
f 1191/14/44 1192/14/44 1193/14/44
f 1191/14/44 1193/14/44 1194/14/44
f 1195/14/44 1196/14/45 1197/14/44
f 1195/14/44 1197/14/44 1198/14/44
f 1199/14/44 1200/14/45 1201/14/44
f 1199/14/44 1201/14/44 1202/14/44
f 1203/14/44 1204/14/45 1205/14/44
f 1203/14/44 1205/14/44 1206/14/44
f 1207/14/44 1208/14/45 1209/14/44
f 1207/14/44 1209/14/44 1210/14/44
f 1211/14/44 1212/14/44 1213/14/44
f 1211/14/44 1213/14/44 1214/14/44
f 1215/14/44 1216/14/45 1217/14/44
f 1215/14/44 1217/14/44 1218/14/44
f 1219/14/44 1220/14/45 1221/14/44
f 1219/14/44 1221/14/44 1222/14/44
f 1223/14/44 1224/14/44 1225/14/44
f 1223/14/44 1225/14/44 1226/14/44
f 1227/14/44 1228/14/44 1229/14/44
f 1227/14/44 1229/14/44 1230/14/44
f 1231/14/44 1232/14/44 1233/14/44
f 1231/14/44 1233/14/44 1234/14/44
f 1235/14/44 1236/14/44 1237/14/44
f 1235/14/44 1237/14/44 1238/14/44
f 1239/14/44 1240/14/44 1241/14/44
f 1239/14/44 1241/14/44 1242/14/44
f 1243/14/44 1244/14/44 1245/14/44
f 1243/14/44 1245/14/44 1246/14/44
f 1247/14/44 1248/14/44 1249/14/44
f 1247/14/44 1249/14/44 1250/14/44
f 1251/14/44 1252/14/44 1253/14/44
f 1251/14/44 1253/14/44 1254/14/44
f 1255/14/44 1256/14/44 1257/14/44
f 1255/14/44 1257/14/44 1258/14/44
f 1259/14/44 1260/14/44 1261/14/44
f 1259/14/44 1261/14/44 1262/14/44
f 1263/14/44 1264/14/45 1265/14/44
f 1263/14/44 1265/14/44 1266/14/44
f 1267/14/44 1268/14/45 1269/14/44
f 1267/14/44 1269/14/44 1270/14/44
f 1271/14/44 1272/14/44 1273/14/44
f 1271/14/44 1273/14/44 1274/14/44
f 1275/14/44 1276/14/44 1277/14/44
f 1275/14/44 1277/14/44 1278/14/44
f 1279/14/44 1280/14/44 1281/14/44
f 1279/14/44 1281/14/44 1282/14/44
f 1283/14/44 1284/14/44 1285/14/44
f 1283/14/44 1285/14/44 1286/14/44
f 1287/14/44 1288/14/44 1289/14/44
f 1287/14/44 1289/14/44 1290/14/44
f 1291/14/44 1292/14/45 1293/14/44
f 1291/14/44 1293/14/44 1294/14/44
f 1295/14/44 1296/14/44 1297/14/44
f 1295/14/44 1297/14/44 1298/14/44
f 1299/14/44 1300/14/44 1301/14/44
f 1299/14/44 1301/14/44 1302/14/44
f 1303/14/44 1304/14/45 1305/14/44
f 1303/14/44 1305/14/44 1306/14/44
f 1307/14/44 1308/14/44 1309/14/44
f 1307/14/44 1309/14/44 1310/14/44
f 1311/14/44 1312/14/44 1313/14/44
f 1311/14/44 1313/14/44 1314/14/44
f 1315/14/44 1316/14/45 1317/14/44
f 1315/14/44 1317/14/44 1318/14/44
f 1319/14/44 1320/14/45 1321/14/44
f 1319/14/44 1321/14/44 1322/14/44
f 1323/14/44 1324/14/44 1325/14/44
f 1323/14/44 1325/14/44 1326/14/44
o net_band
v -3.050000 0.000000 1.550000
v -2.973750 0.000000 1.473720
v -2.897500 0.000000 1.472460
v -2.897500 0.000000 1.547460
v -2.973750 0.000000 1.548720
v -2.897500 0.000000 1.472460
v -2.821250 0.000000 1.471250
v -2.821250 0.000000 1.546250
v -2.897500 0.000000 1.547460
v -2.821250 0.000000 1.471250
v -2.745000 0.000000 1.470060
v -2.745000 0.000000 1.545060
v -2.821250 0.000000 1.546250
v -2.745000 0.000000 1.470060
v -2.668750 0.000000 1.468910
v -2.668750 0.000000 1.543910
v -2.745000 0.000000 1.545060
v -2.668750 0.000000 1.468910
v -2.592500 0.000000 1.467780
v -2.592500 0.000000 1.542780
v -2.668750 0.000000 1.543910
v -2.592500 0.000000 1.467780
v -2.516250 0.000000 1.466700
v -2.516250 0.000000 1.541700
v -2.592500 0.000000 1.542780
v -2.516250 0.000000 1.466700
v -2.440000 0.000000 1.465640
v -2.440000 0.000000 1.540640
v -2.516250 0.000000 1.541700
v -2.440000 0.000000 1.465640
v -2.363750 0.000000 1.464620
v -2.363750 0.000000 1.539620
v -2.440000 0.000000 1.540640
v -2.363750 0.000000 1.464620
v -2.287500 0.000000 1.463620
v -2.287500 0.000000 1.538630
v -2.363750 0.000000 1.539620
v -2.287500 0.000000 1.463620
v -2.211250 0.000000 1.462670
v -2.211250 0.000000 1.537670
v -2.287500 0.000000 1.538630
v -2.211250 0.000000 1.462670
v -2.135000 0.000000 1.461740
v -2.135000 0.000000 1.536740
v -2.211250 0.000000 1.537670
v -2.135000 0.000000 1.461740
v -2.058750 0.000000 1.460850
v -2.058750 0.000000 1.535850
v -2.135000 0.000000 1.536740
v -2.058750 0.000000 1.460850
v -1.982500 0.000000 1.459990
v -1.982500 0.000000 1.534990
v -2.058750 0.000000 1.535850
v -1.982500 0.000000 1.459990
v -1.906250 0.000000 1.459160
v -1.906250 0.000000 1.534160
v -1.982500 0.000000 1.534990
v -1.906250 0.000000 1.459160
v -1.830000 0.000000 1.458360
v -1.830000 0.000000 1.533360
v -1.906250 0.000000 1.534160
v -1.830000 0.000000 1.458360
v -1.753750 0.000000 1.457600
v -1.753750 0.000000 1.532600
v -1.830000 0.000000 1.533360
v -1.753750 0.000000 1.457600
v -1.677500 0.000000 1.456860
v -1.677500 0.000000 1.531870
v -1.753750 0.000000 1.532600
v -1.677500 0.000000 1.456860
v -1.601250 0.000000 1.456170
v -1.601250 0.000000 1.531170
v -1.677500 0.000000 1.531870
v -1.601250 0.000000 1.456170
v -1.525000 0.000000 1.455500
v -1.525000 0.000000 1.530500
v -1.601250 0.000000 1.531170
v -1.525000 0.000000 1.455500
v -1.448750 0.000000 1.454870
v -1.448750 0.000000 1.529870
v -1.525000 0.000000 1.530500
v -1.448750 0.000000 1.454870
v -1.372500 0.000000 1.454260
v -1.372500 0.000000 1.529270
v -1.448750 0.000000 1.529870
v -1.372500 0.000000 1.454260
v -1.296250 0.000000 1.453700
v -1.296250 0.000000 1.528700
v -1.372500 0.000000 1.529270
v -1.296250 0.000000 1.453700
v -1.220000 0.000000 1.453160
v -1.220000 0.000000 1.528160
v -1.296250 0.000000 1.528700
v -1.220000 0.000000 1.453160
v -1.143750 0.000000 1.452660
v -1.143750 0.000000 1.527660
v -1.220000 0.000000 1.528160
v -1.143750 0.000000 1.452660
v -1.067500 0.000000 1.452190
v -1.067500 0.000000 1.527190
v -1.143750 0.000000 1.527660
v -1.067500 0.000000 1.452190
v -0.991250 0.000000 1.451750
v -0.991250 0.000000 1.526750
v -1.067500 0.000000 1.527190
v -0.991250 0.000000 1.451750
v -0.915000 0.000000 1.451340
v -0.915000 0.000000 1.526340
v -0.991250 0.000000 1.526750
v -0.915000 0.000000 1.451340
v -0.838750 0.000000 1.450970
v -0.838750 0.000000 1.525970
v -0.915000 0.000000 1.526340
v -0.838750 0.000000 1.450970
v -0.762500 0.000000 1.450620
v -0.762500 0.000000 1.525620
v -0.838750 0.000000 1.525970
v -0.762500 0.000000 1.450620
v -0.686250 0.000000 1.450320
v -0.686250 0.000000 1.525320
v -0.762500 0.000000 1.525620
v -0.686250 0.000000 1.450320
v -0.610000 0.000000 1.450040
v -0.610000 0.000000 1.525040
v -0.686250 0.000000 1.525320
v -0.610000 0.000000 1.450040
v -0.533750 0.000000 1.449800
v -0.533750 0.000000 1.524800
v -0.610000 0.000000 1.525040
v -0.533750 0.000000 1.449800
v -0.457500 0.000000 1.449580
v -0.457500 0.000000 1.524590
v -0.533750 0.000000 1.524800
v -0.457500 0.000000 1.449580
v -0.381250 0.000000 1.449410
v -0.381250 0.000000 1.524410
v -0.457500 0.000000 1.524590
v -0.381250 0.000000 1.449410
v -0.305000 0.000000 1.449260
v -0.305000 0.000000 1.524260
v -0.381250 0.000000 1.524410
v -0.305000 0.000000 1.449260
v -0.228750 0.000000 1.449150
v -0.228750 0.000000 1.524150
v -0.305000 0.000000 1.524260
v -0.228750 0.000000 1.449150
v -0.152500 0.000000 1.449060
v -0.152500 0.000000 1.524070
v -0.228750 0.000000 1.524150
v -0.152500 0.000000 1.449060
v -0.076250 0.000000 1.449020
v -0.076250 0.000000 1.524020
v -0.152500 0.000000 1.524070
v -0.076250 0.000000 1.449020
v 0.000000 0.000000 1.449000
v 0.000000 0.000000 1.524000
v -0.076250 0.000000 1.524020
v 0.000000 0.000000 1.449000
v 0.076250 0.000000 1.449020
v 0.076250 0.000000 1.524020
v 0.000000 0.000000 1.524000
v 0.076250 0.000000 1.449020
v 0.152500 0.000000 1.449060
v 0.152500 0.000000 1.524070
v 0.076250 0.000000 1.524020
v 0.152500 0.000000 1.449060
v 0.228750 0.000000 1.449150
v 0.228750 0.000000 1.524150
v 0.152500 0.000000 1.524070
v 0.228750 0.000000 1.449150
v 0.305000 0.000000 1.449260
v 0.305000 0.000000 1.524260
v 0.228750 0.000000 1.524150
v 0.305000 0.000000 1.449260
v 0.381250 0.000000 1.449410
v 0.381250 0.000000 1.524410
v 0.305000 0.000000 1.524260
v 0.381250 0.000000 1.449410
v 0.457500 0.000000 1.449580
v 0.457500 0.000000 1.524590
v 0.381250 0.000000 1.524410
v 0.457500 0.000000 1.449580
v 0.533750 0.000000 1.449800
v 0.533750 0.000000 1.524800
v 0.457500 0.000000 1.524590
v 0.533750 0.000000 1.449800
v 0.610000 0.000000 1.450040
v 0.610000 0.000000 1.525040
v 0.533750 0.000000 1.524800
v 0.610000 0.000000 1.450040
v 0.686250 0.000000 1.450320
v 0.686250 0.000000 1.525320
v 0.610000 0.000000 1.525040
v 0.686250 0.000000 1.450320
v 0.762500 0.000000 1.450620
v 0.762500 0.000000 1.525620
v 0.686250 0.000000 1.525320
v 0.762500 0.000000 1.450620
v 0.838750 0.000000 1.450970
v 0.838750 0.000000 1.525970
v 0.762500 0.000000 1.525620
v 0.838750 0.000000 1.450970
v 0.915000 0.000000 1.451340
v 0.915000 0.000000 1.526340
v 0.838750 0.000000 1.525970
v 0.915000 0.000000 1.451340
v 0.991250 0.000000 1.451750
v 0.991250 0.000000 1.526750
v 0.915000 0.000000 1.526340
v 0.991250 0.000000 1.451750
v 1.067500 0.000000 1.452190
v 1.067500 0.000000 1.527190
v 0.991250 0.000000 1.526750
v 1.067500 0.000000 1.452190
v 1.143750 0.000000 1.452660
v 1.143750 0.000000 1.527660
v 1.067500 0.000000 1.527190
v 1.143750 0.000000 1.452660
v 1.220000 0.000000 1.453160
v 1.220000 0.000000 1.528160
v 1.143750 0.000000 1.527660
v 1.220000 0.000000 1.453160
v 1.296250 0.000000 1.453700
v 1.296250 0.000000 1.528700
v 1.220000 0.000000 1.528160
v 1.296250 0.000000 1.453700
v 1.372500 0.000000 1.454260
v 1.372500 0.000000 1.529270
v 1.296250 0.000000 1.528700
v 1.372500 0.000000 1.454260
v 1.448750 0.000000 1.454870
v 1.448750 0.000000 1.529870
v 1.372500 0.000000 1.529270
v 1.448750 0.000000 1.454870
v 1.525000 0.000000 1.455500
v 1.525000 0.000000 1.530500
v 1.448750 0.000000 1.529870
v 1.525000 0.000000 1.455500
v 1.601250 0.000000 1.456170
v 1.601250 0.000000 1.531170
v 1.525000 0.000000 1.530500
v 1.601250 0.000000 1.456170
v 1.677500 0.000000 1.456860
v 1.677500 0.000000 1.531870
v 1.601250 0.000000 1.531170
v 1.677500 0.000000 1.456860
v 1.753750 0.000000 1.457600
v 1.753750 0.000000 1.532600
v 1.677500 0.000000 1.531870
v 1.753750 0.000000 1.457600
v 1.830000 0.000000 1.458360
v 1.830000 0.000000 1.533360
v 1.753750 0.000000 1.532600
v 1.830000 0.000000 1.458360
v 1.906250 0.000000 1.459160
v 1.906250 0.000000 1.534160
v 1.830000 0.000000 1.533360
v 1.906250 0.000000 1.459160
v 1.982500 0.000000 1.459990
v 1.982500 0.000000 1.534990
v 1.906250 0.000000 1.534160
v 1.982500 0.000000 1.459990
v 2.058750 0.000000 1.460850
v 2.058750 0.000000 1.535850
v 1.982500 0.000000 1.534990
v 2.058750 0.000000 1.460850
v 2.135000 0.000000 1.461740
v 2.135000 0.000000 1.536740
v 2.058750 0.000000 1.535850
v 2.135000 0.000000 1.461740
v 2.211250 0.000000 1.462670
v 2.211250 0.000000 1.537670
v 2.135000 0.000000 1.536740
v 2.211250 0.000000 1.462670
v 2.287500 0.000000 1.463620
v 2.287500 0.000000 1.538630
v 2.211250 0.000000 1.537670
v 2.287500 0.000000 1.463620
v 2.363750 0.000000 1.464620
v 2.363750 0.000000 1.539620
v 2.287500 0.000000 1.538630
v 2.363750 0.000000 1.464620
v 2.440000 0.000000 1.465640
v 2.440000 0.000000 1.540640
v 2.363750 0.000000 1.539620
v 2.440000 0.000000 1.465640
v 2.516250 0.000000 1.466700
v 2.516250 0.000000 1.541700
v 2.440000 0.000000 1.540640
v 2.516250 0.000000 1.466700
v 2.592500 0.000000 1.467780
v 2.592500 0.000000 1.542780
v 2.516250 0.000000 1.541700
v 2.592500 0.000000 1.467780
v 2.668750 0.000000 1.468910
v 2.668750 0.000000 1.543910
v 2.592500 0.000000 1.542780
v 2.668750 0.000000 1.468910
v 2.745000 0.000000 1.470060
v 2.745000 0.000000 1.545060
v 2.668750 0.000000 1.543910
v 2.745000 0.000000 1.470060
v 2.821250 0.000000 1.471250
v 2.821250 0.000000 1.546250
v 2.745000 0.000000 1.545060
v 2.821250 0.000000 1.471250
v 2.897500 0.000000 1.472460
v 2.897500 0.000000 1.547460
v 2.821250 0.000000 1.546250
v 2.897500 0.000000 1.472460
v 2.973750 0.000000 1.473720
v 2.973750 0.000000 1.548720
v 2.897500 0.000000 1.547460
v 2.973750 0.000000 1.473720
v 3.050000 0.000000 1.475000
v 3.050000 0.000000 1.550000
vn -0.0000 1.0000 -0.0000
vn -0.0000 1.0000 0.0003
vn -0.0000 1.0000 -0.0003
vt 0.000000 0.000000
s 1
f 1327/15/46 1328/15/46 1329/15/46
f 1327/15/46 1329/15/46 1330/15/46
f 1331/15/46 1332/15/46 1333/15/46
f 1331/15/46 1333/15/46 1334/15/46
f 1335/15/46 1336/15/47 1337/15/46
f 1335/15/46 1337/15/46 1338/15/46
f 1339/15/46 1340/15/46 1341/15/46
f 1339/15/46 1341/15/46 1342/15/48
f 1343/15/46 1344/15/46 1345/15/46
f 1343/15/46 1345/15/46 1346/15/48
f 1347/15/46 1348/15/46 1349/15/46
f 1347/15/46 1349/15/46 1350/15/46
f 1351/15/46 1352/15/46 1353/15/46
f 1351/15/46 1353/15/46 1354/15/46
f 1355/15/46 1356/15/46 1357/15/46
f 1355/15/46 1357/15/46 1358/15/46
f 1359/15/46 1360/15/46 1361/15/46
f 1359/15/46 1361/15/46 1362/15/46
f 1363/15/46 1364/15/46 1365/15/46
f 1363/15/46 1365/15/46 1366/15/46
f 1367/15/46 1368/15/47 1369/15/46
f 1367/15/46 1369/15/46 1370/15/46
f 1371/15/46 1372/15/46 1373/15/46
f 1371/15/46 1373/15/46 1374/15/46
f 1375/15/46 1376/15/46 1377/15/46
f 1375/15/46 1377/15/46 1378/15/48
f 1379/15/46 1380/15/47 1381/15/46
f 1379/15/46 1381/15/46 1382/15/46
f 1383/15/46 1384/15/46 1385/15/46
f 1383/15/46 1385/15/46 1386/15/46
f 1387/15/46 1388/15/46 1389/15/46
f 1387/15/46 1389/15/46 1390/15/46
f 1391/15/46 1392/15/46 1393/15/46
f 1391/15/46 1393/15/46 1394/15/46
f 1395/15/46 1396/15/46 1397/15/46
f 1395/15/46 1397/15/46 1398/15/46
f 1399/15/46 1400/15/46 1401/15/46
f 1399/15/46 1401/15/46 1402/15/46
f 1403/15/46 1404/15/46 1405/15/46
f 1403/15/46 1405/15/46 1406/15/46
f 1407/15/46 1408/15/46 1409/15/46
f 1407/15/46 1409/15/46 1410/15/46
f 1411/15/46 1412/15/46 1413/15/46
f 1411/15/46 1413/15/46 1414/15/46
f 1415/15/46 1416/15/47 1417/15/46
f 1415/15/46 1417/15/46 1418/15/48
f 1419/15/46 1420/15/46 1421/15/46
f 1419/15/46 1421/15/46 1422/15/46
f 1423/15/46 1424/15/46 1425/15/46
f 1423/15/46 1425/15/46 1426/15/48
f 1427/15/46 1428/15/46 1429/15/46
f 1427/15/46 1429/15/46 1430/15/48
f 1431/15/46 1432/15/46 1433/15/46
f 1431/15/46 1433/15/46 1434/15/46
f 1435/15/46 1436/15/46 1437/15/46
f 1435/15/46 1437/15/46 1438/15/48
f 1439/15/46 1440/15/46 1441/15/46
f 1439/15/46 1441/15/46 1442/15/48
f 1443/15/46 1444/15/46 1445/15/46
f 1443/15/46 1445/15/46 1446/15/46
f 1447/15/46 1448/15/46 1449/15/46
f 1447/15/46 1449/15/46 1450/15/46
f 1451/15/46 1452/15/46 1453/15/46
f 1451/15/46 1453/15/46 1454/15/46
f 1455/15/46 1456/15/46 1457/15/46
f 1455/15/46 1457/15/46 1458/15/48
f 1459/15/46 1460/15/46 1461/15/46
f 1459/15/46 1461/15/46 1462/15/46
f 1463/15/46 1464/15/46 1465/15/46
f 1463/15/46 1465/15/46 1466/15/46
f 1467/15/46 1468/15/46 1469/15/46
f 1467/15/46 1469/15/46 1470/15/46
f 1471/15/46 1472/15/46 1473/15/46
f 1471/15/46 1473/15/46 1474/15/46
f 1475/15/46 1476/15/46 1477/15/46
f 1475/15/46 1477/15/46 1478/15/46
f 1479/15/46 1480/15/46 1481/15/46
f 1479/15/46 1481/15/46 1482/15/46
f 1483/15/46 1484/15/46 1485/15/46
f 1483/15/46 1485/15/46 1486/15/46
f 1487/15/46 1488/15/47 1489/15/46
f 1487/15/46 1489/15/46 1490/15/46
f 1491/15/46 1492/15/46 1493/15/46
f 1491/15/46 1493/15/46 1494/15/48
f 1495/15/46 1496/15/46 1497/15/46
f 1495/15/46 1497/15/46 1498/15/46
f 1499/15/46 1500/15/46 1501/15/46
f 1499/15/46 1501/15/46 1502/15/46
f 1503/15/46 1504/15/46 1505/15/46
f 1503/15/46 1505/15/46 1506/15/46
f 1507/15/46 1508/15/46 1509/15/46
f 1507/15/46 1509/15/46 1510/15/46
f 1511/15/46 1512/15/46 1513/15/46
f 1511/15/46 1513/15/46 1514/15/46
f 1515/15/46 1516/15/46 1517/15/46
f 1515/15/46 1517/15/46 1518/15/46
f 1519/15/46 1520/15/46 1521/15/46
f 1519/15/46 1521/15/46 1522/15/46
f 1523/15/46 1524/15/46 1525/15/46
f 1523/15/46 1525/15/46 1526/15/48
f 1527/15/46 1528/15/46 1529/15/46
f 1527/15/46 1529/15/46 1530/15/46
f 1531/15/46 1532/15/46 1533/15/46
f 1531/15/46 1533/15/46 1534/15/48
f 1535/15/46 1536/15/46 1537/15/46
f 1535/15/46 1537/15/46 1538/15/48
f 1539/15/46 1540/15/46 1541/15/46
f 1539/15/46 1541/15/46 1542/15/48
f 1543/15/46 1544/15/46 1545/15/46
f 1543/15/46 1545/15/46 1546/15/46
f 1547/15/46 1548/15/46 1549/15/46
f 1547/15/46 1549/15/46 1550/15/46
f 1551/15/46 1552/15/46 1553/15/46
f 1551/15/46 1553/15/46 1554/15/46
f 1555/15/46 1556/15/46 1557/15/46
f 1555/15/46 1557/15/46 1558/15/46
f 1559/15/46 1560/15/46 1561/15/46
f 1559/15/46 1561/15/46 1562/15/46
f 1563/15/46 1564/15/46 1565/15/46
f 1563/15/46 1565/15/46 1566/15/46
f 1567/15/46 1568/15/46 1569/15/46
f 1567/15/46 1569/15/46 1570/15/46
f 1571/15/46 1572/15/46 1573/15/46
f 1571/15/46 1573/15/46 1574/15/46
f 1575/15/46 1576/15/47 1577/15/46
f 1575/15/46 1577/15/46 1578/15/46
f 1579/15/46 1580/15/46 1581/15/46
f 1579/15/46 1581/15/46 1582/15/46
f 1583/15/46 1584/15/46 1585/15/46
f 1583/15/46 1585/15/46 1586/15/48
f 1587/15/46 1588/15/46 1589/15/46
f 1587/15/46 1589/15/46 1590/15/46
f 1591/15/46 1592/15/46 1593/15/46
f 1591/15/46 1593/15/46 1594/15/46
f 1595/15/46 1596/15/46 1597/15/46
f 1595/15/46 1597/15/46 1598/15/46
f 1599/15/46 1600/15/46 1601/15/46
f 1599/15/46 1601/15/46 1602/15/46
f 1603/15/46 1604/15/46 1605/15/46
f 1603/15/46 1605/15/46 1606/15/46
f 1607/15/46 1608/15/46 1609/15/46
f 1607/15/46 1609/15/46 1610/15/46
f 1611/15/46 1612/15/46 1613/15/46
f 1611/15/46 1613/15/46 1614/15/48
f 1615/15/46 1616/15/46 1617/15/46
f 1615/15/46 1617/15/46 1618/15/48
f 1619/15/46 1620/15/46 1621/15/46
f 1619/15/46 1621/15/46 1622/15/46
f 1623/15/46 1624/15/47 1625/15/46
f 1623/15/46 1625/15/46 1626/15/46
f 1627/15/46 1628/15/47 1629/15/46
f 1627/15/46 1629/15/46 1630/15/48
f 1631/15/46 1632/15/47 1633/15/46
f 1631/15/46 1633/15/46 1634/15/46
f 1635/15/46 1636/15/46 1637/15/46
f 1635/15/46 1637/15/46 1638/15/46
f 1639/15/46 1640/15/46 1641/15/46
f 1639/15/46 1641/15/46 1642/15/46
o court_ground
v -3.130000 -6.780000 0.000001
v 3.130000 -6.780000 0.000001
v 3.130000 6.780000 -0.000001
v -3.130000 6.780000 -0.000001
v -3.130000 -6.780000 0.010001
v 3.130000 -6.780000 0.010001
v 3.130000 6.780000 0.009999
v -3.130000 6.780000 0.009999
vn -0.0000 -0.0000 -1.0000
vn -0.0003 -0.0000 -1.0000
vn 0.0003 -0.0000 -1.0000
vn -0.0000 -0.0001 1.0000
vn -0.0000 -0.0000 1.0000
vt 0.000000 0.000000
s 1
f 1643/16/49 1644/16/50 1645/16/49
f 1643/16/49 1645/16/49 1646/16/51
f 1647/16/52 1646/16/49 1650/16/53
f 1643/16/49 1644/16/49 1648/16/53
f 1643/16/49 1648/16/53 1647/16/53
f 1645/16/49 1646/16/49 1650/16/53
f 1645/16/49 1650/16/53 1649/16/53
o net_post_left
v -3.040000 0.000000 1.550000
v -3.040190 0.001951 -0.000000
v -3.040760 0.003827 -0.000000
v -3.040760 0.003827 1.550000
v -3.040190 0.001951 1.550000
v -3.040760 0.003827 -0.000000
v -3.041690 0.005556 -0.000000
v -3.041690 0.005556 1.550000
v -3.040760 0.003827 1.550000
v -3.041690 0.005556 -0.000000
v -3.042930 0.007071 -0.000000
v -3.042930 0.007071 1.550000
v -3.041690 0.005556 1.550000
v -3.042930 0.007071 -0.000000
v -3.044440 0.008315 -0.000000
v -3.044440 0.008315 1.550000
v -3.042930 0.007071 1.550000
v -3.044440 0.008315 -0.000000
v -3.046170 0.009239 -0.000000
v -3.046170 0.009239 1.550000
v -3.044440 0.008315 1.550000
v -3.046170 0.009239 -0.000000
v -3.048050 0.009808 -0.000000
v -3.048050 0.009808 1.550000
v -3.046170 0.009239 1.550000
v -3.048050 0.009808 -0.000000
v -3.050000 0.010000 -0.000000
v -3.050000 0.010000 1.550000
v -3.048050 0.009808 1.550000
v -3.050000 0.010000 -0.000000
v -3.051950 0.009808 -0.000000
v -3.051950 0.009808 1.550000
v -3.050000 0.010000 1.550000
v -3.051950 0.009808 -0.000000
v -3.053830 0.009239 -0.000000
v -3.053830 0.009239 1.550000
v -3.051950 0.009808 1.550000
v -3.053830 0.009239 -0.000000
v -3.055560 0.008315 -0.000000
v -3.055560 0.008315 1.550000
v -3.053830 0.009239 1.550000
v -3.055560 0.008315 -0.000000
v -3.057070 0.007071 -0.000000
v -3.057070 0.007071 1.550000
v -3.055560 0.008315 1.550000
v -3.057070 0.007071 -0.000000
v -3.058310 0.005556 -0.000000
v -3.058310 0.005556 1.550000
v -3.057070 0.007071 1.550000
v -3.058310 0.005556 -0.000000
v -3.059240 0.003827 -0.000000
v -3.059240 0.003827 1.550000
v -3.058310 0.005556 1.550000
v -3.059240 0.003827 -0.000000
v -3.059810 0.001951 -0.000000
v -3.059810 0.001951 1.550000
v -3.059240 0.003827 1.550000
v -3.059810 0.001951 -0.000000
v -3.060000 -0.000000 0.000000
v -3.060000 0.000000 1.550000
v -3.059810 0.001951 1.550000
v -3.060000 -0.000000 0.000000
v -3.059810 -0.001951 0.000000
v -3.059810 -0.001951 1.550000
v -3.060000 0.000000 1.550000
v -3.059810 -0.001951 0.000000
v -3.059240 -0.003827 0.000000
v -3.059240 -0.003827 1.550000
v -3.059810 -0.001951 1.550000
v -3.059240 -0.003827 0.000000
v -3.058310 -0.005556 0.000000
v -3.058310 -0.005556 1.550000
v -3.059240 -0.003827 1.550000
v -3.058310 -0.005556 0.000000
v -3.057070 -0.007071 0.000000
v -3.057070 -0.007071 1.550000
v -3.058310 -0.005556 1.550000
v -3.057070 -0.007071 0.000000
v -3.055560 -0.008315 0.000000
v -3.055560 -0.008315 1.550000
v -3.057070 -0.007071 1.550000
v -3.055560 -0.008315 0.000000
v -3.053830 -0.009239 0.000000
v -3.053830 -0.009239 1.550000
v -3.055560 -0.008315 1.550000
v -3.053830 -0.009239 0.000000
v -3.051950 -0.009808 0.000000
v -3.051950 -0.009808 1.550000
v -3.053830 -0.009239 1.550000
v -3.051950 -0.009808 0.000000
v -3.050000 -0.010000 0.000000
v -3.050000 -0.010000 1.550000
v -3.051950 -0.009808 1.550000
v -3.050000 -0.010000 0.000000
v -3.048050 -0.009808 0.000000
v -3.048050 -0.009808 1.550000
v -3.050000 -0.010000 1.550000
v -3.048050 -0.009808 0.000000
v -3.046170 -0.009239 0.000000
v -3.046170 -0.009239 1.550000
v -3.048050 -0.009808 1.550000
v -3.046170 -0.009239 0.000000
v -3.044440 -0.008315 0.000000
v -3.044440 -0.008315 1.550000
v -3.046170 -0.009239 1.550000
v -3.044440 -0.008315 0.000000
v -3.042930 -0.007071 0.000000
v -3.042930 -0.007071 1.550000
v -3.044440 -0.008315 1.550000
v -3.042930 -0.007071 0.000000
v -3.041690 -0.005556 0.000000
v -3.041690 -0.005556 1.550000
v -3.042930 -0.007071 1.550000
v -3.041690 -0.005556 0.000000
v -3.040760 -0.003827 0.000000
v -3.040760 -0.003827 1.550000
v -3.041690 -0.005556 1.550000
v -3.040760 -0.003827 0.000000
v -3.040190 -0.001951 0.000000
v -3.040190 -0.001951 1.550000
v -3.040760 -0.003827 1.550000
v -3.040190 -0.001951 0.000000
v -3.040000 0.000000 -0.000000
v -3.040000 0.000000 1.550000
vn 1.0000 -0.0000 -0.0000
vn 0.9808 0.1951 -0.0000
vn 0.9239 0.3827 -0.0000
vn 0.9239 0.3826 -0.0000
vn 0.8315 0.5556 -0.0000
vn 0.8315 0.5555 -0.0000
vn 0.7071 0.7071 -0.0000
vn 0.7071 0.7071 -0.0001
vn 0.5556 0.8315 -0.0000
vn 0.5556 0.8314 -0.0000
vn 0.3827 0.9239 -0.0000
vn 0.5555 0.8315 -0.0000
vn 0.1951 0.9808 -0.0000
vn 0.3826 0.9239 -0.0000
vn -0.0000 1.0000 -0.0000
vn -0.1951 0.9808 -0.0000
vn -0.1950 0.9808 -0.0000
vn -0.0001 1.0000 -0.0000
vn -0.3826 0.9239 -0.0000
vn -0.3827 0.9239 -0.0000
vn -0.5556 0.8315 -0.0000
vn -0.5555 0.8315 -0.0000
vn -0.7071 0.7071 -0.0000
vn -0.5556 0.8314 -0.0000
vn -0.8314 0.5556 -0.0000
vn -0.8315 0.5556 -0.0000
vn -0.8315 0.5555 -0.0000
vn -0.9239 0.3827 -0.0000
vn -0.9239 0.3827 -0.0001
vn -0.9808 0.1951 -0.0000
vn -1.0000 -0.0000 -0.0000
vn -0.9808 -0.1951 -0.0000
vn -0.9808 -0.1950 -0.0000
vn -1.0000 -0.0001 -0.0000
vn -0.9239 -0.3827 -0.0000
vn -0.9239 -0.3826 -0.0000
vn -0.8315 -0.5556 -0.0000
vn -0.8315 -0.5555 -0.0000
vn -0.7071 -0.7071 -0.0000
vn -0.7071 -0.7071 -0.0001
vn -0.5556 -0.8315 -0.0000
vn -0.5556 -0.8314 -0.0000
vn -0.3827 -0.9239 -0.0000
vn -0.5555 -0.8315 -0.0000
vn -0.1951 -0.9808 -0.0000
vn -0.1952 -0.9808 -0.0000
vn -0.0000 -1.0000 -0.0000
vn -0.0001 -1.0000 -0.0000
vn 0.1951 -0.9808 -0.0000
vn 0.1950 -0.9808 -0.0000
vn 0.0001 -1.0000 -0.0000
vn 0.3826 -0.9239 -0.0000
vn 0.3827 -0.9239 -0.0000
vn 0.5555 -0.8315 -0.0000
vn 0.5556 -0.8315 -0.0000
vn 0.7071 -0.7071 -0.0000
vn 0.5556 -0.8314 -0.0000
vn 0.8315 -0.5556 -0.0000
vn 0.8315 -0.5555 -0.0000
vn 0.9239 -0.3827 -0.0000
vn 0.9808 -0.1951 -0.0000
vn 0.9239 -0.3826 -0.0000
vn 1.0000 -0.0000 -0.0001
vt 0.000000 0.000000
s 1
f 1651/17/54 1652/17/55 1653/17/56
f 1651/17/54 1653/17/56 1654/17/57
f 1655/17/55 1656/17/56 1657/17/58
f 1655/17/55 1657/17/58 1658/17/59
f 1659/17/56 1660/17/58 1661/17/60
f 1659/17/56 1661/17/60 1662/17/61
f 1663/17/58 1664/17/60 1665/17/62
f 1663/17/58 1665/17/62 1666/17/63
f 1667/17/60 1668/17/62 1669/17/64
f 1667/17/60 1669/17/64 1670/17/64
f 1671/17/65 1672/17/64 1673/17/66
f 1671/17/65 1673/17/66 1674/17/66
f 1675/17/67 1676/17/66 1677/17/68
f 1675/17/67 1677/17/68 1678/17/68
f 1679/17/66 1680/17/68 1681/17/69
f 1679/17/66 1681/17/69 1682/17/70
f 1683/17/71 1684/17/69 1685/17/72
f 1683/17/71 1685/17/72 1686/17/72
f 1687/17/69 1688/17/73 1689/17/74
f 1687/17/69 1689/17/74 1690/17/75
f 1691/17/73 1692/17/74 1693/17/76
f 1691/17/73 1693/17/76 1694/17/76
f 1695/17/77 1696/17/76 1697/17/78
f 1695/17/77 1697/17/78 1698/17/79
f 1699/17/76 1700/17/80 1701/17/81
f 1699/17/76 1701/17/81 1702/17/82
f 1703/17/80 1704/17/81 1705/17/83
f 1703/17/80 1705/17/83 1706/17/83
f 1707/17/81 1708/17/83 1709/17/84
f 1707/17/81 1709/17/84 1710/17/84
f 1711/17/83 1712/17/84 1713/17/85
f 1711/17/83 1713/17/85 1714/17/86
f 1715/17/87 1716/17/85 1717/17/88
f 1715/17/87 1717/17/88 1718/17/89
f 1719/17/85 1720/17/88 1721/17/90
f 1719/17/85 1721/17/90 1722/17/91
f 1723/17/88 1724/17/90 1725/17/92
f 1723/17/88 1725/17/92 1726/17/93
f 1727/17/90 1728/17/92 1729/17/94
f 1727/17/90 1729/17/94 1730/17/95
f 1731/17/92 1732/17/94 1733/17/96
f 1731/17/92 1733/17/96 1734/17/96
f 1735/17/97 1736/17/96 1737/17/98
f 1735/17/97 1737/17/98 1738/17/99
f 1739/17/96 1740/17/98 1741/17/100
f 1739/17/96 1741/17/100 1742/17/101
f 1743/17/98 1744/17/100 1745/17/102
f 1743/17/98 1745/17/102 1746/17/103
f 1747/17/104 1748/17/102 1749/17/105
f 1747/17/104 1749/17/105 1750/17/105
f 1751/17/102 1752/17/106 1753/17/107
f 1751/17/102 1753/17/107 1754/17/107
f 1755/17/106 1756/17/108 1757/17/109
f 1755/17/106 1757/17/109 1758/17/109
f 1759/17/110 1760/17/109 1761/17/111
f 1759/17/110 1761/17/111 1762/17/111
f 1763/17/109 1764/17/112 1765/17/113
f 1763/17/109 1765/17/113 1766/17/113
f 1767/17/112 1768/17/113 1769/17/114
f 1767/17/112 1769/17/114 1770/17/114
f 1771/17/115 1772/17/114 1773/17/54
f 1771/17/115 1773/17/54 1774/17/116
o net_post_right
v 3.060000 0.000000 1.550000
v 3.059810 0.001951 -0.000000
v 3.059240 0.003827 -0.000000
v 3.059240 0.003827 1.550000
v 3.059810 0.001951 1.550000
v 3.059240 0.003827 -0.000000
v 3.058310 0.005556 -0.000000
v 3.058310 0.005556 1.550000
v 3.059240 0.003827 1.550000
v 3.058310 0.005556 -0.000000
v 3.057070 0.007071 -0.000000
v 3.057070 0.007071 1.550000
v 3.058310 0.005556 1.550000
v 3.057070 0.007071 -0.000000
v 3.055560 0.008315 -0.000000
v 3.055560 0.008315 1.550000
v 3.057070 0.007071 1.550000
v 3.055560 0.008315 -0.000000
v 3.053830 0.009239 -0.000000
v 3.053830 0.009239 1.550000
v 3.055560 0.008315 1.550000
v 3.053830 0.009239 -0.000000
v 3.051950 0.009808 -0.000000
v 3.051950 0.009808 1.550000
v 3.053830 0.009239 1.550000
v 3.051950 0.009808 -0.000000
v 3.050000 0.010000 -0.000000
v 3.050000 0.010000 1.550000
v 3.051950 0.009808 1.550000
v 3.050000 0.010000 -0.000000
v 3.048050 0.009808 -0.000000
v 3.048050 0.009808 1.550000
v 3.050000 0.010000 1.550000
v 3.048050 0.009808 -0.000000
v 3.046170 0.009239 -0.000000
v 3.046170 0.009239 1.550000
v 3.048050 0.009808 1.550000
v 3.046170 0.009239 -0.000000
v 3.044440 0.008315 -0.000000
v 3.044440 0.008315 1.550000
v 3.046170 0.009239 1.550000
v 3.044440 0.008315 -0.000000
v 3.042930 0.007071 -0.000000
v 3.042930 0.007071 1.550000
v 3.044440 0.008315 1.550000
v 3.042930 0.007071 -0.000000
v 3.041690 0.005556 -0.000000
v 3.041690 0.005556 1.550000
v 3.042930 0.007071 1.550000
v 3.041690 0.005556 -0.000000
v 3.040760 0.003827 -0.000000
v 3.040760 0.003827 1.550000
v 3.041690 0.005556 1.550000
v 3.040760 0.003827 -0.000000
v 3.040190 0.001951 -0.000000
v 3.040190 0.001951 1.550000
v 3.040760 0.003827 1.550000
v 3.040190 0.001951 -0.000000
v 3.040000 -0.000000 0.000000
v 3.040000 0.000000 1.550000
v 3.040190 0.001951 1.550000
v 3.040000 -0.000000 0.000000
v 3.040190 -0.001951 0.000000
v 3.040190 -0.001951 1.550000
v 3.040000 0.000000 1.550000
v 3.040190 -0.001951 0.000000
v 3.040760 -0.003827 0.000000
v 3.040760 -0.003827 1.550000
v 3.040190 -0.001951 1.550000
v 3.040760 -0.003827 0.000000
v 3.041690 -0.005556 0.000000
v 3.041690 -0.005556 1.550000
v 3.040760 -0.003827 1.550000
v 3.041690 -0.005556 0.000000
v 3.042930 -0.007071 0.000000
v 3.042930 -0.007071 1.550000
v 3.041690 -0.005556 1.550000
v 3.042930 -0.007071 0.000000
v 3.044440 -0.008315 0.000000
v 3.044440 -0.008315 1.550000
v 3.042930 -0.007071 1.550000
v 3.044440 -0.008315 0.000000
v 3.046170 -0.009239 0.000000
v 3.046170 -0.009239 1.550000
v 3.044440 -0.008315 1.550000
v 3.046170 -0.009239 0.000000
v 3.048050 -0.009808 0.000000
v 3.048050 -0.009808 1.550000
v 3.046170 -0.009239 1.550000
v 3.048050 -0.009808 0.000000
v 3.050000 -0.010000 0.000000
v 3.050000 -0.010000 1.550000
v 3.048050 -0.009808 1.550000
v 3.050000 -0.010000 0.000000
v 3.051950 -0.009808 0.000000
v 3.051950 -0.009808 1.550000
v 3.050000 -0.010000 1.550000
v 3.051950 -0.009808 0.000000
v 3.053830 -0.009239 0.000000
v 3.053830 -0.009239 1.550000
v 3.051950 -0.009808 1.550000
v 3.053830 -0.009239 0.000000
v 3.055560 -0.008315 0.000000
v 3.055560 -0.008315 1.550000
v 3.053830 -0.009239 1.550000
v 3.055560 -0.008315 0.000000
v 3.057070 -0.007071 0.000000
v 3.057070 -0.007071 1.550000
v 3.055560 -0.008315 1.550000
v 3.057070 -0.007071 0.000000
v 3.058310 -0.005556 0.000000
v 3.058310 -0.005556 1.550000
v 3.057070 -0.007071 1.550000
v 3.058310 -0.005556 0.000000
v 3.059240 -0.003827 0.000000
v 3.059240 -0.003827 1.550000
v 3.058310 -0.005556 1.550000
v 3.059240 -0.003827 0.000000
v 3.059810 -0.001951 0.000000
v 3.059810 -0.001951 1.550000
v 3.059240 -0.003827 1.550000
v 3.059810 -0.001951 0.000000
v 3.060000 0.000000 -0.000000
v 3.060000 0.000000 1.550000
vn 1.0000 0.0001 -0.0000
vn 0.9808 0.1951 -0.0000
vn 0.9239 0.3827 -0.0000
vn 0.9239 0.3826 -0.0000
vn 0.8315 0.5556 -0.0000
vn 0.8315 0.5555 -0.0000
vn 0.7071 0.7071 -0.0000
vn 0.7071 0.7071 -0.0001
vn 0.5556 0.8315 -0.0000
vn 0.5556 0.8314 -0.0000
vn 0.3827 0.9239 -0.0000
vn 0.5555 0.8315 -0.0000
vn 0.1951 0.9808 -0.0000
vn 0.1952 0.9808 -0.0000
vn 0.3826 0.9239 -0.0000
vn -0.0000 1.0000 -0.0000
vn 0.0001 1.0000 -0.0000
vn -0.1951 0.9808 -0.0000
vn -0.1950 0.9808 -0.0000
vn -0.0001 1.0000 -0.0000
vn -0.3826 0.9239 -0.0000
vn -0.3827 0.9239 -0.0000
vn -0.5555 0.8315 -0.0000
vn -0.5556 0.8315 -0.0000
vn -0.7071 0.7071 -0.0000
vn -0.5556 0.8314 -0.0000
vn -0.8315 0.5556 -0.0000
vn -0.8315 0.5555 -0.0000
vn -0.9239 0.3827 -0.0000
vn -0.9808 0.1951 -0.0000
vn -0.9239 0.3826 -0.0000
vn -1.0000 -0.0000 -0.0000
vn -0.9808 -0.1951 -0.0000
vn -0.9808 -0.1950 -0.0000
vn -0.9239 -0.3827 -0.0000
vn -0.9239 -0.3826 -0.0000
vn -0.8315 -0.5556 -0.0000
vn -0.8315 -0.5555 -0.0000
vn -0.7071 -0.7071 -0.0000
vn -0.7071 -0.7071 -0.0001
vn -0.5556 -0.8315 -0.0000
vn -0.5556 -0.8314 -0.0000
vn -0.3827 -0.9239 -0.0000
vn -0.5555 -0.8315 -0.0000
vn -0.1951 -0.9808 -0.0000
vn -0.3826 -0.9239 -0.0000
vn -0.0000 -1.0000 -0.0000
vn 0.1951 -0.9808 -0.0000
vn 0.1950 -0.9808 -0.0000
vn 0.0001 -1.0000 -0.0000
vn 0.3826 -0.9239 -0.0000
vn 0.3827 -0.9239 -0.0000
vn 0.5555 -0.8315 -0.0000
vn 0.5556 -0.8315 -0.0000
vn 0.7071 -0.7071 -0.0000
vn 0.5556 -0.8314 -0.0000
vn 0.8314 -0.5556 -0.0000
vn 0.8315 -0.5556 -0.0000
vn 0.8315 -0.5555 -0.0000
vn 0.9239 -0.3827 -0.0000
vn 0.9239 -0.3827 -0.0001
vn 0.9808 -0.1951 -0.0000
vn 1.0000 -0.0000 -0.0000
vn 1.0000 -0.0000 -0.0001
vt 0.000000 0.000000
s 1
f 1775/18/117 1776/18/118 1777/18/119
f 1775/18/117 1777/18/119 1778/18/120
f 1779/18/118 1780/18/119 1781/18/121
f 1779/18/118 1781/18/121 1782/18/122
f 1783/18/119 1784/18/121 1785/18/123
f 1783/18/119 1785/18/123 1786/18/124
f 1787/18/121 1788/18/123 1789/18/125
f 1787/18/121 1789/18/125 1790/18/126
f 1791/18/123 1792/18/125 1793/18/127
f 1791/18/123 1793/18/127 1794/18/127
f 1795/18/128 1796/18/127 1797/18/129
f 1795/18/128 1797/18/129 1798/18/130
f 1799/18/131 1800/18/129 1801/18/132
f 1799/18/131 1801/18/132 1802/18/133
f 1803/18/129 1804/18/132 1805/18/134
f 1803/18/129 1805/18/134 1806/18/135
f 1807/18/136 1808/18/134 1809/18/137
f 1807/18/136 1809/18/137 1810/18/137
f 1811/18/134 1812/18/138 1813/18/139
f 1811/18/134 1813/18/139 1814/18/139
f 1815/18/138 1816/18/140 1817/18/141
f 1815/18/138 1817/18/141 1818/18/141
f 1819/18/142 1820/18/141 1821/18/143
f 1819/18/142 1821/18/143 1822/18/143
f 1823/18/141 1824/18/144 1825/18/145
f 1823/18/141 1825/18/145 1826/18/145
f 1827/18/144 1828/18/145 1829/18/146
f 1827/18/144 1829/18/146 1830/18/146
f 1831/18/147 1832/18/146 1833/18/148
f 1831/18/147 1833/18/148 1834/18/148
f 1835/18/146 1836/18/148 1837/18/149
f 1835/18/146 1837/18/149 1838/18/150
f 1839/18/148 1840/18/149 1841/18/151
f 1839/18/148 1841/18/151 1842/18/152
f 1843/18/149 1844/18/151 1845/18/153
f 1843/18/149 1845/18/153 1846/18/154
f 1847/18/151 1848/18/153 1849/18/155
f 1847/18/151 1849/18/155 1850/18/156
f 1851/18/153 1852/18/155 1853/18/157
f 1851/18/153 1853/18/157 1854/18/158
f 1855/18/155 1856/18/157 1857/18/159
f 1855/18/155 1857/18/159 1858/18/159
f 1859/18/160 1860/18/159 1861/18/161
f 1859/18/160 1861/18/161 1862/18/161
f 1863/18/162 1864/18/161 1865/18/163
f 1863/18/162 1865/18/163 1866/18/163
f 1867/18/161 1868/18/163 1869/18/164
f 1867/18/161 1869/18/164 1870/18/165
f 1871/18/166 1872/18/164 1873/18/167
f 1871/18/166 1873/18/167 1874/18/167
f 1875/18/164 1876/18/168 1877/18/169
f 1875/18/164 1877/18/169 1878/18/169
f 1879/18/168 1880/18/170 1881/18/171
f 1879/18/168 1881/18/171 1882/18/171
f 1883/18/172 1884/18/171 1885/18/173
f 1883/18/172 1885/18/173 1886/18/174
f 1887/18/171 1888/18/175 1889/18/176
f 1887/18/171 1889/18/176 1890/18/177
f 1891/18/175 1892/18/176 1893/18/178
f 1891/18/175 1893/18/178 1894/18/178
f 1895/18/176 1896/18/178 1897/18/179
f 1895/18/176 1897/18/179 1898/18/180
