# Generated by CourtModelGenerator
mtllib net.mtl
g court_model
v -3.05 0 0.7935
v 3.05 0 0.7935
v 3.05 0 0.7905
v -3.05 0 0.7905
v -3.05 0 0.8155
v 3.05 0 0.8155
v 3.05 0 0.8125
v -3.05 0 0.8125
v -3.05 0 0.8375
v 3.05 0 0.8375
v 3.05 0 0.8345
v -3.05 0 0.8345
v -3.05 0 0.8595
v 3.05 0 0.8595
v 3.05 0 0.8565
v -3.05 0 0.8565
v -3.05 0 0.8815
v 3.05 0 0.8815
v 3.05 0 0.8785
v -3.05 0 0.8785
v -3.05 0 0.9035
v 3.05 0 0.9035
v 3.05 0 0.9005
v -3.05 0 0.9005
v -3.05 0 0.9255
v 3.05 0 0.9255
v 3.05 0 0.9225
v -3.05 0 0.9225
v -3.05 0 0.9475
v 3.05 0 0.9475
v 3.05 0 0.9445
v -3.05 0 0.9445
v -3.05 0 0.9695
v 3.05 0 0.9695
v 3.05 0 0.9665
v -3.05 0 0.9665
v -3.05 0 0.9915
v 3.05 0 0.9915
v 3.05 0 0.9885
v -3.05 0 0.9885
v -3.05 0 1.0135
v 3.05 0 1.0135
v 3.05 0 1.0105
v -3.05 0 1.0105
v -3.05 0 1.0355
v 3.05 0 1.0355
v 3.05 0 1.0325
v -3.05 0 1.0325
v -3.05 0 1.0575
v 3.05 0 1.0575
v 3.05 0 1.0545
v -3.05 0 1.0545
v -3.05 0 1.0795
v 3.05 0 1.0795
v 3.05 0 1.0765
v -3.05 0 1.0765
v -3.05 0 1.1015
v 3.05 0 1.1015
v 3.05 0 1.0985
v -3.05 0 1.0985
v -3.05 0 1.1235
v 3.05 0 1.1235
v 3.05 0 1.1205
v -3.05 0 1.1205
v -3.05 0 1.1455
v 3.05 0 1.1455
v 3.05 0 1.1425
v -3.05 0 1.1425
v -3.05 0 1.1675
v 3.05 0 1.1675
v 3.05 0 1.1645
v -3.05 0 1.1645
v -3.05 0 1.1895
v 3.05 0 1.1895
v 3.05 0 1.1865
v -3.05 0 1.1865
v -3.05 0 1.2115
v 3.05 0 1.2115
v 3.05 0 1.2085
v -3.05 0 1.2085
v -3.05 0 1.2335
v 3.05 0 1.2335
v 3.05 0 1.2305
v -3.05 0 1.2305
v -3.05 0 1.2555
v 3.05 0 1.2555
v 3.05 0 1.2525
v -3.05 0 1.2525
v -3.05 0 1.2775
v 3.05 0 1.2775
v 3.05 0 1.2745
v -3.05 0 1.2745
v -3.05 0 1.2995
v 3.05 0 1.2995
v 3.05 0 1.2965
v -3.05 0 1.2965
v -3.05 0 1.3215
v 3.05 0 1.3215
v 3.05 0 1.3185
v -3.05 0 1.3185
v -3.05 0 1.3435
v 3.05 0 1.3435
v 3.05 0 1.3405
v -3.05 0 1.3405
v -3.05 0 1.3655
v 3.05 0 1.3655
v 3.05 0 1.3625
v -3.05 0 1.3625
v -3.05 0 1.3875
v 3.05 0 1.3875
v 3.05 0 1.3845
v -3.05 0 1.3845
v -3.05 0 1.4095
v 3.05 0 1.4095
v 3.05 0 1.4065
v -3.05 0 1.4065
v -3.05 0 1.4315
v 3.05 0 1.4315
v 3.05 0 1.4285
v -3.05 0 1.4285
v -3.05 0 1.4535
v 3.05 0 1.4535
v 3.05 0 1.4505
v -3.05 0 1.4505
v -3.05 0 1.4755
v 3.05 0 1.4755
v 3.05 0 1.4725
v -3.05 0 1.4725
v -3.05 0 1.4975
v 3.05 0 1.4975
v 3.05 0 1.4945
v -3.05 0 1.4945
v -3.05 0 1.5195
v 3.05 0 1.5195
v 3.05 0 1.5165
v -3.05 0 1.5165
v -2.39261 0 1.5415
v 2.39261 0 1.5415
v 2.39261 0 1.5385
v -2.39261 0 1.5385
v -3.0515 0 0.79
v -3.0515 0 1.55
v -3.0485 0 1.55
v -3.0485 0 0.79
v -3.0295 0 0.79
v -3.0295 0 1.54963
v -3.0265 0 1.54963
v -3.0265 0 0.79
v -3.0075 0 0.79
v -3.0075 0 1.54926
v -3.0045 0 1.54926
v -3.0045 0 0.79
v -2.9855 0 0.79
v -2.9855 0 1.54889
v -2.9825 0 1.54889
v -2.9825 0 0.79
v -2.9635 0 0.79
v -2.9635 0 1.54852
v -2.9605 0 1.54852
v -2.9605 0 0.79
v -2.9415 0 0.79
v -2.9415 0 1.54816
v -2.9385 0 1.54816
v -2.9385 0 0.79
v -2.9195 0 0.79
v -2.9195 0 1.5478
v -2.9165 0 1.5478
v -2.9165 0 0.79
v -2.8975 0 0.79
v -2.8975 0 1.54744
v -2.8945 0 1.54744
v -2.8945 0 0.79
v -2.8755 0 0.79
v -2.8755 0 1.54709
v -2.8725 0 1.54709
v -2.8725 0 0.79
v -2.8535 0 0.79
v -2.8535 0 1.54673
v -2.8505 0 1.54673
v -2.8505 0 0.79
v -2.8315 0 0.79
v -2.8315 0 1.54638
v -2.8285 0 1.54638
v -2.8285 0 0.79
v -2.8095 0 0.79
v -2.8095 0 1.54604
v -2.8065 0 1.54604
v -2.8065 0 0.79
v -2.7875 0 0.79
v -2.7875 0 1.54569
v -2.7845 0 1.54569
v -2.7845 0 0.79
v -2.7655 0 0.79
v -2.7655 0 1.54535
v -2.7625 0 1.54535
v -2.7625 0 0.79
v -2.7435 0 0.79
v -2.7435 0 1.54501
v -2.7405 0 1.54501
v -2.7405 0 0.79
v -2.7215 0 0.79
v -2.7215 0 1.54468
v -2.7185 0 1.54468
v -2.7185 0 0.79
v -2.6995 0 0.79
v -2.6995 0 1.54435
v -2.6965 0 1.54435
v -2.6965 0 0.79
v -2.6775 0 0.79
v -2.6775 0 1.54401
v -2.6745 0 1.54401
v -2.6745 0 0.79
v -2.6555 0 0.79
v -2.6555 0 1.54369
v -2.6525 0 1.54369
v -2.6525 0 0.79
v -2.6335 0 0.79
v -2.6335 0 1.54336
v -2.6305 0 1.54336
v -2.6305 0 0.79
v -2.6115 0 0.79
v -2.6115 0 1.54304
v -2.6085 0 1.54304
v -2.6085 0 0.79
v -2.5895 0 0.79
v -2.5895 0 1.54272
v -2.5865 0 1.54272
v -2.5865 0 0.79
v -2.5675 0 0.79
v -2.5675 0 1.5424
v -2.5645 0 1.5424
v -2.5645 0 0.79
v -2.5455 0 0.79
v -2.5455 0 1.54209
v -2.5425 0 1.54209
v -2.5425 0 0.79
v -2.5235 0 0.79
v -2.5235 0 1.54178
v -2.5205 0 1.54178
v -2.5205 0 0.79
v -2.5015 0 0.79
v -2.5015 0 1.54147
v -2.4985 0 1.54147
v -2.4985 0 0.79
v -2.4795 0 0.79
v -2.4795 0 1.54116
v -2.4765 0 1.54116
v -2.4765 0 0.79
v -2.4575 0 0.79
v -2.4575 0 1.54086
v -2.4545 0 1.54086
v -2.4545 0 0.79
v -2.4355 0 0.79
v -2.4355 0 1.54056
v -2.4325 0 1.54056
v -2.4325 0 0.79
v -2.4135 0 0.79
v -2.4135 0 1.54026
v -2.4105 0 1.54026
v -2.4105 0 0.79
v -2.3915 0 0.79
v -2.3915 0 1.53997
v -2.3885 0 1.53997
v -2.3885 0 0.79
v -2.3695 0 0.79
v -2.3695 0 1.53967
v -2.3665 0 1.53967
v -2.3665 0 0.79
v -2.3475 0 0.79
v -2.3475 0 1.53938
v -2.3445 0 1.53938
v -2.3445 0 0.79
v -2.3255 0 0.79
v -2.3255 0 1.5391
v -2.3225 0 1.5391
v -2.3225 0 0.79
v -2.3035 0 0.79
v -2.3035 0 1.53881
v -2.3005 0 1.53881
v -2.3005 0 0.79
v -2.2815 0 0.79
v -2.2815 0 1.53853
v -2.2785 0 1.53853
v -2.2785 0 0.79
v -2.2595 0 0.79
v -2.2595 0 1.53825
v -2.2565 0 1.53825
v -2.2565 0 0.79
v -2.2375 0 0.79
v -2.2375 0 1.53797
v -2.2345 0 1.53797
v -2.2345 0 0.79
v -2.2155 0 0.79
v -2.2155 0 1.5377
v -2.2125 0 1.5377
v -2.2125 0 0.79
v -2.1935 0 0.79
v -2.1935 0 1.53743
v -2.1905 0 1.53743
v -2.1905 0 0.79
v -2.1715 0 0.79
v -2.1715 0 1.53716
v -2.1685 0 1.53716
v -2.1685 0 0.79
v -2.1495 0 0.79
v -2.1495 0 1.5369
v -2.1465 0 1.5369
v -2.1465 0 0.79
v -2.1275 0 0.79
v -2.1275 0 1.53663
v -2.1245 0 1.53663
v -2.1245 0 0.79
v -2.1055 0 0.79
v -2.1055 0 1.53637
v -2.1025 0 1.53637
v -2.1025 0 0.79
v -2.0835 0 0.79
v -2.0835 0 1.53612
v -2.0805 0 1.53612
v -2.0805 0 0.79
v -2.0615 0 0.79
v -2.0615 0 1.53586
v -2.0585 0 1.53586
v -2.0585 0 0.79
v -2.0395 0 0.79
v -2.0395 0 1.53561
v -2.0365 0 1.53561
v -2.0365 0 0.79
v -2.0175 0 0.79
v -2.0175 0 1.53536
v -2.0145 0 1.53536
v -2.0145 0 0.79
v -1.9955 0 0.79
v -1.9955 0 1.53511
v -1.9925 0 1.53511
v -1.9925 0 0.79
v -1.9735 0 0.79
v -1.9735 0 1.53487
v -1.9705 0 1.53487
v -1.9705 0 0.79
v -1.9515 0 0.79
v -1.9515 0 1.53463
v -1.9485 0 1.53463
v -1.9485 0 0.79
v -1.9295 0 0.79
v -1.9295 0 1.53439
v -1.9265 0 1.53439
v -1.9265 0 0.79
v -1.9075 0 0.79
v -1.9075 0 1.53415
v -1.9045 0 1.53415
v -1.9045 0 0.79
v -1.8855 0 0.79
v -1.8855 0 1.53392
v -1.8825 0 1.53392
v -1.8825 0 0.79
v -1.8635 0 0.79
v -1.8635 0 1.53369
v -1.8605 0 1.53369
v -1.8605 0 0.79
v -1.8415 0 0.79
v -1.8415 0 1.53346
v -1.8385 0 1.53346
v -1.8385 0 0.79
v -1.8195 0 0.79
v -1.8195 0 1.53324
v -1.8165 0 1.53324
v -1.8165 0 0.79
v -1.7975 0 0.79
v -1.7975 0 1.53302
v -1.7945 0 1.53302
v -1.7945 0 0.79
v -1.7755 0 0.79
v -1.7755 0 1.5328
v -1.7725 0 1.5328
v -1.7725 0 0.79
v -1.7535 0 0.79
v -1.7535 0 1.53258
v -1.7505 0 1.53258
v -1.7505 0 0.79
v -1.7315 0 0.79
v -1.7315 0 1.53236
v -1.7285 0 1.53236
v -1.7285 0 0.79
v -1.7095 0 0.79
v -1.7095 0 1.53215
v -1.7065 0 1.53215
v -1.7065 0 0.79
v -1.6875 0 0.79
v -1.6875 0 1.53194
v -1.6845 0 1.53194
v -1.6845 0 0.79
v -1.6655 0 0.79
v -1.6655 0 1.53174
v -1.6625 0 1.53174
v -1.6625 0 0.79
v -1.6435 0 0.79
v -1.6435 0 1.53154
v -1.6405 0 1.53154
v -1.6405 0 0.79
v -1.6215 0 0.79
v -1.6215 0 1.53134
v -1.6185 0 1.53134
v -1.6185 0 0.79
v -1.5995 0 0.79
v -1.5995 0 1.53114
v -1.5965 0 1.53114
v -1.5965 0 0.79
v -1.5775 0 0.79
v -1.5775 0 1.53094
v -1.5745 0 1.53094
v -1.5745 0 0.79
v -1.5555 0 0.79
v -1.5555 0 1.53075
v -1.5525 0 1.53075
v -1.5525 0 0.79
v -1.5335 0 0.79
v -1.5335 0 1.53056
v -1.5305 0 1.53056
v -1.5305 0 0.79
v -1.5115 0 0.79
v -1.5115 0 1.53037
v -1.5085 0 1.53037
v -1.5085 0 0.79
v -1.4895 0 0.79
v -1.4895 0 1.53019
v -1.4865 0 1.53019
v -1.4865 0 0.79
v -1.4675 0 0.79
v -1.4675 0 1.53001
v -1.4645 0 1.53001
v -1.4645 0 0.79
v -1.4455 0 0.79
v -1.4455 0 1.52983
v -1.4425 0 1.52983
v -1.4425 0 0.79
v -1.4235 0 0.79
v -1.4235 0 1.52965
v -1.4205 0 1.52965
v -1.4205 0 0.79
v -1.4015 0 0.79
v -1.4015 0 1.52948
v -1.3985 0 1.52948
v -1.3985 0 0.79
v -1.3795 0 0.79
v -1.3795 0 1.52931
v -1.3765 0 1.52931
v -1.3765 0 0.79
v -1.3575 0 0.79
v -1.3575 0 1.52914
v -1.3545 0 1.52914
v -1.3545 0 0.79
v -1.3355 0 0.79
v -1.3355 0 1.52897
v -1.3325 0 1.52897
v -1.3325 0 0.79
v -1.3135 0 0.79
v -1.3135 0 1.52881
v -1.3105 0 1.52881
v -1.3105 0 0.79
v -1.2915 0 0.79
v -1.2915 0 1.52865
v -1.2885 0 1.52865
v -1.2885 0 0.79
v -1.2695 0 0.79
v -1.2695 0 1.52849
v -1.2665 0 1.52849
v -1.2665 0 0.79
v -1.2475 0 0.79
v -1.2475 0 1.52834
v -1.2445 0 1.52834
v -1.2445 0 0.79
v -1.2255 0 0.79
v -1.2255 0 1.52819
v -1.2225 0 1.52819
v -1.2225 0 0.79
v -1.2035 0 0.79
v -1.2035 0 1.52804
v -1.2005 0 1.52804
v -1.2005 0 0.79
v -1.1815 0 0.79
v -1.1815 0 1.52789
v -1.1785 0 1.52789
v -1.1785 0 0.79
v -1.1595 0 0.79
v -1.1595 0 1.52775
v -1.1565 0 1.52775
v -1.1565 0 0.79
v -1.1375 0 0.79
v -1.1375 0 1.52761
v -1.1345 0 1.52761
v -1.1345 0 0.79
v -1.1155 0 0.79
v -1.1155 0 1.52747
v -1.1125 0 1.52747
v -1.1125 0 0.79
v -1.0935 0 0.79
v -1.0935 0 1.52733
v -1.0905 0 1.52733
v -1.0905 0 0.79
v -1.0715 0 0.79
v -1.0715 0 1.5272
v -1.0685 0 1.5272
v -1.0685 0 0.79
v -1.0495 0 0.79
v -1.0495 0 1.52707
v -1.0465 0 1.52707
v -1.0465 0 0.79
v -1.0275 0 0.79
v -1.0275 0 1.52694
v -1.0245 0 1.52694
v -1.0245 0 0.79
v -1.0055 0 0.79
v -1.0055 0 1.52682
v -1.0025 0 1.52682
v -1.0025 0 0.79
v -0.9835 0 0.79
v -0.9835 0 1.5267
v -0.9805 0 1.5267
v -0.9805 0 0.79
v -0.9615 0 0.79
v -0.9615 0 1.52658
v -0.9585 0 1.52658
v -0.9585 0 0.79
v -0.9395 0 0.79
v -0.9395 0 1.52646
v -0.9365 0 1.52646
v -0.9365 0 0.79
v -0.9175 0 0.79
v -0.9175 0 1.52635
v -0.9145 0 1.52635
v -0.9145 0 0.79
v -0.8955 0 0.79
v -0.8955 0 1.52623
v -0.8925 0 1.52623
v -0.8925 0 0.79
v -0.8735 0 0.79
v -0.8735 0 1.52613
v -0.8705 0 1.52613
v -0.8705 0 0.79
v -0.8515 0 0.79
v -0.8515 0 1.52602
v -0.8485 0 1.52602
v -0.8485 0 0.79
v -0.8295 0 0.79
v -0.8295 0 1.52592
v -0.8265 0 1.52592
v -0.8265 0 0.79
v -0.8075 0 0.79
v -0.8075 0 1.52582
v -0.8045 0 1.52582
v -0.8045 0 0.79
v -0.7855 0 0.79
v -0.7855 0 1.52572
v -0.7825 0 1.52572
v -0.7825 0 0.79
v -0.7635 0 0.79
v -0.7635 0 1.52562
v -0.7605 0 1.52562
v -0.7605 0 0.79
v -0.7415 0 0.79
v -0.7415 0 1.52553
v -0.7385 0 1.52553
v -0.7385 0 0.79
v -0.7195 0 0.79
v -0.7195 0 1.52544
v -0.7165 0 1.52544
v -0.7165 0 0.79
v -0.6975 0 0.79
v -0.6975 0 1.52535
v -0.6945 0 1.52535
v -0.6945 0 0.79
v -0.6755 0 0.79
v -0.6755 0 1.52527
v -0.6725 0 1.52527
v -0.6725 0 0.79
v -0.6535 0 0.79
v -0.6535 0 1.52519
v -0.6505 0 1.52519
v -0.6505 0 0.79
v -0.6315 0 0.79
v -0.6315 0 1.52511
v -0.6285 0 1.52511
v -0.6285 0 0.79
v -0.6095 0 0.79
v -0.6095 0 1.52503
v -0.6065 0 1.52503
v -0.6065 0 0.79
v -0.5875 0 0.79
v -0.5875 0 1.52496
v -0.5845 0 1.52496
v -0.5845 0 0.79
v -0.5655 0 0.79
v -0.5655 0 1.52489
v -0.5625 0 1.52489
v -0.5625 0 0.79
v -0.5435 0 0.79
v -0.5435 0 1.52482
v -0.5405 0 1.52482
v -0.5405 0 0.79
v -0.5215 0 0.79
v -0.5215 0 1.52476
v -0.5185 0 1.52476
v -0.5185 0 0.79
v -0.4995 0 0.79
v -0.4995 0 1.52469
v -0.4965 0 1.52469
v -0.4965 0 0.79
v -0.4775 0 0.79
v -0.4775 0 1.52463
v -0.4745 0 1.52463
v -0.4745 0 0.79
v -0.4555 0 0.79
v -0.4555 0 1.52458
v -0.4525 0 1.52458
v -0.4525 0 0.79
v -0.4335 0 0.79
v -0.4335 0 1.52452
v -0.4305 0 1.52452
v -0.4305 0 0.79
v -0.4115 0 0.79
v -0.4115 0 1.52447
v -0.4085 0 1.52447
v -0.4085 0 0.79
v -0.3895 0 0.79
v -0.3895 0 1.52442
v -0.3865 0 1.52442
v -0.3865 0 0.79
v -0.3675 0 0.79
v -0.3675 0 1.52437
v -0.3645 0 1.52437
v -0.3645 0 0.79
v -0.3455 0 0.79
v -0.3455 0 1.52433
v -0.3425 0 1.52433
v -0.3425 0 0.79
v -0.3235 0 0.79
v -0.3235 0 1.52429
v -0.3205 0 1.52429
v -0.3205 0 0.79
v -0.3015 0 0.79
v -0.3015 0 1.52425
v -0.2985 0 1.52425
v -0.2985 0 0.79
v -0.2795 0 0.79
v -0.2795 0 1.52422
v -0.2765 0 1.52422
v -0.2765 0 0.79
v -0.2575 0 0.79
v -0.2575 0 1.52418
v -0.2545 0 1.52418
v -0.2545 0 0.79
v -0.2355 0 0.79
v -0.2355 0 1.52415
v -0.2325 0 1.52415
v -0.2325 0 0.79
v -0.2135 0 0.79
v -0.2135 0 1.52413
v -0.2105 0 1.52413
v -0.2105 0 0.79
v -0.1915 0 0.79
v -0.1915 0 1.5241
v -0.1885 0 1.5241
v -0.1885 0 0.79
v -0.1695 0 0.79
v -0.1695 0 1.52408
v -0.1665 0 1.52408
v -0.1665 0 0.79
v -0.1475 0 0.79
v -0.1475 0 1.52406
v -0.1445 0 1.52406
v -0.1445 0 0.79
v -0.1255 0 0.79
v -0.1255 0 1.52404
v -0.1225 0 1.52404
v -0.1225 0 0.79
v -0.1035 0 0.79
v -0.1035 0 1.52403
v -0.1005 0 1.52403
v -0.1005 0 0.79
v -0.0814999 0 0.79
v -0.0814999 0 1.52402
v -0.0784999 0 1.52402
v -0.0784999 0 0.79
v -0.0594998 0 0.79
v -0.0594998 0 1.52401
v -0.0564999 0 1.52401
v -0.0564999 0 0.79
v -0.0375 0 0.79
v -0.0375 0 1.524
v -0.0345 0 1.524
v -0.0345 0 0.79
v -0.0154999 0 0.79
v -0.0154999 0 1.524
v -0.0124999 0 1.524
v -0.0124999 0 0.79
v 0.00650014 0 0.79
v 0.00650014 0 1.524
v 0.00950014 0 1.524
v 0.00950014 0 0.79
v 0.0285 0 0.79
v 0.0285 0 1.524
v 0.0315 0 1.524
v 0.0315 0 0.79
v 0.0505 0 0.79
v 0.0505 0 1.52401
v 0.0535 0 1.52401
v 0.0535 0 0.79
v 0.0725001 0 0.79
v 0.0725001 0 1.52402
v 0.0755001 0 1.52402
v 0.0755001 0 0.79
v 0.0945 0 0.79
v 0.0945 0 1.52403
v 0.0975 0 1.52403
v 0.0975 0 0.79
v 0.1165 0 0.79
v 0.1165 0 1.52404
v 0.1195 0 1.52404
v 0.1195 0 0.79
v 0.1385 0 0.79
v 0.1385 0 1.52405
v 0.1415 0 1.52405
v 0.1415 0 0.79
v 0.1605 0 0.79
v 0.1605 0 1.52407
v 0.1635 0 1.52407
v 0.1635 0 0.79
v 0.1825 0 0.79
v 0.1825 0 1.52409
v 0.1855 0 1.52409
v 0.1855 0 0.79
v 0.2045 0 0.79
v 0.2045 0 1.52412
v 0.2075 0 1.52412
v 0.2075 0 0.79
v 0.2265 0 0.79
v 0.2265 0 1.52415
v 0.2295 0 1.52415
v 0.2295 0 0.79
v 0.2485 0 0.79
v 0.2485 0 1.52417
v 0.2515 0 1.52417
v 0.2515 0 0.79
v 0.2705 0 0.79
v 0.2705 0 1.52421
v 0.2735 0 1.52421
v 0.2735 0 0.79
v 0.2925 0 0.79
v 0.2925 0 1.52424
v 0.2955 0 1.52424
v 0.2955 0 0.79
v 0.3145 0 0.79
v 0.3145 0 1.52428
v 0.3175 0 1.52428
v 0.3175 0 0.79
v 0.3365 0 0.79
v 0.3365 0 1.52432
v 0.3395 0 1.52432
v 0.3395 0 0.79
v 0.3585 0 0.79
v 0.3585 0 1.52436
v 0.3615 0 1.52436
v 0.3615 0 0.79
v 0.3805 0 0.79
v 0.3805 0 1.52441
v 0.3835 0 1.52441
v 0.3835 0 0.79
v 0.4025 0 0.79
v 0.4025 0 1.52446
v 0.4055 0 1.52446
v 0.4055 0 0.79
v 0.4245 0 0.79
v 0.4245 0 1.52451
v 0.4275 0 1.52451
v 0.4275 0 0.79
v 0.4465 0 0.79
v 0.4465 0 1.52456
v 0.4495 0 1.52456
v 0.4495 0 0.79
v 0.4685 0 0.79
v 0.4685 0 1.52462
v 0.4715 0 1.52462
v 0.4715 0 0.79
v 0.4905 0 0.79
v 0.4905 0 1.52468
v 0.4935 0 1.52468
v 0.4935 0 0.79
v 0.5125 0 0.79
v 0.5125 0 1.52474
v 0.5155 0 1.52474
v 0.5155 0 0.79
v 0.5345 0 0.79
v 0.5345 0 1.5248
v 0.5375 0 1.5248
v 0.5375 0 0.79
v 0.5565 0 0.79
v 0.5565 0 1.52487
v 0.5595 0 1.52487
v 0.5595 0 0.79
v 0.5785 0 0.79
v 0.5785 0 1.52494
v 0.5815 0 1.52494
v 0.5815 0 0.79
v 0.6005 0 0.79
v 0.6005 0 1.52501
v 0.6035 0 1.52501
v 0.6035 0 0.79
v 0.6225 0 0.79
v 0.6225 0 1.52509
v 0.6255 0 1.52509
v 0.6255 0 0.79
v 0.6445 0 0.79
v 0.6445 0 1.52517
v 0.6475 0 1.52517
v 0.6475 0 0.79
v 0.6665 0 0.79
v 0.6665 0 1.52525
v 0.6695 0 1.52525
v 0.6695 0 0.79
v 0.6885 0 0.79
v 0.6885 0 1.52533
v 0.6915 0 1.52533
v 0.6915 0 0.79
v 0.7105 0 0.79
v 0.7105 0 1.52542
v 0.7135 0 1.52542
v 0.7135 0 0.79
v 0.7325 0 0.79
v 0.7325 0 1.52551
v 0.7355 0 1.52551
v 0.7355 0 0.79
v 0.7545 0 0.79
v 0.7545 0 1.5256
v 0.7575 0 1.5256
v 0.7575 0 0.79
v 0.7765 0 0.79
v 0.7765 0 1.52569
v 0.7795 0 1.52569
v 0.7795 0 0.79
v 0.7985 0 0.79
v 0.7985 0 1.52579
v 0.8015 0 1.52579
v 0.8015 0 0.79
v 0.8205 0 0.79
v 0.8205 0 1.52589
v 0.8235 0 1.52589
v 0.8235 0 0.79
v 0.8425 0 0.79
v 0.8425 0 1.52599
v 0.8455 0 1.52599
v 0.8455 0 0.79
v 0.8645 0 0.79
v 0.8645 0 1.5261
v 0.8675 0 1.5261
v 0.8675 0 0.79
v 0.8865 0 0.79
v 0.8865 0 1.5262
v 0.8895 0 1.5262
v 0.8895 0 0.79
v 0.9085 0 0.79
v 0.9085 0 1.52631
v 0.9115 0 1.52631
v 0.9115 0 0.79
v 0.9305 0 0.79
v 0.9305 0 1.52643
v 0.9335 0 1.52643
v 0.9335 0 0.79
v 0.9525 0 0.79
v 0.9525 0 1.52654
v 0.9555 0 1.52654
v 0.9555 0 0.79
v 0.9745 0 0.79
v 0.9745 0 1.52666
v 0.9775 0 1.52666
v 0.9775 0 0.79
v 0.9965 0 0.79
v 0.9965 0 1.52678
v 0.9995 0 1.52678
v 0.9995 0 0.79
v 1.0185 0 0.79
v 1.0185 0 1.52691
v 1.0215 0 1.52691
v 1.0215 0 0.79
v 1.0405 0 0.79
v 1.0405 0 1.52703
v 1.0435 0 1.52703
v 1.0435 0 0.79
v 1.0625 0 0.79
v 1.0625 0 1.52716
v 1.0655 0 1.52716
v 1.0655 0 0.79
v 1.0845 0 0.79
v 1.0845 0 1.5273
v 1.0875 0 1.5273
v 1.0875 0 0.79
v 1.1065 0 0.79
v 1.1065 0 1.52743
v 1.1095 0 1.52743
v 1.1095 0 0.79
v 1.1285 0 0.79
v 1.1285 0 1.52757
v 1.1315 0 1.52757
v 1.1315 0 0.79
v 1.1505 0 0.79
v 1.1505 0 1.52771
v 1.1535 0 1.52771
v 1.1535 0 0.79
v 1.1725 0 0.79
v 1.1725 0 1.52785
v 1.1755 0 1.52785
v 1.1755 0 0.79
v 1.1945 0 0.79
v 1.1945 0 1.528
v 1.1975 0 1.528
v 1.1975 0 0.79
v 1.2165 0 0.79
v 1.2165 0 1.52815
v 1.2195 0 1.52815
v 1.2195 0 0.79
v 1.2385 0 0.79
v 1.2385 0 1.5283
v 1.2415 0 1.5283
v 1.2415 0 0.79
v 1.2605 0 0.79
v 1.2605 0 1.52845
v 1.2635 0 1.52845
v 1.2635 0 0.79
v 1.2825 0 0.79
v 1.2825 0 1.52861
v 1.2855 0 1.52861
v 1.2855 0 0.79
v 1.3045 0 0.79
v 1.3045 0 1.52877
v 1.3075 0 1.52877
v 1.3075 0 0.79
v 1.3265 0 0.79
v 1.3265 0 1.52893
v 1.3295 0 1.52893
v 1.3295 0 0.79
v 1.3485 0 0.79
v 1.3485 0 1.52909
v 1.3515 0 1.52909
v 1.3515 0 0.79
v 1.3705 0 0.79
v 1.3705 0 1.52926
v 1.3735 0 1.52926
v 1.3735 0 0.79
v 1.3925 0 0.79
v 1.3925 0 1.52943
v 1.3955 0 1.52943
v 1.3955 0 0.79
v 1.4145 0 0.79
v 1.4145 0 1.5296
v 1.4175 0 1.5296
v 1.4175 0 0.79
v 1.4365 0 0.79
v 1.4365 0 1.52978
v 1.4395 0 1.52978
v 1.4395 0 0.79
v 1.4585 0 0.79
v 1.4585 0 1.52996
v 1.4615 0 1.52996
v 1.4615 0 0.79
v 1.4805 0 0.79
v 1.4805 0 1.53014
v 1.4835 0 1.53014
v 1.4835 0 0.79
v 1.5025 0 0.79
v 1.5025 0 1.53032
v 1.5055 0 1.53032
v 1.5055 0 0.79
v 1.5245 0 0.79
v 1.5245 0 1.53051
v 1.5275 0 1.53051
v 1.5275 0 0.79
v 1.5465 0 0.79
v 1.5465 0 1.5307
v 1.5495 0 1.5307
v 1.5495 0 0.79
v 1.5685 0 0.79
v 1.5685 0 1.53089
v 1.5715 0 1.53089
v 1.5715 0 0.79
v 1.5905 0 0.79
v 1.5905 0 1.53108
v 1.5935 0 1.53108
v 1.5935 0 0.79
v 1.6125 0 0.79
v 1.6125 0 1.53128
v 1.6155 0 1.53128
v 1.6155 0 0.79
v 1.6345 0 0.79
v 1.6345 0 1.53148
v 1.6375 0 1.53148
v 1.6375 0 0.79
v 1.6565 0 0.79
v 1.6565 0 1.53168
v 1.6595 0 1.53168
v 1.6595 0 0.79
v 1.6785 0 0.79
v 1.6785 0 1.53189
v 1.6815 0 1.53189
v 1.6815 0 0.79
v 1.7005 0 0.79
v 1.7005 0 1.5321
v 1.7035 0 1.5321
v 1.7035 0 0.79
v 1.7225 0 0.79
v 1.7225 0 1.53231
v 1.7255 0 1.53231
v 1.7255 0 0.79
v 1.7445 0 0.79
v 1.7445 0 1.53252
v 1.7475 0 1.53252
v 1.7475 0 0.79
v 1.7665 0 0.79
v 1.7665 0 1.53274
v 1.7695 0 1.53274
v 1.7695 0 0.79
v 1.7885 0 0.79
v 1.7885 0 1.53296
v 1.7915 0 1.53296
v 1.7915 0 0.79
v 1.8105 0 0.79
v 1.8105 0 1.53318
v 1.8135 0 1.53318
v 1.8135 0 0.79
v 1.8325 0 0.79
v 1.8325 0 1.5334
v 1.8355 0 1.5334
v 1.8355 0 0.79
v 1.8545 0 0.79
v 1.8545 0 1.53363
v 1.8575 0 1.53363
v 1.8575 0 0.79
v 1.8765 0 0.79
v 1.8765 0 1.53386
v 1.8795 0 1.53386
v 1.8795 0 0.79
v 1.8985 0 0.79
v 1.8985 0 1.53409
v 1.9015 0 1.53409
v 1.9015 0 0.79
v 1.9205 0 0.79
v 1.9205 0 1.53432
v 1.9235 0 1.53432
v 1.9235 0 0.79
v 1.9425 0 0.79
v 1.9425 0 1.53456
v 1.9455 0 1.53456
v 1.9455 0 0.79
v 1.9645 0 0.79
v 1.9645 0 1.5348
v 1.9675 0 1.5348
v 1.9675 0 0.79
v 1.9865 0 0.79
v 1.9865 0 1.53505
v 1.9895 0 1.53505
v 1.9895 0 0.79
v 2.0085 0 0.79
v 2.0085 0 1.53529
v 2.0115 0 1.53529
v 2.0115 0 0.79
v 2.0305 0 0.79
v 2.0305 0 1.53554
v 2.0335 0 1.53554
v 2.0335 0 0.79
v 2.0525 0 0.79
v 2.0525 0 1.53579
v 2.0555 0 1.53579
v 2.0555 0 0.79
v 2.0745 0 0.79
v 2.0745 0 1.53605
v 2.0775 0 1.53605
v 2.0775 0 0.79
v 2.0965 0 0.79
v 2.0965 0 1.5363
v 2.0995 0 1.5363
v 2.0995 0 0.79
v 2.1185 0 0.79
v 2.1185 0 1.53656
v 2.1215 0 1.53656
v 2.1215 0 0.79
v 2.1405 0 0.79
v 2.1405 0 1.53682
v 2.1435 0 1.53682
v 2.1435 0 0.79
v 2.1625 0 0.79
v 2.1625 0 1.53709
v 2.1655 0 1.53709
v 2.1655 0 0.79
v 2.1845 0 0.79
v 2.1845 0 1.53736
v 2.1875 0 1.53736
v 2.1875 0 0.79
v 2.2065 0 0.79
v 2.2065 0 1.53763
v 2.2095 0 1.53763
v 2.2095 0 0.79
v 2.2285 0 0.79
v 2.2285 0 1.5379
v 2.2315 0 1.5379
v 2.2315 0 0.79
v 2.2505 0 0.79
v 2.2505 0 1.53817
v 2.2535 0 1.53817
v 2.2535 0 0.79
v 2.2725 0 0.79
v 2.2725 0 1.53845
v 2.2755 0 1.53845
v 2.2755 0 0.79
v 2.2945 0 0.79
v 2.2945 0 1.53873
v 2.2975 0 1.53873
v 2.2975 0 0.79
v 2.3165 0 0.79
v 2.3165 0 1.53902
v 2.3195 0 1.53902
v 2.3195 0 0.79
v 2.3385 0 0.79
v 2.3385 0 1.5393
v 2.3415 0 1.5393
v 2.3415 0 0.79
v 2.3605 0 0.79
v 2.3605 0 1.53959
v 2.3635 0 1.53959
v 2.3635 0 0.79
v 2.3825 0 0.79
v 2.3825 0 1.53988
v 2.3855 0 1.53988
v 2.3855 0 0.79
v 2.4045 0 0.79
v 2.4045 0 1.54018
v 2.4075 0 1.54018
v 2.4075 0 0.79
v 2.4265 0 0.79
v 2.4265 0 1.54048
v 2.4295 0 1.54048
v 2.4295 0 0.79
v 2.4485 0 0.79
v 2.4485 0 1.54078
v 2.4515 0 1.54078
v 2.4515 0 0.79
v 2.4705 0 0.79
v 2.4705 0 1.54108
v 2.4735 0 1.54108
v 2.4735 0 0.79
v 2.4925 0 0.79
v 2.4925 0 1.54138
v 2.4955 0 1.54138
v 2.4955 0 0.79
v 2.5145 0 0.79
v 2.5145 0 1.54169
v 2.5175 0 1.54169
v 2.5175 0 0.79
v 2.5365 0 0.79
v 2.5365 0 1.542
v 2.5395 0 1.542
v 2.5395 0 0.79
v 2.5585 0 0.79
v 2.5585 0 1.54232
v 2.5615 0 1.54232
v 2.5615 0 0.79
v 2.5805 0 0.79
v 2.5805 0 1.54263
v 2.5835 0 1.54263
v 2.5835 0 0.79
v 2.6025 0 0.79
v 2.6025 0 1.54295
v 2.6055 0 1.54295
v 2.6055 0 0.79
v 2.6245 0 0.79
v 2.6245 0 1.54327
v 2.6275 0 1.54327
v 2.6275 0 0.79
v 2.6465 0 0.79
v 2.6465 0 1.5436
v 2.6495 0 1.5436
v 2.6495 0 0.79
v 2.6685 0 0.79
v 2.6685 0 1.54392
v 2.6715 0 1.54392
v 2.6715 0 0.79
v 2.6905 0 0.79
v 2.6905 0 1.54425
v 2.6935 0 1.54425
v 2.6935 0 0.79
v 2.7125 0 0.79
v 2.7125 0 1.54459
v 2.7155 0 1.54459
v 2.7155 0 0.79
v 2.7345 0 0.79
v 2.7345 0 1.54492
v 2.7375 0 1.54492
v 2.7375 0 0.79
v 2.7565 0 0.79
v 2.7565 0 1.54526
v 2.7595 0 1.54526
v 2.7595 0 0.79
v 2.7785 0 0.79
v 2.7785 0 1.5456
v 2.7815 0 1.5456
v 2.7815 0 0.79
v 2.8005 0 0.79
v 2.8005 0 1.54594
v 2.8035 0 1.54594
v 2.8035 0 0.79
v 2.8225 0 0.79
v 2.8225 0 1.54629
v 2.8255 0 1.54629
v 2.8255 0 0.79
v 2.8445 0 0.79
v 2.8445 0 1.54664
v 2.8475 0 1.54664
v 2.8475 0 0.79
v 2.8665 0 0.79
v 2.8665 0 1.54699
v 2.8695 0 1.54699
v 2.8695 0 0.79
v 2.8885 0 0.79
v 2.8885 0 1.54734
v 2.8915 0 1.54734
v 2.8915 0 0.79
v 2.9105 0 0.79
v 2.9105 0 1.5477
v 2.9135 0 1.5477
v 2.9135 0 0.79
v 2.9325 0 0.79
v 2.9325 0 1.54806
v 2.9355 0 1.54806
v 2.9355 0 0.79
v 2.9545 0 0.79
v 2.9545 0 1.54842
v 2.9575 0 1.54842
v 2.9575 0 0.79
v 2.9765 0 0.79
v 2.9765 0 1.54879
v 2.9795 0 1.54879
v 2.9795 0 0.79
v 2.9985 0 0.79
v 2.9985 0 1.54915
v 3.0015 0 1.54915
v 3.0015 0 0.79
v 3.0205 0 0.79
v 3.0205 0 1.54952
v 3.0235 0 1.54952
v 3.0235 0 0.79
v 3.0425 0 0.79
v 3.0425 0 1.5499
v 3.0455 0 1.5499
v 3.0455 0 0.79
vt 0 0
vt 0 0
vt 0 0
vt 0 0
vt 0 0
vt 0 0
vt 0 0
vt 0 0
vt 0 0
vt 0 0
vt 0 0
vt 0 0
vt 0 0
vt 0 0
vt 0 0
vt 0 0
vt 0 0
vt 0 0
vt 0 0
vt 0 0
vt 0 0
vt 0 0
vt 0 0
vt 0 0
vt 0 0
vt 0 0
vt 0 0
vt 0 0
vt 0 0
vt 0 0
vt 0 0
vt 0 0
vt 0 0
vt 0 0
vt 0 0
vt 0 0
vt 0 0
vt 0 0
vt 0 0
vt 0 0
vt 0 0
vt 0 0
vt 0 0
vt 0 0
vt 0 0
vt 0 0
vt 0 0
vt 0 0
vt 0 0
vt 0 0
vt 0 0
vt 0 0
vt 0 0
vt 0 0
vt 0 0
vt 0 0
vt 0 0
vt 0 0
vt 0 0
vt 0 0
vt 0 0
vt 0 0
vt 0 0
vt 0 0
vt 0 0
vt 0 0
vt 0 0
vt 0 0
vt 0 0
vt 0 0
vt 0 0
vt 0 0
vt 0 0
vt 0 0
vt 0 0
vt 0 0
vt 0 0
vt 0 0
vt 0 0
vt 0 0
vt 0 0
vt 0 0
vt 0 0
vt 0 0
vt 0 0
vt 0 0
vt 0 0
vt 0 0
vt 0 0
vt 0 0
vt 0 0
vt 0 0
vt 0 0
vt 0 0
vt 0 0
vt 0 0
vt 0 0
vt 0 0
vt 0 0
vt 0 0
vt 0 0
vt 0 0
vt 0 0
vt 0 0
vt 0 0
vt 0 0
vt 0 0
vt 0 0
vt 0 0
vt 0 0
vt 0 0
vt 0 0
vt 0 0
vt 0 0
vt 0 0
vt 0 0
vt 0 0
vt 0 0
vt 0 0
vt 0 0
vt 0 0
vt 0 0
vt 0 0
vt 0 0
vt 0 0
vt 0 0
vt 0 0
vt 0 0
vt 0 0
vt 0 0
vt 0 0
vt 0 0
vt 0 0
vt 0 0
vt 0 0
vt 0 0
vt 0 0
vt 0 0
vt 0 0
vt 0 0
vt 0 0
vt 0 0
vt 0 0
vt 0 0
vt 0 0
vt 0 0
vt 0 0
vt 0 0
vt 0 0
vt 0 0
vt 0 0
vt 0 0
vt 0 0
vt 0 0
vt 0 0
vt 0 0
vt 0 0
vt 0 0
vt 0 0
vt 0 0
vt 0 0
vt 0 0
vt 0 0
vt 0 0
vt 0 0
vt 0 0
vt 0 0
vt 0 0
vt 0 0
vt 0 0
vt 0 0
vt 0 0
vt 0 0
vt 0 0
vt 0 0
vt 0 0
vt 0 0
vt 0 0
vt 0 0
vt 0 0
vt 0 0
vt 0 0
vt 0 0
vt 0 0
vt 0 0
vt 0 0
vt 0 0
vt 0 0
vt 0 0
vt 0 0
vt 0 0
vt 0 0
vt 0 0
vt 0 0
vt 0 0
vt 0 0
vt 0 0
vt 0 0
vt 0 0
vt 0 0
vt 0 0
vt 0 0
vt 0 0
vt 0 0
vt 0 0
vt 0 0
vt 0 0
vt 0 0
vt 0 0
vt 0 0
vt 0 0
vt 0 0
vt 0 0
vt 0 0
vt 0 0
vt 0 0
vt 0 0
vt 0 0
vt 0 0
vt 0 0
vt 0 0
vt 0 0
vt 0 0
vt 0 0
vt 0 0
vt 0 0
vt 0 0
vt 0 0
vt 0 0
vt 0 0
vt 0 0
vt 0 0
vt 0 0
vt 0 0
vt 0 0
vt 0 0
vt 0 0
vt 0 0
vt 0 0
vt 0 0
vt 0 0
vt 0 0
vt 0 0
vt 0 0
vt 0 0
vt 0 0
vt 0 0
vt 0 0
vt 0 0
vt 0 0
vt 0 0
vt 0 0
vt 0 0
vt 0 0
vt 0 0
vt 0 0
vt 0 0
vt 0 0
vt 0 0
vt 0 0
vt 0 0
vt 0 0
vt 0 0
vt 0 0
vt 0 0
vt 0 0
vt 0 0
vt 0 0
vt 0 0
vt 0 0
vt 0 0
vt 0 0
vt 0 0
vt 0 0
vt 0 0
vt 0 0
vt 0 0
vt 0 0
vt 0 0
vt 0 0
vt 0 0
vt 0 0
vt 0 0
vt 0 0
vt 0 0
vt 0 0
vt 0 0
vt 0 0
vt 0 0
vt 0 0
vt 0 0
vt 0 0
vt 0 0
vt 0 0
vt 0 0
vt 0 0
vt 0 0
vt 0 0
vt 0 0
vt 0 0
vt 0 0
vt 0 0
vt 0 0
vt 0 0
vt 0 0
vt 0 0
vt 0 0
vt 0 0
vt 0 0
vt 0 0
vt 0 0
vt 0 0
vt 0 0
vt 0 0
vt 0 0
vt 0 0
vt 0 0
vt 0 0
vt 0 0
vt 0 0
vt 0 0
vt 0 0
vt 0 0
vt 0 0
vt 0 0
vt 0 0
vt 0 0
vt 0 0
vt 0 0
vt 0 0
vt 0 0
vt 0 0
vt 0 0
vt 0 0
vt 0 0
vt 0 0
vt 0 0
vt 0 0
vt 0 0
vt 0 0
vt 0 0
vt 0 0
vt 0 0
vt 0 0
vt 0 0
vt 0 0
vt 0 0
vt 0 0
vt 0 0
vt 0 0
vt 0 0
vt 0 0
vt 0 0
vt 0 0
vt 0 0
vt 0 0
vt 0 0
vt 0 0
vt 0 0
vt 0 0
vt 0 0
vt 0 0
vt 0 0
vt 0 0
vt 0 0
vt 0 0
vt 0 0
vt 0 0
vt 0 0
vt 0 0
vt 0 0
vt 0 0
vt 0 0
vt 0 0
vt 0 0
vt 0 0
vt 0 0
vt 0 0
vt 0 0
vt 0 0
vt 0 0
vt 0 0
vt 0 0
vt 0 0
vt 0 0
vt 0 0
vt 0 0
vt 0 0
vt 0 0
vt 0 0
vt 0 0
vt 0 0
vt 0 0
vt 0 0
vt 0 0
vt 0 0
vt 0 0
vt 0 0
vt 0 0
vt 0 0
vt 0 0
vt 0 0
vt 0 0
vt 0 0
vt 0 0
vt 0 0
vt 0 0
vt 0 0
vt 0 0
vt 0 0
vt 0 0
vt 0 0
vt 0 0
vt 0 0
vt 0 0
vt 0 0
vt 0 0
vt 0 0
vt 0 0
vt 0 0
vt 0 0
vt 0 0
vt 0 0
vt 0 0
vt 0 0
vt 0 0
vt 0 0
vt 0 0
vt 0 0
vt 0 0
vt 0 0
vt 0 0
vt 0 0
vt 0 0
vt 0 0
vt 0 0
vt 0 0
vt 0 0
vt 0 0
vt 0 0
vt 0 0
vt 0 0
vt 0 0
vt 0 0
vt 0 0
vt 0 0
vt 0 0
vt 0 0
vt 0 0
vt 0 0
vt 0 0
vt 0 0
vt 0 0
vt 0 0
vt 0 0
vt 0 0
vt 0 0
vt 0 0
vt 0 0
vt 0 0
vt 0 0
vt 0 0
vt 0 0
vt 0 0
vt 0 0
vt 0 0
vt 0 0
vt 0 0
vt 0 0
vt 0 0
vt 0 0
vt 0 0
vt 0 0
vt 0 0
vt 0 0
vt 0 0
vt 0 0
vt 0 0
vt 0 0
vt 0 0
vt 0 0
vt 0 0
vt 0 0
vt 0 0
vt 0 0
vt 0 0
vt 0 0
vt 0 0
vt 0 0
vt 0 0
vt 0 0
vt 0 0
vt 0 0
vt 0 0
vt 0 0
vt 0 0
vt 0 0
vt 0 0
vt 0 0
vt 0 0
vt 0 0
vt 0 0
vt 0 0
vt 0 0
vt 0 0
vt 0 0
vt 0 0
vt 0 0
vt 0 0
vt 0 0
vt 0 0
vt 0 0
vt 0 0
vt 0 0
vt 0 0
vt 0 0
vt 0 0
vt 0 0
vt 0 0
vt 0 0
vt 0 0
vt 0 0
vt 0 0
vt 0 0
vt 0 0
vt 0 0
vt 0 0
vt 0 0
vt 0 0
vt 0 0
vt 0 0
vt 0 0
vt 0 0
vt 0 0
vt 0 0
vt 0 0
vt 0 0
vt 0 0
vt 0 0
vt 0 0
vt 0 0
vt 0 0
vt 0 0
vt 0 0
vt 0 0
vt 0 0
vt 0 0
vt 0 0
vt 0 0
vt 0 0
vt 0 0
vt 0 0
vt 0 0
vt 0 0
vt 0 0
vt 0 0
vt 0 0
vt 0 0
vt 0 0
vt 0 0
vt 0 0
vt 0 0
vt 0 0
vt 0 0
vt 0 0
vt 0 0
vt 0 0
vt 0 0
vt 0 0
vt 0 0
vt 0 0
vt 0 0
vt 0 0
vt 0 0
vt 0 0
vt 0 0
vt 0 0
vt 0 0
vt 0 0
vt 0 0
vt 0 0
vt 0 0
vt 0 0
vt 0 0
vt 0 0
vt 0 0
vt 0 0
vt 0 0
vt 0 0
vt 0 0
vt 0 0
vt 0 0
vt 0 0
vt 0 0
vt 0 0
vt 0 0
vt 0 0
vt 0 0
vt 0 0
vt 0 0
vt 0 0
vt 0 0
vt 0 0
vt 0 0
vt 0 0
vt 0 0
vt 0 0
vt 0 0
vt 0 0
vt 0 0
vt 0 0
vt 0 0
vt 0 0
vt 0 0
vt 0 0
vt 0 0
vt 0 0
vt 0 0
vt 0 0
vt 0 0
vt 0 0
vt 0 0
vt 0 0
vt 0 0
vt 0 0
vt 0 0
vt 0 0
vt 0 0
vt 0 0
vt 0 0
vt 0 0
vt 0 0
vt 0 0
vt 0 0
vt 0 0
vt 0 0
vt 0 0
vt 0 0
vt 0 0
vt 0 0
vt 0 0
vt 0 0
vt 0 0
vt 0 0
vt 0 0
vt 0 0
vt 0 0
vt 0 0
vt 0 0
vt 0 0
vt 0 0
vt 0 0
vt 0 0
vt 0 0
vt 0 0
vt 0 0
vt 0 0
vt 0 0
vt 0 0
vt 0 0
vt 0 0
vt 0 0
vt 0 0
vt 0 0
vt 0 0
vt 0 0
vt 0 0
vt 0 0
vt 0 0
vt 0 0
vt 0 0
vt 0 0
vt 0 0
vt 0 0
vt 0 0
vt 0 0
vt 0 0
vt 0 0
vt 0 0
vt 0 0
vt 0 0
vt 0 0
vt 0 0
vt 0 0
vt 0 0
vt 0 0
vt 0 0
vt 0 0
vt 0 0
vt 0 0
vt 0 0
vt 0 0
vt 0 0
vt 0 0
vt 0 0
vt 0 0
vt 0 0
vt 0 0
vt 0 0
vt 0 0
vt 0 0
vt 0 0
vt 0 0
vt 0 0
vt 0 0
vt 0 0
vt 0 0
vt 0 0
vt 0 0
vt 0 0
vt 0 0
vt 0 0
vt 0 0
vt 0 0
vt 0 0
vt 0 0
vt 0 0
vt 0 0
vt 0 0
vt 0 0
vt 0 0
vt 0 0
vt 0 0
vt 0 0
vt 0 0
vt 0 0
vt 0 0
vt 0 0
vt 0 0
vt 0 0
vt 0 0
vt 0 0
vt 0 0
vt 0 0
vt 0 0
vt 0 0
vt 0 0
vt 0 0
vt 0 0
vt 0 0
vt 0 0
vt 0 0
vt 0 0
vt 0 0
vt 0 0
vt 0 0
vt 0 0
vt 0 0
vt 0 0
vt 0 0
vt 0 0
vt 0 0
vt 0 0
vt 0 0
vt 0 0
vt 0 0
vt 0 0
vt 0 0
vt 0 0
vt 0 0
vt 0 0
vt 0 0
vt 0 0
vt 0 0
vt 0 0
vt 0 0
vt 0 0
vt 0 0
vt 0 0
vt 0 0
vt 0 0
vt 0 0
vt 0 0
vt 0 0
vt 0 0
vt 0 0
vt 0 0
vt 0 0
vt 0 0
vt 0 0
vt 0 0
vt 0 0
vt 0 0
vt 0 0
vt 0 0
vt 0 0
vt 0 0
vt 0 0
vt 0 0
vt 0 0
vt 0 0
vt 0 0
vt 0 0
vt 0 0
vt 0 0
vt 0 0
vt 0 0
vt 0 0
vt 0 0
vt 0 0
vt 0 0
vt 0 0
vt 0 0
vt 0 0
vt 0 0
vt 0 0
vt 0 0
vt 0 0
vt 0 0
vt 0 0
vt 0 0
vt 0 0
vt 0 0
vt 0 0
vt 0 0
vt 0 0
vt 0 0
vt 0 0
vt 0 0
vt 0 0
vt 0 0
vt 0 0
vt 0 0
vt 0 0
vt 0 0
vt 0 0
vt 0 0
vt 0 0
vt 0 0
vt 0 0
vt 0 0
vt 0 0
vt 0 0
vt 0 0
vt 0 0
vt 0 0
vt 0 0
vt 0 0
vt 0 0
vt 0 0
vt 0 0
vt 0 0
vt 0 0
vt 0 0
vt 0 0
vt 0 0
vt 0 0
vt 0 0
vt 0 0
vt 0 0
vt 0 0
vt 0 0
vt 0 0
vt 0 0
vt 0 0
vt 0 0
vt 0 0
vt 0 0
vt 0 0
vt 0 0
vt 0 0
vt 0 0
vt 0 0
vt 0 0
vt 0 0
vt 0 0
vt 0 0
vt 0 0
vt 0 0
vt 0 0
vt 0 0
vt 0 0
vt 0 0
vt 0 0
vt 0 0
vt 0 0
vt 0 0
vt 0 0
vt 0 0
vt 0 0
vt 0 0
vt 0 0
vt 0 0
vt 0 0
vt 0 0
vt 0 0
vt 0 0
vt 0 0
vt 0 0
vt 0 0
vt 0 0
vt 0 0
vt 0 0
vt 0 0
vt 0 0
vt 0 0
vt 0 0
vt 0 0
vt 0 0
vt 0 0
vt 0 0
vt 0 0
vt 0 0
vt 0 0
vt 0 0
vt 0 0
vt 0 0
vt 0 0
vt 0 0
vt 0 0
vt 0 0
vt 0 0
vt 0 0
vt 0 0
vt 0 0
vt 0 0
vt 0 0
vt 0 0
vt 0 0
vt 0 0
vt 0 0
vt 0 0
vt 0 0
vt 0 0
vt 0 0
vt 0 0
vt 0 0
vt 0 0
vt 0 0
vt 0 0
vt 0 0
vt 0 0
vt 0 0
vt 0 0
vt 0 0
vt 0 0
vt 0 0
vt 0 0
vt 0 0
vt 0 0
vt 0 0
vt 0 0
vt 0 0
vt 0 0
vt 0 0
vt 0 0
vt 0 0
vt 0 0
vt 0 0
vt 0 0
vt 0 0
vt 0 0
vt 0 0
vt 0 0
vt 0 0
vt 0 0
vt 0 0
vt 0 0
vt 0 0
vt 0 0
vt 0 0
vt 0 0
vt 0 0
vt 0 0
vt 0 0
vt 0 0
vt 0 0
vt 0 0
vt 0 0
vt 0 0
vt 0 0
vt 0 0
vt 0 0
vt 0 0
vt 0 0
vt 0 0
vt 0 0
vt 0 0
vt 0 0
vt 0 0
vt 0 0
vt 0 0
vt 0 0
vt 0 0
vt 0 0
vt 0 0
vt 0 0
vt 0 0
vt 0 0
vt 0 0
vt 0 0
vt 0 0
vt 0 0
vt 0 0
vt 0 0
vt 0 0
vt 0 0
vt 0 0
vt 0 0
vt 0 0
vt 0 0
vt 0 0
vt 0 0
vt 0 0
vt 0 0
vt 0 0
vt 0 0
vt 0 0
vt 0 0
vt 0 0
vt 0 0
vt 0 0
vt 0 0
vt 0 0
vt 0 0
vt 0 0
vt 0 0
vt 0 0
vt 0 0
vt 0 0
vt 0 0
vt 0 0
vt 0 0
vt 0 0
vt 0 0
vt 0 0
vt 0 0
vt 0 0
vt 0 0
vt 0 0
vt 0 0
vt 0 0
vt 0 0
vt 0 0
vt 0 0
vt 0 0
vt 0 0
vt 0 0
vt 0 0
vt 0 0
vt 0 0
vt 0 0
vt 0 0
vt 0 0
vt 0 0
vt 0 0
vt 0 0
vt 0 0
vt 0 0
vt 0 0
vt 0 0
vt 0 0
vt 0 0
vt 0 0
vt 0 0
vt 0 0
vt 0 0
vt 0 0
vt 0 0
vt 0 0
vt 0 0
vt 0 0
vt 0 0
vt 0 0
vt 0 0
vt 0 0
vt 0 0
vt 0 0
vt 0 0
vt 0 0
vt 0 0
vt 0 0
vt 0 0
vt 0 0
vt 0 0
vt 0 0
vt 0 0
vt 0 0
vt 0 0
vt 0 0
vt 0 0
vt 0 0
vt 0 0
vt 0 0
vt 0 0
vt 0 0
vt 0 0
vt 0 0
vt 0 0
vt 0 0
vt 0 0
vt 0 0
vt 0 0
vt 0 0
vt 0 0
vt 0 0
vt 0 0
vt 0 0
vt 0 0
vt 0 0
vt 0 0
vt 0 0
vt 0 0
vt 0 0
vt 0 0
vt 0 0
vt 0 0
vt 0 0
vt 0 0
vt 0 0
vt 0 0
vt 0 0
vt 0 0
vt 0 0
vt 0 0
vt 0 0
vt 0 0
vt 0 0
vt 0 0
vt 0 0
vt 0 0
vt 0 0
vt 0 0
vt 0 0
vt 0 0
vt 0 0
vt 0 0
vt 0 0
vt 0 0
vt 0 0
vt 0 0
vt 0 0
vt 0 0
vt 0 0
vt 0 0
vt 0 0
vt 0 0
vt 0 0
vt 0 0
vt 0 0
vt 0 0
vt 0 0
vt 0 0
vt 0 0
vt 0 0
vt 0 0
vt 0 0
vt 0 0
vt 0 0
vt 0 0
vt 0 0
vt 0 0
vt 0 0
vt 0 0
vt 0 0
vt 0 0
vt 0 0
vt 0 0
vt 0 0
vt 0 0
vt 0 0
vt 0 0
vt 0 0
vt 0 0
vt 0 0
vt 0 0
vt 0 0
vt 0 0
vt 0 0
vt 0 0
vt 0 0
vt 0 0
vt 0 0
vt 0 0
vt 0 0
vt 0 0
vt 0 0
vt 0 0
vt 0 0
vt 0 0
vt 0 0
vt 0 0
vt 0 0
vt 0 0
vt 0 0
vt 0 0
vt 0 0
vt 0 0
vt 0 0
vt 0 0
vt 0 0
vt 0 0
vt 0 0
vt 0 0
vt 0 0
vt 0 0
vt 0 0
vt 0 0
vt 0 0
vt 0 0
vt 0 0
vt 0 0
vt 0 0
vt 0 0
vt 0 0
vt 0 0
vt 0 0
vt 0 0
vt 0 0
vt 0 0
vt 0 0
vt 0 0
vt 0 0
vt 0 0
vt 0 0
vt 0 0
vt 0 0
vt 0 0
vt 0 0
vt 0 0
vt 0 0
vt 0 0
vt 0 0
vt 0 0
vt 0 0
vt 0 0
vt 0 0
vt 0 0
vt 0 0
vt 0 0
vt 0 0
vt 0 0
vt 0 0
vt 0 0
vt 0 0
vt 0 0
vt 0 0
vt 0 0
vt 0 0
vt 0 0
vt 0 0
vt 0 0
vt 0 0
vt 0 0
vt 0 0
vt 0 0
vt 0 0
vt 0 0
vt 0 0
vt 0 0
vt 0 0
vt 0 0
vn 0 1 0
vn 0 1 0
vn 0 1 0
vn 0 1 0
vn 0 1 0
vn 0 1 0
vn 0 1 0
vn 0 1 0
vn 0 1 0
vn 0 1 0
vn 0 1 0
vn 0 1 0
vn 0 1 0
vn 0 1 0
vn 0 1 0
vn 0 1 0
vn 0 1 0
vn 0 1 0
vn 0 1 0
vn 0 1 0
vn 0 1 0
vn 0 1 0
vn 0 1 0
vn 0 1 0
vn 0 1 0
vn 0 1 0
vn 0 1 0
vn 0 1 0
vn 0 1 0
vn 0 1 0
vn 0 1 0
vn 0 1 0
vn 0 1 0
vn 0 1 0
vn 0 1 0
vn 0 1 0
vn 0 1 0
vn 0 1 0
vn 0 1 0
vn 0 1 0
vn 0 1 0
vn 0 1 0
vn 0 1 0
vn 0 1 0
vn 0 1 0
vn 0 1 0
vn 0 1 0
vn 0 1 0
vn 0 1 0
vn 0 1 0
vn 0 1 0
vn 0 1 0
vn 0 1 0
vn 0 1 0
vn 0 1 0
vn 0 1 0
vn 0 1 0
vn 0 1 0
vn 0 1 0
vn 0 1 0
vn 0 1 0
vn 0 1 0
vn 0 1 0
vn 0 1 0
vn 0 1 0
vn 0 1 0
vn 0 1 0
vn 0 1 0
vn 0 1 0
vn 0 1 0
vn 0 1 0
vn 0 1 0
vn 0 1 0
vn 0 1 0
vn 0 1 0
vn 0 1 0
vn 0 1 0
vn 0 1 0
vn 0 1 0
vn 0 1 0
vn 0 1 0
vn 0 1 0
vn 0 1 0
vn 0 1 0
vn 0 1 0
vn 0 1 0
vn 0 1 0
vn 0 1 0
vn 0 1 0
vn 0 1 0
vn 0 1 0
vn 0 1 0
vn 0 1 0
vn 0 1 0
vn 0 1 0
vn 0 1 0
vn 0 1 0
vn 0 1 0
vn 0 1 0
vn 0 1 0
vn 0 1 0
vn 0 1 0
vn 0 1 0
vn 0 1 0
vn 0 1 0
vn 0 1 0
vn 0 1 0
vn 0 1 0
vn 0 1 0
vn 0 1 0
vn 0 1 0
vn 0 1 0
vn 0 1 0
vn 0 1 0
vn 0 1 0
vn 0 1 0
vn 0 1 0
vn 0 1 0
vn 0 1 0
vn 0 1 0
vn 0 1 0
vn 0 1 0
vn 0 1 0
vn 0 1 0
vn 0 1 0
vn 0 1 0
vn 0 1 0
vn 0 1 0
vn 0 1 0
vn 0 1 0
vn 0 1 0
vn 0 1 0
vn 0 1 0
vn 0 1 0
vn 0 1 0
vn 0 1 0
vn 0 1 0
vn 0 1 0
vn 0 1 0
vn 0 1 0
vn 0 1 0
vn 0 1 0
vn 0 1 0
vn 0 1 0
vn 0 1 0
vn 0 1 0
vn 0 1 0
vn 0 1 0
vn 0 1 0
vn 0 1 0
vn 0 1 0
vn 0 1 0
vn 0 1 0
vn 0 1 0
vn 0 1 0
vn 0 1 0
vn 0 1 0
vn 0 1 0
vn 0 1 0
vn 0 1 0
vn 0 1 0
vn 0 1 0
vn 0 1 0
vn 0 1 0
vn 0 1 0
vn 0 1 0
vn 0 1 0
vn 0 1 0
vn 0 1 0
vn 0 1 0
vn 0 1 0
vn 0 1 0
vn 0 1 0
vn 0 1 0
vn 0 1 0
vn 0 1 0
vn 0 1 0
vn 0 1 0
vn 0 1 0
vn 0 1 0
vn 0 1 0
vn 0 1 0
vn 0 1 0
vn 0 1 0
vn 0 1 0
vn 0 1 0
vn 0 1 0
vn 0 1 0
vn 0 1 0
vn 0 1 0
vn 0 1 0
vn 0 1 0
vn 0 1 0
vn 0 1 0
vn 0 1 0
vn 0 1 0
vn 0 1 0
vn 0 1 0
vn 0 1 0
vn 0 1 0
vn 0 1 0
vn 0 1 0
vn 0 1 0
vn 0 1 0
vn 0 1 0
vn 0 1 0
vn 0 1 0
vn 0 1 0
vn 0 1 0
vn 0 1 0
vn 0 1 0
vn 0 1 0
vn 0 1 0
vn 0 1 0
vn 0 1 0
vn 0 1 0
vn 0 1 0
vn 0 1 0
vn 0 1 0
vn 0 1 0
vn 0 1 0
vn 0 1 0
vn 0 1 0
vn 0 1 0
vn 0 1 0
vn 0 1 0
vn 0 1 0
vn 0 1 0
vn 0 1 0
vn 0 1 0
vn 0 1 0
vn 0 1 0
vn 0 1 0
vn 0 1 0
vn 0 1 0
vn 0 1 0
vn 0 1 0
vn 0 1 0
vn 0 1 0
vn 0 1 0
vn 0 1 0
vn 0 1 0
vn 0 1 0
vn 0 1 0
vn 0 1 0
vn 0 1 0
vn 0 1 0
vn 0 1 0
vn 0 1 0
vn 0 1 0
vn 0 1 0
vn 0 1 0
vn 0 1 0
vn 0 1 0
vn 0 1 0
vn 0 1 0
vn 0 1 0
vn 0 1 0
vn 0 1 0
vn 0 1 0
vn 0 1 0
vn 0 1 0
vn 0 1 0
vn 0 1 0
vn 0 1 0
vn 0 1 0
vn 0 1 0
vn 0 1 0
vn 0 1 0
vn 0 1 0
vn 0 1 0
vn 0 1 0
vn 0 1 0
vn 0 1 0
vn 0 1 0
vn 0 1 0
vn 0 1 0
vn 0 1 0
vn 0 1 0
vn 0 1 0
vn 0 1 0
vn 0 1 0
vn 0 1 0
vn 0 1 0
vn 0 1 0
vn 0 1 0
vn 0 1 0
vn 0 1 0
vn 0 1 0
vn 0 1 0
vn 0 1 0
vn 0 1 0
vn 0 1 0
vn 0 1 0
vn 0 1 0
vn 0 1 0
vn 0 1 0
vn 0 1 0
vn 0 1 0
vn 0 1 0
vn 0 1 0
vn 0 1 0
vn 0 1 0
vn 0 1 0
vn 0 1 0
vn 0 1 0
vn 0 1 0
vn 0 1 0
vn 0 1 0
vn 0 1 0
vn 0 1 0
vn 0 1 0
vn 0 1 0
vn 0 1 0
vn 0 1 0
vn 0 1 0
vn 0 1 0
vn 0 1 0
vn 0 1 0
vn 0 1 0
vn 0 1 0
vn 0 1 0
vn 0 1 0
vn 0 1 0
vn 0 1 0
vn 0 1 0
vn 0 1 0
vn 0 1 0
vn 0 1 0
vn 0 1 0
vn 0 1 0
vn 0 1 0
vn 0 1 0
vn 0 1 0
vn 0 1 0
vn 0 1 0
vn 0 1 0
vn 0 1 0
vn 0 1 0
vn 0 1 0
vn 0 1 0
vn 0 1 0
vn 0 1 0
vn 0 1 0
vn 0 1 0
vn 0 1 0
vn 0 1 0
vn 0 1 0
vn 0 1 0
vn 0 1 0
vn 0 1 0
vn 0 1 0
vn 0 1 0
vn 0 1 0
vn 0 1 0
vn 0 1 0
vn 0 1 0
vn 0 1 0
vn 0 1 0
vn 0 1 0
vn 0 1 0
vn 0 1 0
vn 0 1 0
vn 0 1 0
vn 0 1 0
vn 0 1 0
vn 0 1 0
vn 0 1 0
vn 0 1 0
vn 0 1 0
vn 0 1 0
vn 0 1 0
vn 0 1 0
vn 0 1 0
vn 0 1 0
vn 0 1 0
vn 0 1 0
vn 0 1 0
vn 0 1 0
vn 0 1 0
vn 0 1 0
vn 0 1 0
vn 0 1 0
vn 0 1 0
vn 0 1 0
vn 0 1 0
vn 0 1 0
vn 0 1 0
vn 0 1 0
vn 0 1 0
vn 0 1 0
vn 0 1 0
vn 0 1 0
vn 0 1 0
vn 0 1 0
vn 0 1 0
vn 0 1 0
vn 0 1 0
vn 0 1 0
vn 0 1 0
vn 0 1 0
vn 0 1 0
vn 0 1 0
vn 0 1 0
vn 0 1 0
vn 0 1 0
vn 0 1 0
vn 0 1 0
vn 0 1 0
vn 0 1 0
vn 0 1 0
vn 0 1 0
vn 0 1 0
vn 0 1 0
vn 0 1 0
vn 0 1 0
vn 0 1 0
vn 0 1 0
vn 0 1 0
vn 0 1 0
vn 0 1 0
vn 0 1 0
vn 0 1 0
vn 0 1 0
vn 0 1 0
vn 0 1 0
vn 0 1 0
vn 0 1 0
vn 0 1 0
vn 0 1 0
vn 0 1 0
vn 0 1 0
vn 0 1 0
vn 0 1 0
vn 0 1 0
vn 0 1 0
vn 0 1 0
vn 0 1 0
vn 0 1 0
vn 0 1 0
vn 0 1 0
vn 0 1 0
vn 0 1 0
vn 0 1 0
vn 0 1 0
vn 0 1 0
vn 0 1 0
vn 0 1 0
vn 0 1 0
vn 0 1 0
vn 0 1 0
vn 0 1 0
vn 0 1 0
vn 0 1 0
vn 0 1 0
vn 0 1 0
vn 0 1 0
vn 0 1 0
vn 0 1 0
vn 0 1 0
vn 0 1 0
vn 0 1 0
vn 0 1 0
vn 0 1 0
vn 0 1 0
vn 0 1 0
vn 0 1 0
vn 0 1 0
vn 0 1 0
vn 0 1 0
vn 0 1 0
vn 0 1 0
vn 0 1 0
vn 0 1 0
vn 0 1 0
vn 0 1 0
vn 0 1 0
vn 0 1 0
vn 0 1 0
vn 0 1 0
vn 0 1 0
vn 0 1 0
vn 0 1 0
vn 0 1 0
vn 0 1 0
vn 0 1 0
vn 0 1 0
vn 0 1 0
vn 0 1 0
vn 0 1 0
vn 0 1 0
vn 0 1 0
vn 0 1 0
vn 0 1 0
vn 0 1 0
vn 0 1 0
vn 0 1 0
vn 0 1 0
vn 0 1 0
vn 0 1 0
vn 0 1 0
vn 0 1 0
vn 0 1 0
vn 0 1 0
vn 0 1 0
vn 0 1 0
vn 0 1 0
vn 0 1 0
vn 0 1 0
vn 0 1 0
vn 0 1 0
vn 0 1 0
vn 0 1 0
vn 0 1 0
vn 0 1 0
vn 0 1 0
vn 0 1 0
vn 0 1 0
vn 0 1 0
vn 0 1 0
vn 0 1 0
vn 0 1 0
vn 0 1 0
vn 0 1 0
vn 0 1 0
vn 0 1 0
vn 0 1 0
vn 0 1 0
vn 0 1 0
vn 0 1 0
vn 0 1 0
vn 0 1 0
vn 0 1 0
vn 0 1 0
vn 0 1 0
vn 0 1 0
vn 0 1 0
vn 0 1 0
vn 0 1 0
vn 0 1 0
vn 0 1 0
vn 0 1 0
vn 0 1 0
vn 0 1 0
vn 0 1 0
vn 0 1 0
vn 0 1 0
vn 0 1 0
vn 0 1 0
vn 0 1 0
vn 0 1 0
vn 0 1 0
vn 0 1 0
vn 0 1 0
vn 0 1 0
vn 0 1 0
vn 0 1 0
vn 0 1 0
vn 0 1 0
vn 0 1 0
vn 0 1 0
vn 0 1 0
vn 0 1 0
vn 0 1 0
vn 0 1 0
vn 0 1 0
vn 0 1 0
vn 0 1 0
vn 0 1 0
vn 0 1 0
vn 0 1 0
vn 0 1 0
vn 0 1 0
vn 0 1 0
vn 0 1 0
vn 0 1 0
vn 0 1 0
vn 0 1 0
vn 0 1 0
vn 0 1 0
vn 0 1 0
vn 0 1 0
vn 0 1 0
vn 0 1 0
vn 0 1 0
vn 0 1 0
vn 0 1 0
vn 0 1 0
vn 0 1 0
vn 0 1 0
vn 0 1 0
vn 0 1 0
vn 0 1 0
vn 0 1 0
vn 0 1 0
vn 0 1 0
vn 0 1 0
vn 0 1 0
vn 0 1 0
vn 0 1 0
vn 0 1 0
vn 0 1 0
vn 0 1 0
vn 0 1 0
vn 0 1 0
vn 0 1 0
vn 0 1 0
vn 0 1 0
vn 0 1 0
vn 0 1 0
vn 0 1 0
vn 0 1 0
vn 0 1 0
vn 0 1 0
vn 0 1 0
vn 0 1 0
vn 0 1 0
vn 0 1 0
vn 0 1 0
vn 0 1 0
vn 0 1 0
vn 0 1 0
vn 0 1 0
vn 0 1 0
vn 0 1 0
vn 0 1 0
vn 0 1 0
vn 0 1 0
vn 0 1 0
vn 0 1 0
vn 0 1 0
vn 0 1 0
vn 0 1 0
vn 0 1 0
vn 0 1 0
vn 0 1 0
vn 0 1 0
vn 0 1 0
vn 0 1 0
vn 0 1 0
vn 0 1 0
vn 0 1 0
vn 0 1 0
vn 0 1 0
vn 0 1 0
vn 0 1 0
vn 0 1 0
vn 0 1 0
vn 0 1 0
vn 0 1 0
vn 0 1 0
vn 0 1 0
vn 0 1 0
vn 0 1 0
vn 0 1 0
vn 0 1 0
vn 0 1 0
vn 0 1 0
vn 0 1 0
vn 0 1 0
vn 0 1 0
vn 0 1 0
vn 0 1 0
vn 0 1 0
vn 0 1 0
vn 0 1 0
vn 0 1 0
vn 0 1 0
vn 0 1 0
vn 0 1 0
vn 0 1 0
vn 0 1 0
vn 0 1 0
vn 0 1 0
vn 0 1 0
vn 0 1 0
vn 0 1 0
vn 0 1 0
vn 0 1 0
vn 0 1 0
vn 0 1 0
vn 0 1 0
vn 0 1 0
vn 0 1 0
vn 0 1 0
vn 0 1 0
vn 0 1 0
vn 0 1 0
vn 0 1 0
vn 0 1 0
vn 0 1 0
vn 0 1 0
vn 0 1 0
vn 0 1 0
vn 0 1 0
vn 0 1 0
vn 0 1 0
vn 0 1 0
vn 0 1 0
vn 0 1 0
vn 0 1 0
vn 0 1 0
vn 0 1 0
vn 0 1 0
vn 0 1 0
vn 0 1 0
vn 0 1 0
vn 0 1 0
vn 0 1 0
vn 0 1 0
vn 0 1 0
vn 0 1 0
vn 0 1 0
vn 0 1 0
vn 0 1 0
vn 0 1 0
vn 0 1 0
vn 0 1 0
vn 0 1 0
vn 0 1 0
vn 0 1 0
vn 0 1 0
vn 0 1 0
vn 0 1 0
vn 0 1 0
vn 0 1 0
vn 0 1 0
vn 0 1 0
vn 0 1 0
vn 0 1 0
vn 0 1 0
vn 0 1 0
vn 0 1 0
vn 0 1 0
vn 0 1 0
vn 0 1 0
vn 0 1 0
vn 0 1 0
vn 0 1 0
vn 0 1 0
vn 0 1 0
vn 0 1 0
vn 0 1 0
vn 0 1 0
vn 0 1 0
vn 0 1 0
vn 0 1 0
vn 0 1 0
vn 0 1 0
vn 0 1 0
vn 0 1 0
vn 0 1 0
vn 0 1 0
vn 0 1 0
vn 0 1 0
vn 0 1 0
vn 0 1 0
vn 0 1 0
vn 0 1 0
vn 0 1 0
vn 0 1 0
vn 0 1 0
vn 0 1 0
vn 0 1 0
vn 0 1 0
vn 0 1 0
vn 0 1 0
vn 0 1 0
vn 0 1 0
vn 0 1 0
vn 0 1 0
vn 0 1 0
vn 0 1 0
vn 0 1 0
vn 0 1 0
vn 0 1 0
vn 0 1 0
vn 0 1 0
vn 0 1 0
vn 0 1 0
vn 0 1 0
vn 0 1 0
vn 0 1 0
vn 0 1 0
vn 0 1 0
vn 0 1 0
vn 0 1 0
vn 0 1 0
vn 0 1 0
vn 0 1 0
vn 0 1 0
vn 0 1 0
vn 0 1 0
vn 0 1 0
vn 0 1 0
vn 0 1 0
vn 0 1 0
vn 0 1 0
vn 0 1 0
vn 0 1 0
vn 0 1 0
vn 0 1 0
vn 0 1 0
vn 0 1 0
vn 0 1 0
vn 0 1 0
vn 0 1 0
vn 0 1 0
vn 0 1 0
vn 0 1 0
vn 0 1 0
vn 0 1 0
vn 0 1 0
vn 0 1 0
vn 0 1 0
vn 0 1 0
vn 0 1 0
vn 0 1 0
vn 0 1 0
vn 0 1 0
vn 0 1 0
vn 0 1 0
vn 0 1 0
vn 0 1 0
vn 0 1 0
vn 0 1 0
vn 0 1 0
vn 0 1 0
vn 0 1 0
vn 0 1 0
vn 0 1 0
vn 0 1 0
vn 0 1 0
vn 0 1 0
vn 0 1 0
vn 0 1 0
vn 0 1 0
vn 0 1 0
vn 0 1 0
vn 0 1 0
vn 0 1 0
vn 0 1 0
vn 0 1 0
vn 0 1 0
vn 0 1 0
vn 0 1 0
vn 0 1 0
vn 0 1 0
vn 0 1 0
vn 0 1 0
vn 0 1 0
vn 0 1 0
vn 0 1 0
vn 0 1 0
vn 0 1 0
vn 0 1 0
vn 0 1 0
vn 0 1 0
vn 0 1 0
vn 0 1 0
vn 0 1 0
vn 0 1 0
vn 0 1 0
vn 0 1 0
vn 0 1 0
vn 0 1 0
vn 0 1 0
vn 0 1 0
vn 0 1 0
vn 0 1 0
vn 0 1 0
vn 0 1 0
vn 0 1 0
vn 0 1 0
vn 0 1 0
vn 0 1 0
vn 0 1 0
vn 0 1 0
vn 0 1 0
vn 0 1 0
vn 0 1 0
vn 0 1 0
vn 0 1 0
vn 0 1 0
vn 0 1 0
vn 0 1 0
vn 0 1 0
vn 0 1 0
vn 0 1 0
vn 0 1 0
vn 0 1 0
vn 0 1 0
vn 0 1 0
vn 0 1 0
vn 0 1 0
vn 0 1 0
vn 0 1 0
vn 0 1 0
vn 0 1 0
vn 0 1 0
vn 0 1 0
vn 0 1 0
vn 0 1 0
vn 0 1 0
vn 0 1 0
vn 0 1 0
vn 0 1 0
vn 0 1 0
vn 0 1 0
vn 0 1 0
vn 0 1 0
vn 0 1 0
vn 0 1 0
vn 0 1 0
vn 0 1 0
vn 0 1 0
vn 0 1 0
vn 0 1 0
vn 0 1 0
vn 0 1 0
vn 0 1 0
vn 0 1 0
vn 0 1 0
vn 0 1 0
vn 0 1 0
vn 0 1 0
vn 0 1 0
vn 0 1 0
vn 0 1 0
vn 0 1 0
vn 0 1 0
vn 0 1 0
vn 0 1 0
vn 0 1 0
vn 0 1 0
vn 0 1 0
vn 0 1 0
vn 0 1 0
vn 0 1 0
vn 0 1 0
vn 0 1 0
vn 0 1 0
vn 0 1 0
vn 0 1 0
vn 0 1 0
vn 0 1 0
vn 0 1 0
vn 0 1 0
vn 0 1 0
vn 0 1 0
vn 0 1 0
vn 0 1 0
vn 0 1 0
vn 0 1 0
vn 0 1 0
vn 0 1 0
vn 0 1 0
vn 0 1 0
vn 0 1 0
vn 0 1 0
vn 0 1 0
vn 0 1 0
vn 0 1 0
vn 0 1 0
vn 0 1 0
vn 0 1 0
vn 0 1 0
vn 0 1 0
vn 0 1 0
vn 0 1 0
vn 0 1 0
vn 0 1 0
vn 0 1 0
vn 0 1 0
vn 0 1 0
vn 0 1 0
vn 0 1 0
vn 0 1 0
vn 0 1 0
vn 0 1 0
vn 0 1 0
vn 0 1 0
vn 0 1 0
vn 0 1 0
vn 0 1 0
vn 0 1 0
vn 0 1 0
vn 0 1 0
vn 0 1 0
vn 0 1 0
vn 0 1 0
vn 0 1 0
vn 0 1 0
vn 0 1 0
vn 0 1 0
vn 0 1 0
vn 0 1 0
vn 0 1 0
vn 0 1 0
vn 0 1 0
vn 0 1 0
vn 0 1 0
vn 0 1 0
vn 0 1 0
vn 0 1 0
vn 0 1 0
vn 0 1 0
vn 0 1 0
vn 0 1 0
vn 0 1 0
vn 0 1 0
vn 0 1 0
vn 0 1 0
vn 0 1 0
vn 0 1 0
vn 0 1 0
vn 0 1 0
vn 0 1 0
vn 0 1 0
vn 0 1 0
vn 0 1 0
vn 0 1 0
vn 0 1 0
vn 0 1 0
vn 0 1 0
vn 0 1 0
vn 0 1 0
vn 0 1 0
vn 0 1 0
vn 0 1 0
vn 0 1 0
vn 0 1 0
vn 0 1 0
vn 0 1 0
vn 0 1 0
vn 0 1 0
vn 0 1 0
vn 0 1 0
vn 0 1 0
vn 0 1 0
vn 0 1 0
vn 0 1 0
vn 0 1 0
vn 0 1 0
vn 0 1 0
vn 0 1 0
vn 0 1 0
vn 0 1 0
vn 0 1 0
vn 0 1 0
vn 0 1 0
vn 0 1 0
vn 0 1 0
vn 0 1 0
vn 0 1 0
vn 0 1 0
vn 0 1 0
vn 0 1 0
vn 0 1 0
vn 0 1 0
vn 0 1 0
vn 0 1 0
vn 0 1 0
vn 0 1 0
vn 0 1 0
vn 0 1 0
vn 0 1 0
vn 0 1 0
vn 0 1 0
vn 0 1 0
vn 0 1 0
vn 0 1 0
vn 0 1 0
vn 0 1 0
vn 0 1 0
vn 0 1 0
vn 0 1 0
vn 0 1 0
vn 0 1 0
vn 0 1 0
vn 0 1 0
vn 0 1 0
vn 0 1 0
vn 0 1 0
vn 0 1 0
vn 0 1 0
vn 0 1 0
vn 0 1 0
vn 0 1 0
vn 0 1 0
vn 0 1 0
vn 0 1 0
vn 0 1 0
vn 0 1 0
vn 0 1 0
vn 0 1 0
vn 0 1 0
vn 0 1 0
vn 0 1 0
vn 0 1 0
vn 0 1 0
vn 0 1 0
vn 0 1 0
vn 0 1 0
vn 0 1 0
vn 0 1 0
vn 0 1 0
vn 0 1 0
vn 0 1 0
vn 0 1 0
vn 0 1 0
vn 0 1 0
vn 0 1 0
vn 0 1 0
vn 0 1 0
vn 0 1 0
vn 0 1 0
vn 0 1 0
vn 0 1 0
vn 0 1 0
vn 0 1 0
vn 0 1 0
vn 0 1 0
vn 0 1 0
vn 0 1 0
vn 0 1 0
vn 0 1 0
vn 0 1 0
vn 0 1 0
vn 0 1 0
vn 0 1 0
vn 0 1 0
vn 0 1 0
vn 0 1 0
vn 0 1 0
vn 0 1 0
vn 0 1 0
vn 0 1 0
vn 0 1 0
vn 0 1 0
vn 0 1 0
vn 0 1 0
vn 0 1 0
vn 0 1 0
vn 0 1 0
vn 0 1 0
vn 0 1 0
vn 0 1 0
vn 0 1 0
vn 0 1 0
vn 0 1 0
vn 0 1 0
vn 0 1 0
vn 0 1 0
vn 0 1 0
vn 0 1 0
vn 0 1 0
vn 0 1 0
vn 0 1 0
vn 0 1 0
vn 0 1 0
vn 0 1 0
vn 0 1 0
vn 0 1 0
vn 0 1 0
vn 0 1 0
vn 0 1 0
vn 0 1 0
vn 0 1 0
vn 0 1 0
vn 0 1 0
vn 0 1 0
vn 0 1 0
vn 0 1 0
vn 0 1 0
vn 0 1 0
vn 0 1 0
vn 0 1 0
vn 0 1 0
vn 0 1 0
vn 0 1 0
vn 0 1 0
vn 0 1 0
vn 0 1 0
vn 0 1 0
vn 0 1 0
vn 0 1 0
vn 0 1 0
vn 0 1 0
vn 0 1 0
vn 0 1 0
vn 0 1 0
vn 0 1 0
vn 0 1 0
vn 0 1 0
vn 0 1 0
vn 0 1 0
vn 0 1 0
vn 0 1 0
vn 0 1 0
vn 0 1 0
vn 0 1 0
vn 0 1 0
vn 0 1 0
vn 0 1 0
vn 0 1 0
vn 0 1 0
vn 0 1 0
vn 0 1 0
vn 0 1 0
vn 0 1 0
vn 0 1 0
vn 0 1 0
vn 0 1 0
vn 0 1 0
vn 0 1 0
vn 0 1 0
vn 0 1 0
vn 0 1 0
vn 0 1 0
vn 0 1 0
vn 0 1 0
vn 0 1 0
vn 0 1 0
vn 0 1 0
vn 0 1 0
vn 0 1 0
vn 0 1 0
vn 0 1 0
vn 0 1 0
vn 0 1 0
vn 0 1 0
vn 0 1 0
vn 0 1 0
vn 0 1 0
vn 0 1 0
vn 0 1 0
vn 0 1 0
vn 0 1 0
vn 0 1 0
vn 0 1 0
vn 0 1 0
vn 0 1 0
vn 0 1 0
vn 0 1 0
vn 0 1 0
vn 0 1 0
vn 0 1 0
vn 0 1 0
vn 0 1 0
vn 0 1 0
vn 0 1 0
f 0 1/1/1 2/2/2
f 0 2/2/2 3/3/3
f 4/4/4 5/5/5 6/6/6
f 4/4/4 6/6/6 7/7/7
f 8/8/8 9/9/9 10/10/10
f 8/8/8 10/10/10 11/11/11
f 12/12/12 13/13/13 14/14/14
f 12/12/12 14/14/14 15/15/15
f 16/16/16 17/17/17 18/18/18
f 16/16/16 18/18/18 19/19/19
f 20/20/20 21/21/21 22/22/22
f 20/20/20 22/22/22 23/23/23
f 24/24/24 25/25/25 26/26/26
f 24/24/24 26/26/26 27/27/27
f 28/28/28 29/29/29 30/30/30
f 28/28/28 30/30/30 31/31/31
f 32/32/32 33/33/33 34/34/34
f 32/32/32 34/34/34 35/35/35
f 36/36/36 37/37/37 38/38/38
f 36/36/36 38/38/38 39/39/39
f 40/40/40 41/41/41 42/42/42
f 40/40/40 42/42/42 43/43/43
f 44/44/44 45/45/45 46/46/46
f 44/44/44 46/46/46 47/47/47
f 48/48/48 49/49/49 50/50/50
f 48/48/48 50/50/50 51/51/51
f 52/52/52 53/53/53 54/54/54
f 52/52/52 54/54/54 55/55/55
f 56/56/56 57/57/57 58/58/58
f 56/56/56 58/58/58 59/59/59
f 60/60/60 61/61/61 62/62/62
f 60/60/60 62/62/62 63/63/63
f 64/64/64 65/65/65 66/66/66
f 64/64/64 66/66/66 67/67/67
f 68/68/68 69/69/69 70/70/70
f 68/68/68 70/70/70 71/71/71
f 72/72/72 73/73/73 74/74/74
f 72/72/72 74/74/74 75/75/75
f 76/76/76 77/77/77 78/78/78
f 76/76/76 78/78/78 79/79/79
f 80/80/80 81/81/81 82/82/82
f 80/80/80 82/82/82 83/83/83
f 84/84/84 85/85/85 86/86/86
f 84/84/84 86/86/86 87/87/87
f 88/88/88 89/89/89 90/90/90
f 88/88/88 90/90/90 91/91/91
f 92/92/92 93/93/93 94/94/94
f 92/92/92 94/94/94 95/95/95
f 96/96/96 97/97/97 98/98/98
f 96/96/96 98/98/98 99/99/99
f 100/100/100 101/101/101 102/102/102
f 100/100/100 102/102/102 103/103/103
f 104/104/104 105/105/105 106/106/106
f 104/104/104 106/106/106 107/107/107
f 108/108/108 109/109/109 110/110/110
f 108/108/108 110/110/110 111/111/111
f 112/112/112 113/113/113 114/114/114
f 112/112/112 114/114/114 115/115/115
f 116/116/116 117/117/117 118/118/118
f 116/116/116 118/118/118 119/119/119
f 120/120/120 121/121/121 122/122/122
f 120/120/120 122/122/122 123/123/123
f 124/124/124 125/125/125 126/126/126
f 124/124/124 126/126/126 127/127/127
f 128/128/128 129/129/129 130/130/130
f 128/128/128 130/130/130 131/131/131
f 132/132/132 133/133/133 134/134/134
f 132/132/132 134/134/134 135/135/135
f 136/136/136 137/137/137 138/138/138
f 136/136/136 138/138/138 139/139/139
f 140/140/140 141/141/141 142/142/142
f 140/140/140 142/142/142 143/143/143
f 144/144/144 145/145/145 146/146/146
f 144/144/144 146/146/146 147/147/147
f 148/148/148 149/149/149 150/150/150
f 148/148/148 150/150/150 151/151/151
f 152/152/152 153/153/153 154/154/154
f 152/152/152 154/154/154 155/155/155
f 156/156/156 157/157/157 158/158/158
f 156/156/156 158/158/158 159/159/159
f 160/160/160 161/161/161 162/162/162
f 160/160/160 162/162/162 163/163/163
f 164/164/164 165/165/165 166/166/166
f 164/164/164 166/166/166 167/167/167
f 168/168/168 169/169/169 170/170/170
f 168/168/168 170/170/170 171/171/171
f 172/172/172 173/173/173 174/174/174
f 172/172/172 174/174/174 175/175/175
f 176/176/176 177/177/177 178/178/178
f 176/176/176 178/178/178 179/179/179
f 180/180/180 181/181/181 182/182/182
f 180/180/180 182/182/182 183/183/183
f 184/184/184 185/185/185 186/186/186
f 184/184/184 186/186/186 187/187/187
f 188/188/188 189/189/189 190/190/190
f 188/188/188 190/190/190 191/191/191
f 192/192/192 193/193/193 194/194/194
f 192/192/192 194/194/194 195/195/195
f 196/196/196 197/197/197 198/198/198
f 196/196/196 198/198/198 199/199/199
f 200/200/200 201/201/201 202/202/202
f 200/200/200 202/202/202 203/203/203
f 204/204/204 205/205/205 206/206/206
f 204/204/204 206/206/206 207/207/207
f 208/208/208 209/209/209 210/210/210
f 208/208/208 210/210/210 211/211/211
f 212/212/212 213/213/213 214/214/214
f 212/212/212 214/214/214 215/215/215
f 216/216/216 217/217/217 218/218/218
f 216/216/216 218/218/218 219/219/219
f 220/220/220 221/221/221 222/222/222
f 220/220/220 222/222/222 223/223/223
f 224/224/224 225/225/225 226/226/226
f 224/224/224 226/226/226 227/227/227
f 228/228/228 229/229/229 230/230/230
f 228/228/228 230/230/230 231/231/231
f 232/232/232 233/233/233 234/234/234
f 232/232/232 234/234/234 235/235/235
f 236/236/236 237/237/237 238/238/238
f 236/236/236 238/238/238 239/239/239
f 240/240/240 241/241/241 242/242/242
f 240/240/240 242/242/242 243/243/243
f 244/244/244 245/245/245 246/246/246
f 244/244/244 246/246/246 247/247/247
f 248/248/248 249/249/249 250/250/250
f 248/248/248 250/250/250 251/251/251
f 252/252/252 253/253/253 254/254/254
f 252/252/252 254/254/254 255/255/255
f 256/256/256 257/257/257 258/258/258
f 256/256/256 258/258/258 259/259/259
f 260/260/260 261/261/261 262/262/262
f 260/260/260 262/262/262 263/263/263
f 264/264/264 265/265/265 266/266/266
f 264/264/264 266/266/266 267/267/267
f 268/268/268 269/269/269 270/270/270
f 268/268/268 270/270/270 271/271/271
f 272/272/272 273/273/273 274/274/274
f 272/272/272 274/274/274 275/275/275
f 276/276/276 277/277/277 278/278/278
f 276/276/276 278/278/278 279/279/279
f 280/280/280 281/281/281 282/282/282
f 280/280/280 282/282/282 283/283/283
f 284/284/284 285/285/285 286/286/286
f 284/284/284 286/286/286 287/287/287
f 288/288/288 289/289/289 290/290/290
f 288/288/288 290/290/290 291/291/291
f 292/292/292 293/293/293 294/294/294
f 292/292/292 294/294/294 295/295/295
f 296/296/296 297/297/297 298/298/298
f 296/296/296 298/298/298 299/299/299
f 300/300/300 301/301/301 302/302/302
f 300/300/300 302/302/302 303/303/303
f 304/304/304 305/305/305 306/306/306
f 304/304/304 306/306/306 307/307/307
f 308/308/308 309/309/309 310/310/310
f 308/308/308 310/310/310 311/311/311
f 312/312/312 313/313/313 314/314/314
f 312/312/312 314/314/314 315/315/315
f 316/316/316 317/317/317 318/318/318
f 316/316/316 318/318/318 319/319/319
f 320/320/320 321/321/321 322/322/322
f 320/320/320 322/322/322 323/323/323
f 324/324/324 325/325/325 326/326/326
f 324/324/324 326/326/326 327/327/327
f 328/328/328 329/329/329 330/330/330
f 328/328/328 330/330/330 331/331/331
f 332/332/332 333/333/333 334/334/334
f 332/332/332 334/334/334 335/335/335
f 336/336/336 337/337/337 338/338/338
f 336/336/336 338/338/338 339/339/339
f 340/340/340 341/341/341 342/342/342
f 340/340/340 342/342/342 343/343/343
f 344/344/344 345/345/345 346/346/346
f 344/344/344 346/346/346 347/347/347
f 348/348/348 349/349/349 350/350/350
f 348/348/348 350/350/350 351/351/351
f 352/352/352 353/353/353 354/354/354
f 352/352/352 354/354/354 355/355/355
f 356/356/356 357/357/357 358/358/358
f 356/356/356 358/358/358 359/359/359
f 360/360/360 361/361/361 362/362/362
f 360/360/360 362/362/362 363/363/363
f 364/364/364 365/365/365 366/366/366
f 364/364/364 366/366/366 367/367/367
f 368/368/368 369/369/369 370/370/370
f 368/368/368 370/370/370 371/371/371
f 372/372/372 373/373/373 374/374/374
f 372/372/372 374/374/374 375/375/375
f 376/376/376 377/377/377 378/378/378
f 376/376/376 378/378/378 379/379/379
f 380/380/380 381/381/381 382/382/382
f 380/380/380 382/382/382 383/383/383
f 384/384/384 385/385/385 386/386/386
f 384/384/384 386/386/386 387/387/387
f 388/388/388 389/389/389 390/390/390
f 388/388/388 390/390/390 391/391/391
f 392/392/392 393/393/393 394/394/394
f 392/392/392 394/394/394 395/395/395
f 396/396/396 397/397/397 398/398/398
f 396/396/396 398/398/398 399/399/399
f 400/400/400 401/401/401 402/402/402
f 400/400/400 402/402/402 403/403/403
f 404/404/404 405/405/405 406/406/406
f 404/404/404 406/406/406 407/407/407
f 408/408/408 409/409/409 410/410/410
f 408/408/408 410/410/410 411/411/411
f 412/412/412 413/413/413 414/414/414
f 412/412/412 414/414/414 415/415/415
f 416/416/416 417/417/417 418/418/418
f 416/416/416 418/418/418 419/419/419
f 420/420/420 421/421/421 422/422/422
f 420/420/420 422/422/422 423/423/423
f 424/424/424 425/425/425 426/426/426
f 424/424/424 426/426/426 427/427/427
f 428/428/428 429/429/429 430/430/430
f 428/428/428 430/430/430 431/431/431
f 432/432/432 433/433/433 434/434/434
f 432/432/432 434/434/434 435/435/435
f 436/436/436 437/437/437 438/438/438
f 436/436/436 438/438/438 439/439/439
f 440/440/440 441/441/441 442/442/442
f 440/440/440 442/442/442 443/443/443
f 444/444/444 445/445/445 446/446/446
f 444/444/444 446/446/446 447/447/447
f 448/448/448 449/449/449 450/450/450
f 448/448/448 450/450/450 451/451/451
f 452/452/452 453/453/453 454/454/454
f 452/452/452 454/454/454 455/455/455
f 456/456/456 457/457/457 458/458/458
f 456/456/456 458/458/458 459/459/459
f 460/460/460 461/461/461 462/462/462
f 460/460/460 462/462/462 463/463/463
f 464/464/464 465/465/465 466/466/466
f 464/464/464 466/466/466 467/467/467
f 468/468/468 469/469/469 470/470/470
f 468/468/468 470/470/470 471/471/471
f 472/472/472 473/473/473 474/474/474
f 472/472/472 474/474/474 475/475/475
f 476/476/476 477/477/477 478/478/478
f 476/476/476 478/478/478 479/479/479
f 480/480/480 481/481/481 482/482/482
f 480/480/480 482/482/482 483/483/483
f 484/484/484 485/485/485 486/486/486
f 484/484/484 486/486/486 487/487/487
f 488/488/488 489/489/489 490/490/490
f 488/488/488 490/490/490 491/491/491
f 492/492/492 493/493/493 494/494/494
f 492/492/492 494/494/494 495/495/495
f 496/496/496 497/497/497 498/498/498
f 496/496/496 498/498/498 499/499/499
f 500/500/500 501/501/501 502/502/502
f 500/500/500 502/502/502 503/503/503
f 504/504/504 505/505/505 506/506/506
f 504/504/504 506/506/506 507/507/507
f 508/508/508 509/509/509 510/510/510
f 508/508/508 510/510/510 511/511/511
f 512/512/512 513/513/513 514/514/514
f 512/512/512 514/514/514 515/515/515
f 516/516/516 517/517/517 518/518/518
f 516/516/516 518/518/518 519/519/519
f 520/520/520 521/521/521 522/522/522
f 520/520/520 522/522/522 523/523/523
f 524/524/524 525/525/525 526/526/526
f 524/524/524 526/526/526 527/527/527
f 528/528/528 529/529/529 530/530/530
f 528/528/528 530/530/530 531/531/531
f 532/532/532 533/533/533 534/534/534
f 532/532/532 534/534/534 535/535/535
f 536/536/536 537/537/537 538/538/538
f 536/536/536 538/538/538 539/539/539
f 540/540/540 541/541/541 542/542/542
f 540/540/540 542/542/542 543/543/543
f 544/544/544 545/545/545 546/546/546
f 544/544/544 546/546/546 547/547/547
f 548/548/548 549/549/549 550/550/550
f 548/548/548 550/550/550 551/551/551
f 552/552/552 553/553/553 554/554/554
f 552/552/552 554/554/554 555/555/555
f 556/556/556 557/557/557 558/558/558
f 556/556/556 558/558/558 559/559/559
f 560/560/560 561/561/561 562/562/562
f 560/560/560 562/562/562 563/563/563
f 564/564/564 565/565/565 566/566/566
f 564/564/564 566/566/566 567/567/567
f 568/568/568 569/569/569 570/570/570
f 568/568/568 570/570/570 571/571/571
f 572/572/572 573/573/573 574/574/574
f 572/572/572 574/574/574 575/575/575
f 576/576/576 577/577/577 578/578/578
f 576/576/576 578/578/578 579/579/579
f 580/580/580 581/581/581 582/582/582
f 580/580/580 582/582/582 583/583/583
f 584/584/584 585/585/585 586/586/586
f 584/584/584 586/586/586 587/587/587
f 588/588/588 589/589/589 590/590/590
f 588/588/588 590/590/590 591/591/591
f 592/592/592 593/593/593 594/594/594
f 592/592/592 594/594/594 595/595/595
f 596/596/596 597/597/597 598/598/598
f 596/596/596 598/598/598 599/599/599
f 600/600/600 601/601/601 602/602/602
f 600/600/600 602/602/602 603/603/603
f 604/604/604 605/605/605 606/606/606
f 604/604/604 606/606/606 607/607/607
f 608/608/608 609/609/609 610/610/610
f 608/608/608 610/610/610 611/611/611
f 612/612/612 613/613/613 614/614/614
f 612/612/612 614/614/614 615/615/615
f 616/616/616 617/617/617 618/618/618
f 616/616/616 618/618/618 619/619/619
f 620/620/620 621/621/621 622/622/622
f 620/620/620 622/622/622 623/623/623
f 624/624/624 625/625/625 626/626/626
f 624/624/624 626/626/626 627/627/627
f 628/628/628 629/629/629 630/630/630
f 628/628/628 630/630/630 631/631/631
f 632/632/632 633/633/633 634/634/634
f 632/632/632 634/634/634 635/635/635
f 636/636/636 637/637/637 638/638/638
f 636/636/636 638/638/638 639/639/639
f 640/640/640 641/641/641 642/642/642
f 640/640/640 642/642/642 643/643/643
f 644/644/644 645/645/645 646/646/646
f 644/644/644 646/646/646 647/647/647
f 648/648/648 649/649/649 650/650/650
f 648/648/648 650/650/650 651/651/651
f 652/652/652 653/653/653 654/654/654
f 652/652/652 654/654/654 655/655/655
f 656/656/656 657/657/657 658/658/658
f 656/656/656 658/658/658 659/659/659
f 660/660/660 661/661/661 662/662/662
f 660/660/660 662/662/662 663/663/663
f 664/664/664 665/665/665 666/666/666
f 664/664/664 666/666/666 667/667/667
f 668/668/668 669/669/669 670/670/670
f 668/668/668 670/670/670 671/671/671
f 672/672/672 673/673/673 674/674/674
f 672/672/672 674/674/674 675/675/675
f 676/676/676 677/677/677 678/678/678
f 676/676/676 678/678/678 679/679/679
f 680/680/680 681/681/681 682/682/682
f 680/680/680 682/682/682 683/683/683
f 684/684/684 685/685/685 686/686/686
f 684/684/684 686/686/686 687/687/687
f 688/688/688 689/689/689 690/690/690
f 688/688/688 690/690/690 691/691/691
f 692/692/692 693/693/693 694/694/694
f 692/692/692 694/694/694 695/695/695
f 696/696/696 697/697/697 698/698/698
f 696/696/696 698/698/698 699/699/699
f 700/700/700 701/701/701 702/702/702
f 700/700/700 702/702/702 703/703/703
f 704/704/704 705/705/705 706/706/706
f 704/704/704 706/706/706 707/707/707
f 708/708/708 709/709/709 710/710/710
f 708/708/708 710/710/710 711/711/711
f 712/712/712 713/713/713 714/714/714
f 712/712/712 714/714/714 715/715/715
f 716/716/716 717/717/717 718/718/718
f 716/716/716 718/718/718 719/719/719
f 720/720/720 721/721/721 722/722/722
f 720/720/720 722/722/722 723/723/723
f 724/724/724 725/725/725 726/726/726
f 724/724/724 726/726/726 727/727/727
f 728/728/728 729/729/729 730/730/730
f 728/728/728 730/730/730 731/731/731
f 732/732/732 733/733/733 734/734/734
f 732/732/732 734/734/734 735/735/735
f 736/736/736 737/737/737 738/738/738
f 736/736/736 738/738/738 739/739/739
f 740/740/740 741/741/741 742/742/742
f 740/740/740 742/742/742 743/743/743
f 744/744/744 745/745/745 746/746/746
f 744/744/744 746/746/746 747/747/747
f 748/748/748 749/749/749 750/750/750
f 748/748/748 750/750/750 751/751/751
f 752/752/752 753/753/753 754/754/754
f 752/752/752 754/754/754 755/755/755
f 756/756/756 757/757/757 758/758/758
f 756/756/756 758/758/758 759/759/759
f 760/760/760 761/761/761 762/762/762
f 760/760/760 762/762/762 763/763/763
f 764/764/764 765/765/765 766/766/766
f 764/764/764 766/766/766 767/767/767
f 768/768/768 769/769/769 770/770/770
f 768/768/768 770/770/770 771/771/771
f 772/772/772 773/773/773 774/774/774
f 772/772/772 774/774/774 775/775/775
f 776/776/776 777/777/777 778/778/778
f 776/776/776 778/778/778 779/779/779
f 780/780/780 781/781/781 782/782/782
f 780/780/780 782/782/782 783/783/783
f 784/784/784 785/785/785 786/786/786
f 784/784/784 786/786/786 787/787/787
f 788/788/788 789/789/789 790/790/790
f 788/788/788 790/790/790 791/791/791
f 792/792/792 793/793/793 794/794/794
f 792/792/792 794/794/794 795/795/795
f 796/796/796 797/797/797 798/798/798
f 796/796/796 798/798/798 799/799/799
f 800/800/800 801/801/801 802/802/802
f 800/800/800 802/802/802 803/803/803
f 804/804/804 805/805/805 806/806/806
f 804/804/804 806/806/806 807/807/807
f 808/808/808 809/809/809 810/810/810
f 808/808/808 810/810/810 811/811/811
f 812/812/812 813/813/813 814/814/814
f 812/812/812 814/814/814 815/815/815
f 816/816/816 817/817/817 818/818/818
f 816/816/816 818/818/818 819/819/819
f 820/820/820 821/821/821 822/822/822
f 820/820/820 822/822/822 823/823/823
f 824/824/824 825/825/825 826/826/826
f 824/824/824 826/826/826 827/827/827
f 828/828/828 829/829/829 830/830/830
f 828/828/828 830/830/830 831/831/831
f 832/832/832 833/833/833 834/834/834
f 832/832/832 834/834/834 835/835/835
f 836/836/836 837/837/837 838/838/838
f 836/836/836 838/838/838 839/839/839
f 840/840/840 841/841/841 842/842/842
f 840/840/840 842/842/842 843/843/843
f 844/844/844 845/845/845 846/846/846
f 844/844/844 846/846/846 847/847/847
f 848/848/848 849/849/849 850/850/850
f 848/848/848 850/850/850 851/851/851
f 852/852/852 853/853/853 854/854/854
f 852/852/852 854/854/854 855/855/855
f 856/856/856 857/857/857 858/858/858
f 856/856/856 858/858/858 859/859/859
f 860/860/860 861/861/861 862/862/862
f 860/860/860 862/862/862 863/863/863
f 864/864/864 865/865/865 866/866/866
f 864/864/864 866/866/866 867/867/867
f 868/868/868 869/869/869 870/870/870
f 868/868/868 870/870/870 871/871/871
f 872/872/872 873/873/873 874/874/874
f 872/872/872 874/874/874 875/875/875
f 876/876/876 877/877/877 878/878/878
f 876/876/876 878/878/878 879/879/879
f 880/880/880 881/881/881 882/882/882
f 880/880/880 882/882/882 883/883/883
f 884/884/884 885/885/885 886/886/886
f 884/884/884 886/886/886 887/887/887
f 888/888/888 889/889/889 890/890/890
f 888/888/888 890/890/890 891/891/891
f 892/892/892 893/893/893 894/894/894
f 892/892/892 894/894/894 895/895/895
f 896/896/896 897/897/897 898/898/898
f 896/896/896 898/898/898 899/899/899
f 900/900/900 901/901/901 902/902/902
f 900/900/900 902/902/902 903/903/903
f 904/904/904 905/905/905 906/906/906
f 904/904/904 906/906/906 907/907/907
f 908/908/908 909/909/909 910/910/910
f 908/908/908 910/910/910 911/911/911
f 912/912/912 913/913/913 914/914/914
f 912/912/912 914/914/914 915/915/915
f 916/916/916 917/917/917 918/918/918
f 916/916/916 918/918/918 919/919/919
f 920/920/920 921/921/921 922/922/922
f 920/920/920 922/922/922 923/923/923
f 924/924/924 925/925/925 926/926/926
f 924/924/924 926/926/926 927/927/927
f 928/928/928 929/929/929 930/930/930
f 928/928/928 930/930/930 931/931/931
f 932/932/932 933/933/933 934/934/934
f 932/932/932 934/934/934 935/935/935
f 936/936/936 937/937/937 938/938/938
f 936/936/936 938/938/938 939/939/939
f 940/940/940 941/941/941 942/942/942
f 940/940/940 942/942/942 943/943/943
f 944/944/944 945/945/945 946/946/946
f 944/944/944 946/946/946 947/947/947
f 948/948/948 949/949/949 950/950/950
f 948/948/948 950/950/950 951/951/951
f 952/952/952 953/953/953 954/954/954
f 952/952/952 954/954/954 955/955/955
f 956/956/956 957/957/957 958/958/958
f 956/956/956 958/958/958 959/959/959
f 960/960/960 961/961/961 962/962/962
f 960/960/960 962/962/962 963/963/963
f 964/964/964 965/965/965 966/966/966
f 964/964/964 966/966/966 967/967/967
f 968/968/968 969/969/969 970/970/970
f 968/968/968 970/970/970 971/971/971
f 972/972/972 973/973/973 974/974/974
f 972/972/972 974/974/974 975/975/975
f 976/976/976 977/977/977 978/978/978
f 976/976/976 978/978/978 979/979/979
f 980/980/980 981/981/981 982/982/982
f 980/980/980 982/982/982 983/983/983
f 984/984/984 985/985/985 986/986/986
f 984/984/984 986/986/986 987/987/987
f 988/988/988 989/989/989 990/990/990
f 988/988/988 990/990/990 991/991/991
f 992/992/992 993/993/993 994/994/994
f 992/992/992 994/994/994 995/995/995
f 996/996/996 997/997/997 998/998/998
f 996/996/996 998/998/998 999/999/999
f 1000/1000/1000 1001/1001/1001 1002/1002/1002
f 1000/1000/1000 1002/1002/1002 1003/1003/1003
f 1004/1004/1004 1005/1005/1005 1006/1006/1006
f 1004/1004/1004 1006/1006/1006 1007/1007/1007
f 1008/1008/1008 1009/1009/1009 1010/1010/1010
f 1008/1008/1008 1010/1010/1010 1011/1011/1011
f 1012/1012/1012 1013/1013/1013 1014/1014/1014
f 1012/1012/1012 1014/1014/1014 1015/1015/1015
f 1016/1016/1016 1017/1017/1017 1018/1018/1018
f 1016/1016/1016 1018/1018/1018 1019/1019/1019
f 1020/1020/1020 1021/1021/1021 1022/1022/1022
f 1020/1020/1020 1022/1022/1022 1023/1023/1023
f 1024/1024/1024 1025/1025/1025 1026/1026/1026
f 1024/1024/1024 1026/1026/1026 1027/1027/1027
f 1028/1028/1028 1029/1029/1029 1030/1030/1030
f 1028/1028/1028 1030/1030/1030 1031/1031/1031
f 1032/1032/1032 1033/1033/1033 1034/1034/1034
f 1032/1032/1032 1034/1034/1034 1035/1035/1035
f 1036/1036/1036 1037/1037/1037 1038/1038/1038
f 1036/1036/1036 1038/1038/1038 1039/1039/1039
f 1040/1040/1040 1041/1041/1041 1042/1042/1042
f 1040/1040/1040 1042/1042/1042 1043/1043/1043
f 1044/1044/1044 1045/1045/1045 1046/1046/1046
f 1044/1044/1044 1046/1046/1046 1047/1047/1047
f 1048/1048/1048 1049/1049/1049 1050/1050/1050
f 1048/1048/1048 1050/1050/1050 1051/1051/1051
f 1052/1052/1052 1053/1053/1053 1054/1054/1054
f 1052/1052/1052 1054/1054/1054 1055/1055/1055
f 1056/1056/1056 1057/1057/1057 1058/1058/1058
f 1056/1056/1056 1058/1058/1058 1059/1059/1059
f 1060/1060/1060 1061/1061/1061 1062/1062/1062
f 1060/1060/1060 1062/1062/1062 1063/1063/1063
f 1064/1064/1064 1065/1065/1065 1066/1066/1066
f 1064/1064/1064 1066/1066/1066 1067/1067/1067
f 1068/1068/1068 1069/1069/1069 1070/1070/1070
f 1068/1068/1068 1070/1070/1070 1071/1071/1071
f 1072/1072/1072 1073/1073/1073 1074/1074/1074
f 1072/1072/1072 1074/1074/1074 1075/1075/1075
f 1076/1076/1076 1077/1077/1077 1078/1078/1078
f 1076/1076/1076 1078/1078/1078 1079/1079/1079
f 1080/1080/1080 1081/1081/1081 1082/1082/1082
f 1080/1080/1080 1082/1082/1082 1083/1083/1083
f 1084/1084/1084 1085/1085/1085 1086/1086/1086
f 1084/1084/1084 1086/1086/1086 1087/1087/1087
f 1088/1088/1088 1089/1089/1089 1090/1090/1090
f 1088/1088/1088 1090/1090/1090 1091/1091/1091
f 1092/1092/1092 1093/1093/1093 1094/1094/1094
f 1092/1092/1092 1094/1094/1094 1095/1095/1095
f 1096/1096/1096 1097/1097/1097 1098/1098/1098
f 1096/1096/1096 1098/1098/1098 1099/1099/1099
f 1100/1100/1100 1101/1101/1101 1102/1102/1102
f 1100/1100/1100 1102/1102/1102 1103/1103/1103
f 1104/1104/1104 1105/1105/1105 1106/1106/1106
f 1104/1104/1104 1106/1106/1106 1107/1107/1107
f 1108/1108/1108 1109/1109/1109 1110/1110/1110
f 1108/1108/1108 1110/1110/1110 1111/1111/1111
f 1112/1112/1112 1113/1113/1113 1114/1114/1114
f 1112/1112/1112 1114/1114/1114 1115/1115/1115
f 1116/1116/1116 1117/1117/1117 1118/1118/1118
f 1116/1116/1116 1118/1118/1118 1119/1119/1119
f 1120/1120/1120 1121/1121/1121 1122/1122/1122
f 1120/1120/1120 1122/1122/1122 1123/1123/1123
f 1124/1124/1124 1125/1125/1125 1126/1126/1126
f 1124/1124/1124 1126/1126/1126 1127/1127/1127
f 1128/1128/1128 1129/1129/1129 1130/1130/1130
f 1128/1128/1128 1130/1130/1130 1131/1131/1131
f 1132/1132/1132 1133/1133/1133 1134/1134/1134
f 1132/1132/1132 1134/1134/1134 1135/1135/1135
f 1136/1136/1136 1137/1137/1137 1138/1138/1138
f 1136/1136/1136 1138/1138/1138 1139/1139/1139
f 1140/1140/1140 1141/1141/1141 1142/1142/1142
f 1140/1140/1140 1142/1142/1142 1143/1143/1143
f 1144/1144/1144 1145/1145/1145 1146/1146/1146
f 1144/1144/1144 1146/1146/1146 1147/1147/1147
f 1148/1148/1148 1149/1149/1149 1150/1150/1150
f 1148/1148/1148 1150/1150/1150 1151/1151/1151
f 1152/1152/1152 1153/1153/1153 1154/1154/1154
f 1152/1152/1152 1154/1154/1154 1155/1155/1155
f 1156/1156/1156 1157/1157/1157 1158/1158/1158
f 1156/1156/1156 1158/1158/1158 1159/1159/1159
f 1160/1160/1160 1161/1161/1161 1162/1162/1162
f 1160/1160/1160 1162/1162/1162 1163/1163/1163
f 1164/1164/1164 1165/1165/1165 1166/1166/1166
f 1164/1164/1164 1166/1166/1166 1167/1167/1167
f 1168/1168/1168 1169/1169/1169 1170/1170/1170
f 1168/1168/1168 1170/1170/1170 1171/1171/1171
f 1172/1172/1172 1173/1173/1173 1174/1174/1174
f 1172/1172/1172 1174/1174/1174 1175/1175/1175
f 1176/1176/1176 1177/1177/1177 1178/1178/1178
f 1176/1176/1176 1178/1178/1178 1179/1179/1179
f 1180/1180/1180 1181/1181/1181 1182/1182/1182
f 1180/1180/1180 1182/1182/1182 1183/1183/1183
f 1184/1184/1184 1185/1185/1185 1186/1186/1186
f 1184/1184/1184 1186/1186/1186 1187/1187/1187
f 1188/1188/1188 1189/1189/1189 1190/1190/1190
f 1188/1188/1188 1190/1190/1190 1191/1191/1191
f 1192/1192/1192 1193/1193/1193 1194/1194/1194
f 1192/1192/1192 1194/1194/1194 1195/1195/1195
f 1196/1196/1196 1197/1197/1197 1198/1198/1198
f 1196/1196/1196 1198/1198/1198 1199/1199/1199
f 1200/1200/1200 1201/1201/1201 1202/1202/1202
f 1200/1200/1200 1202/1202/1202 1203/1203/1203
f 1204/1204/1204 1205/1205/1205 1206/1206/1206
f 1204/1204/1204 1206/1206/1206 1207/1207/1207
f 1208/1208/1208 1209/1209/1209 1210/1210/1210
f 1208/1208/1208 1210/1210/1210 1211/1211/1211
f 1212/1212/1212 1213/1213/1213 1214/1214/1214
f 1212/1212/1212 1214/1214/1214 1215/1215/1215
f 1216/1216/1216 1217/1217/1217 1218/1218/1218
f 1216/1216/1216 1218/1218/1218 1219/1219/1219
f 1220/1220/1220 1221/1221/1221 1222/1222/1222
f 1220/1220/1220 1222/1222/1222 1223/1223/1223
f 1224/1224/1224 1225/1225/1225 1226/1226/1226
f 1224/1224/1224 1226/1226/1226 1227/1227/1227
f 1228/1228/1228 1229/1229/1229 1230/1230/1230
f 1228/1228/1228 1230/1230/1230 1231/1231/1231
f 1232/1232/1232 1233/1233/1233 1234/1234/1234
f 1232/1232/1232 1234/1234/1234 1235/1235/1235
f 1236/1236/1236 1237/1237/1237 1238/1238/1238
f 1236/1236/1236 1238/1238/1238 1239/1239/1239
f 1240/1240/1240 1241/1241/1241 1242/1242/1242
f 1240/1240/1240 1242/1242/1242 1243/1243/1243
f 1244/1244/1244 1245/1245/1245 1246/1246/1246
f 1244/1244/1244 1246/1246/1246 1247/1247/1247
f 1248/1248/1248 1249/1249/1249 1250/1250/1250
f 1248/1248/1248 1250/1250/1250 1251/1251/1251
